{"glyphs":{"0":{"ha":569,"x_min":35,"x_max":517,"o":"m 517 407 q 488 242 517 318 q 407 99 458 167 q 370 58 389 76 q 328 26 351 40 q 235 4 285 -1 q 149 44 186 10 q 120 78 133 60 q 96 118 107 97 q 57 272 63 192 q 104 618 35 449 q 132 674 115 647 q 171 722 149 700 q 209 746 189 738 q 254 743 229 754 q 267 740 261 740 q 279 740 274 740 q 469 626 411 744 q 499 551 489 590 q 511 472 508 513 q 515 440 513 457 q 517 407 517 422 m 175 361 q 185 267 178 311 q 207 181 192 222 q 219 156 211 168 q 233 132 226 143 q 286 122 257 104 q 303 134 296 126 q 317 149 311 142 q 357 201 342 172 q 386 260 372 229 q 413 368 410 310 q 410 469 418 419 q 383 568 403 519 q 331 636 364 617 q 249 653 299 656 q 221 632 231 653 q 187 497 199 565 q 175 361 175 429 z "},"1":{"ha":213,"x_min":51,"x_max":165,"o":"m 150 360 q 150 244 147 301 q 153 128 153 186 q 153 83 153 106 q 158 36 154 60 q 146 3 165 15 q 113 14 129 -4 q 103 31 106 19 q 94 63 97 46 q 88 94 90 79 q 77 197 82 147 q 69 299 72 247 q 64 390 68 344 q 57 481 60 435 q 53 587 54 533 q 61 693 51 640 q 67 713 63 704 q 75 731 71 722 q 111 749 90 753 q 142 722 135 747 q 151 685 149 704 q 153 647 153 667 q 153 545 154 596 q 150 443 153 494 l 150 360 z "},"2":{"ha":553,"x_min":49,"x_max":506,"o":"m 257 144 q 295 148 276 144 q 332 149 314 151 q 406 135 371 149 q 475 106 440 122 q 499 64 506 88 q 458 32 492 36 q 421 33 440 31 q 382 36 401 35 q 272 31 326 39 q 165 10 218 22 q 146 5 156 7 q 125 3 136 3 q 94 10 108 3 q 74 32 81 17 q 83 93 57 67 q 110 123 96 108 q 138 151 124 138 q 300 389 238 258 q 331 458 318 424 q 349 531 343 493 q 350 569 350 550 q 342 607 350 589 q 294 635 328 640 q 254 618 274 631 q 188 563 219 594 q 133 493 156 532 q 128 481 131 488 q 124 465 126 474 q 102 444 118 449 q 71 453 86 439 q 53 507 49 474 q 67 557 56 535 q 92 601 78 579 q 213 719 140 678 q 249 737 231 729 q 288 747 268 744 q 391 726 349 757 q 450 651 433 696 q 463 592 461 621 q 461 532 464 563 q 433 434 451 481 q 390 343 415 388 q 335 253 365 297 q 274 169 306 210 q 257 144 263 160 z "},"3":{"ha":574,"x_min":49,"x_max":524,"o":"m 328 506 q 351 497 340 500 q 374 490 363 493 q 449 447 418 476 q 499 376 481 418 q 519 297 515 339 q 513 214 524 256 q 354 39 482 86 q 288 17 322 26 q 217 3 253 8 q 158 7 188 1 q 115 56 124 18 q 128 94 108 79 q 165 94 147 107 q 188 93 174 89 q 267 120 228 104 q 340 161 306 136 q 391 215 372 185 q 413 285 410 246 q 394 363 418 329 q 321 406 371 396 q 283 407 303 408 q 242 407 263 406 q 186 442 201 413 q 194 506 171 471 q 219 535 206 521 q 244 565 232 550 q 274 599 260 581 q 300 635 288 617 q 304 644 308 639 q 298 647 301 647 q 292 647 294 647 q 213 620 251 636 q 142 576 175 604 q 130 563 136 571 q 121 544 124 554 q 78 528 111 507 q 54 560 60 539 q 58 606 49 582 q 82 644 67 628 q 115 674 97 661 q 205 724 157 706 q 303 747 253 742 q 328 748 317 750 q 353 743 340 746 q 404 706 388 733 q 413 643 421 679 q 395 596 408 618 q 367 553 382 574 q 328 506 346 529 z "},"4":{"ha":500,"x_min":50,"x_max":449,"o":"m 165 361 q 222 376 194 369 q 275 389 249 383 q 291 391 283 389 q 308 393 299 393 q 324 411 324 393 q 324 503 322 457 q 329 594 326 550 q 336 651 332 622 q 350 707 340 681 q 356 725 353 717 q 365 740 360 733 q 413 761 381 768 q 444 724 440 758 q 448 681 447 701 q 449 640 449 661 q 442 538 446 589 q 433 435 439 486 q 426 353 431 394 q 419 269 422 313 q 411 160 414 218 q 406 98 408 129 q 403 35 403 67 q 388 7 403 17 q 354 7 372 -3 q 340 22 344 14 q 332 40 335 31 q 327 72 326 56 q 325 103 328 88 q 324 191 324 147 q 324 278 324 235 q 324 288 324 283 q 321 297 324 292 q 315 299 318 300 q 308 294 311 297 q 225 269 268 279 q 140 243 182 258 q 119 239 131 240 q 96 240 107 238 q 62 266 74 247 q 54 310 50 285 q 67 349 61 329 q 79 389 74 368 q 106 483 92 436 q 133 576 119 529 q 151 635 142 606 q 171 694 161 665 q 186 728 175 713 q 225 747 201 754 q 246 711 246 740 q 246 674 249 693 q 240 636 243 656 q 208 504 228 569 q 169 374 189 439 q 165 361 168 372 z "},"5":{"ha":483,"x_min":51,"x_max":435,"o":"m 161 478 q 185 485 175 481 q 204 494 194 490 q 288 500 249 510 q 358 463 328 490 q 405 399 389 436 q 415 324 421 363 q 361 190 403 247 q 287 108 326 146 q 203 35 247 69 q 188 25 194 29 q 174 18 181 21 q 126 19 149 7 q 103 57 104 31 q 125 93 99 82 q 144 103 135 94 q 221 198 185 149 q 278 307 257 247 q 283 326 281 317 q 286 347 285 336 q 283 372 288 360 q 267 390 279 383 q 247 397 257 399 q 225 390 236 396 q 197 373 210 383 q 171 351 183 363 q 152 336 161 343 q 132 326 143 329 q 85 333 107 321 q 57 372 64 346 q 52 407 51 389 q 53 443 53 425 q 56 544 53 493 q 69 644 60 594 q 79 682 72 665 q 96 703 86 694 q 121 710 106 711 q 135 713 129 710 q 146 718 140 717 q 271 740 208 738 q 396 731 333 742 q 419 719 407 726 q 432 697 435 713 q 408 676 428 679 q 294 651 351 665 q 178 631 238 638 q 156 624 160 628 q 154 601 153 621 q 158 540 157 571 q 161 478 160 510 z "},"6":{"ha":500,"x_min":51,"x_max":453,"o":"m 167 265 q 210 306 189 286 q 254 343 232 325 q 292 367 272 357 q 333 381 311 378 q 419 356 386 388 q 449 269 453 325 q 421 182 444 225 q 359 94 394 135 q 275 26 324 53 q 206 3 240 6 q 138 24 172 1 q 112 50 122 35 q 92 81 101 65 q 65 149 74 113 q 54 222 57 185 q 56 330 51 276 q 71 436 61 383 q 94 530 81 483 q 128 619 107 576 q 158 674 142 647 q 199 722 174 700 q 218 737 208 729 q 240 747 228 744 q 290 732 268 754 q 292 689 310 708 q 265 650 275 671 q 244 607 254 629 q 198 468 218 539 q 171 324 178 397 q 169 295 169 310 q 167 265 169 281 m 353 268 q 346 269 347 268 q 342 268 344 269 q 315 257 329 264 q 246 212 278 239 q 194 147 214 185 q 199 110 182 125 q 214 101 206 100 q 232 107 222 103 q 240 113 236 110 q 249 118 243 115 q 283 147 268 131 q 311 181 299 163 q 338 221 326 200 q 353 268 350 242 z "},"7":{"ha":511,"x_min":51,"x_max":458,"o":"m 338 656 q 263 640 299 647 q 190 624 226 633 q 113 611 153 611 q 97 610 106 610 q 82 615 89 611 q 60 635 68 622 q 53 664 51 649 q 64 687 54 678 q 86 699 74 696 q 122 708 103 704 q 158 718 140 713 q 260 735 208 729 q 361 747 311 742 q 388 748 375 749 q 415 743 401 747 q 458 682 458 729 q 457 661 458 672 q 450 639 456 650 q 413 565 435 600 q 351 458 382 511 q 290 349 319 404 q 239 252 264 301 q 194 151 214 203 q 181 115 189 133 q 167 78 174 97 q 161 54 164 65 q 161 31 158 43 q 146 6 163 14 q 121 10 133 0 q 107 28 111 17 q 100 53 103 40 q 105 94 100 74 q 115 132 110 114 q 147 238 129 185 q 186 343 165 292 q 251 492 214 419 q 329 635 289 564 q 333 641 332 638 q 336 649 335 644 q 336 651 336 649 q 338 656 336 653 z "},"8":{"ha":449,"x_min":51,"x_max":400,"o":"m 53 119 q 69 208 51 168 q 113 286 88 249 q 122 300 115 294 q 129 314 129 306 q 122 325 128 321 q 111 335 115 329 q 80 393 86 361 q 79 460 74 425 q 91 501 82 482 q 111 536 100 519 q 178 633 140 589 q 257 719 217 678 q 294 744 272 736 q 347 747 321 756 q 386 711 372 739 q 396 649 400 681 q 384 564 393 606 q 363 481 375 522 q 321 356 344 418 q 319 340 318 346 q 329 326 319 333 q 367 201 390 278 q 345 153 360 175 q 313 110 331 132 q 271 65 293 86 q 221 28 249 43 q 189 12 206 18 q 153 3 172 6 q 90 22 118 0 q 54 78 63 43 q 53 99 53 89 q 53 119 53 110 m 269 597 q 265 595 267 596 q 261 593 263 594 q 218 542 239 568 q 182 485 197 517 q 165 444 171 465 q 168 411 163 425 q 192 386 174 397 q 211 376 199 379 q 226 373 224 371 q 232 389 229 375 q 245 471 239 429 q 261 553 251 513 q 267 574 264 564 q 269 597 269 585 m 286 228 q 283 225 285 226 q 279 222 282 224 q 238 207 267 200 q 220 222 225 213 q 213 243 215 232 q 212 256 211 250 q 213 268 213 263 q 212 275 213 271 q 207 281 211 279 q 196 272 201 281 q 167 199 179 236 q 153 122 154 163 q 159 97 153 100 q 183 103 165 93 q 188 106 186 106 q 192 107 190 106 q 279 199 249 143 q 285 212 282 206 q 286 228 289 218 z "},"9":{"ha":542,"x_min":50,"x_max":493,"o":"m 358 465 q 346 440 353 453 q 332 414 339 428 q 292 349 314 379 q 238 297 269 319 q 178 272 208 276 q 115 285 147 267 q 91 304 101 292 q 74 331 81 317 q 53 407 56 364 q 77 554 50 488 q 158 676 104 621 q 211 713 182 700 q 275 726 240 726 q 297 723 286 726 q 317 718 307 719 q 334 725 328 717 q 350 736 340 733 q 388 736 369 742 q 419 715 407 731 q 431 695 426 706 q 440 674 435 685 q 483 499 472 589 q 488 315 493 408 q 463 161 485 236 q 427 85 450 119 q 367 26 404 50 q 288 5 328 0 q 224 57 247 10 q 218 81 218 69 q 228 103 218 93 q 274 110 244 124 q 292 107 285 104 q 304 118 299 110 q 354 235 346 171 q 365 297 360 267 q 369 360 369 326 q 368 413 369 386 q 358 465 367 439 m 179 390 q 240 439 213 404 q 282 514 267 474 q 304 597 297 554 q 283 615 311 625 q 273 613 278 615 q 263 606 268 610 q 207 544 228 581 q 175 465 186 508 q 172 428 172 447 q 179 390 172 410 z "},"A":{"ha":586,"x_min":50,"x_max":543,"o":"m 99 135 q 101 194 99 164 q 107 256 104 225 q 103 272 107 265 q 88 282 100 279 q 60 303 71 286 q 52 342 50 321 q 71 378 54 363 q 104 399 86 393 q 122 410 117 401 q 128 428 126 418 q 134 489 131 458 q 142 549 138 519 q 167 699 153 624 q 194 849 181 774 q 212 930 204 889 q 233 1011 219 971 q 244 1036 239 1024 q 257 1060 249 1049 q 324 1101 282 1101 q 392 1060 367 1101 q 414 1016 407 1039 q 425 969 421 993 q 447 849 438 910 q 465 728 456 789 q 478 599 472 664 q 490 469 485 535 q 495 455 492 463 q 507 443 499 447 q 513 381 543 411 q 503 344 499 364 q 509 269 506 307 q 515 194 513 232 q 522 124 518 160 q 533 51 526 88 q 511 7 540 19 q 463 18 488 -7 q 446 41 453 28 q 433 68 439 54 q 414 141 421 104 q 400 215 407 178 q 391 272 396 243 q 382 328 386 300 q 378 340 381 336 q 365 343 375 344 q 311 331 339 338 q 257 318 283 325 q 242 299 242 314 q 232 197 238 247 q 221 94 226 147 q 219 69 219 82 q 219 44 219 57 q 178 -10 213 1 q 144 -9 160 -15 q 115 10 128 -3 q 103 30 106 19 q 100 53 100 40 q 99 92 99 72 q 99 135 99 113 m 317 832 q 308 814 308 819 q 271 624 283 719 q 262 540 267 582 q 253 456 257 497 q 253 440 251 443 q 269 439 256 438 q 308 443 289 440 q 346 447 328 446 q 363 465 367 447 q 356 520 358 493 q 349 574 353 547 q 342 633 346 604 q 336 693 338 663 q 328 763 333 728 q 317 832 324 797 z "},"Á":{"ha":586,"x_min":50,"x_max":543,"o":"m 99 135 q 101 194 99 164 q 107 256 104 225 q 103 272 107 265 q 88 282 100 279 q 60 303 71 286 q 52 342 50 321 q 71 378 54 363 q 104 399 86 393 q 122 410 117 401 q 128 428 126 418 q 134 489 131 458 q 142 549 138 519 q 167 699 153 624 q 194 849 181 774 q 212 930 204 889 q 233 1011 219 971 q 244 1036 239 1024 q 257 1060 249 1049 q 324 1101 282 1101 q 392 1060 367 1101 q 414 1016 407 1039 q 425 969 421 993 q 447 849 438 910 q 465 728 456 789 q 478 599 472 664 q 490 469 485 535 q 495 455 492 463 q 507 443 499 447 q 513 381 543 411 q 503 344 499 364 q 509 269 506 307 q 515 194 513 232 q 522 124 518 160 q 533 51 526 88 q 511 7 540 19 q 463 18 488 -7 q 446 41 453 28 q 433 68 439 54 q 414 141 421 104 q 400 215 407 178 q 391 272 396 243 q 382 328 386 300 q 378 340 381 336 q 365 343 375 344 q 311 331 339 338 q 257 318 283 325 q 242 299 242 314 q 232 197 238 247 q 221 94 226 147 q 219 69 219 82 q 219 44 219 57 q 178 -10 213 1 q 144 -9 160 -15 q 115 10 128 -3 q 103 30 106 19 q 100 53 100 40 q 99 92 99 72 q 99 135 99 113 m 317 832 q 308 814 308 819 q 271 624 283 719 q 262 540 267 582 q 253 456 257 497 q 253 440 251 443 q 269 439 256 438 q 308 443 289 440 q 346 447 328 446 q 363 465 367 447 q 356 520 358 493 q 349 574 353 547 q 342 633 346 604 q 336 693 338 663 q 328 763 333 728 q 317 832 324 797 m 274 1139 q 250 1151 258 1139 q 244 1176 242 1163 q 247 1181 246 1179 q 249 1186 249 1183 q 310 1278 276 1235 q 383 1361 343 1322 q 396 1369 390 1368 q 413 1370 406 1375 q 421 1356 421 1365 q 418 1346 419 1350 q 415 1336 417 1342 q 368 1249 392 1293 q 313 1165 344 1206 q 296 1148 306 1156 q 274 1139 286 1140 z "},"Ă":{"ha":586,"x_min":50,"x_max":543,"o":"m 99 135 q 101 194 99 164 q 107 256 104 225 q 103 272 107 265 q 88 282 100 279 q 60 303 71 286 q 52 342 50 321 q 71 378 54 363 q 104 399 86 393 q 122 410 117 401 q 128 428 126 418 q 134 489 131 458 q 142 549 138 519 q 167 699 153 624 q 194 849 181 774 q 212 930 204 889 q 233 1011 219 971 q 244 1036 239 1024 q 257 1060 249 1049 q 324 1101 282 1101 q 392 1060 367 1101 q 414 1016 407 1039 q 425 969 421 993 q 447 849 438 910 q 465 728 456 789 q 478 599 472 664 q 490 469 485 535 q 495 455 492 463 q 507 443 499 447 q 513 381 543 411 q 503 344 499 364 q 509 269 506 307 q 515 194 513 232 q 522 124 518 160 q 533 51 526 88 q 511 7 540 19 q 463 18 488 -7 q 446 41 453 28 q 433 68 439 54 q 414 141 421 104 q 400 215 407 178 q 391 272 396 243 q 382 328 386 300 q 378 340 381 336 q 365 343 375 344 q 311 331 339 338 q 257 318 283 325 q 242 299 242 314 q 232 197 238 247 q 221 94 226 147 q 219 69 219 82 q 219 44 219 57 q 178 -10 213 1 q 144 -9 160 -15 q 115 10 128 -3 q 103 30 106 19 q 100 53 100 40 q 99 92 99 72 q 99 135 99 113 m 317 832 q 308 814 308 819 q 271 624 283 719 q 262 540 267 582 q 253 456 257 497 q 253 440 251 443 q 269 439 256 438 q 308 443 289 440 q 346 447 328 446 q 363 465 367 447 q 356 520 358 493 q 349 574 353 547 q 342 633 346 604 q 336 693 338 663 q 328 763 333 728 q 317 832 324 797 m 393 1329 q 398 1334 396 1332 q 406 1333 400 1336 q 411 1321 411 1332 q 410 1298 411 1319 q 402 1249 408 1276 q 379 1202 396 1222 q 331 1182 363 1182 q 288 1203 304 1182 q 263 1251 272 1224 q 251 1300 254 1278 q 247 1325 247 1322 q 256 1342 249 1335 q 269 1350 264 1349 q 293 1333 283 1354 q 297 1309 294 1328 q 307 1274 299 1290 q 332 1257 315 1257 q 369 1272 358 1257 q 383 1306 379 1288 q 393 1329 388 1324 z "},"Ǎ":{"ha":586,"x_min":50,"x_max":543,"o":"m 99 135 q 101 194 99 164 q 107 256 104 225 q 103 272 107 265 q 88 282 100 279 q 60 303 71 286 q 52 342 50 321 q 71 378 54 363 q 104 399 86 393 q 122 410 117 401 q 128 428 126 418 q 134 489 131 458 q 142 549 138 519 q 167 699 153 624 q 194 849 181 774 q 212 930 204 889 q 233 1011 219 971 q 244 1036 239 1024 q 257 1060 249 1049 q 324 1101 282 1101 q 392 1060 367 1101 q 414 1016 407 1039 q 425 969 421 993 q 447 849 438 910 q 465 728 456 789 q 478 599 472 664 q 490 469 485 535 q 495 455 492 463 q 507 443 499 447 q 513 381 543 411 q 503 344 499 364 q 509 269 506 307 q 515 194 513 232 q 522 124 518 160 q 533 51 526 88 q 511 7 540 19 q 463 18 488 -7 q 446 41 453 28 q 433 68 439 54 q 414 141 421 104 q 400 215 407 178 q 391 272 396 243 q 382 328 386 300 q 378 340 381 336 q 365 343 375 344 q 311 331 339 338 q 257 318 283 325 q 242 299 242 314 q 232 197 238 247 q 221 94 226 147 q 219 69 219 82 q 219 44 219 57 q 178 -10 213 1 q 144 -9 160 -15 q 115 10 128 -3 q 103 30 106 19 q 100 53 100 40 q 99 92 99 72 q 99 135 99 113 m 317 832 q 308 814 308 819 q 271 624 283 719 q 262 540 267 582 q 253 456 257 497 q 253 440 251 443 q 269 439 256 438 q 308 443 289 440 q 346 447 328 446 q 363 465 367 447 q 356 520 358 493 q 349 574 353 547 q 342 633 346 604 q 336 693 338 663 q 328 763 333 728 q 317 832 324 797 m 332 1267 q 347 1294 342 1282 q 357 1319 353 1307 q 385 1369 367 1347 q 424 1413 404 1390 q 440 1417 432 1421 q 451 1400 451 1414 q 449 1388 451 1392 q 424 1312 433 1350 q 399 1236 414 1274 q 389 1210 394 1224 q 374 1186 383 1197 q 324 1162 351 1160 q 282 1194 297 1164 q 254 1267 267 1231 q 231 1340 242 1303 q 226 1356 229 1347 q 222 1371 224 1364 q 219 1388 219 1379 q 218 1404 218 1397 q 247 1436 221 1431 q 278 1415 267 1439 q 296 1370 288 1393 q 311 1324 304 1347 q 322 1297 318 1311 q 332 1267 326 1282 z "},"Â":{"ha":586,"x_min":50,"x_max":543,"o":"m 99 135 q 101 194 99 164 q 107 256 104 225 q 103 272 107 265 q 88 282 100 279 q 60 303 71 286 q 52 342 50 321 q 71 378 54 363 q 104 399 86 393 q 122 410 117 401 q 128 428 126 418 q 134 489 131 458 q 142 549 138 519 q 167 699 153 624 q 194 849 181 774 q 212 930 204 889 q 233 1011 219 971 q 244 1036 239 1024 q 257 1060 249 1049 q 324 1101 282 1101 q 392 1060 367 1101 q 414 1016 407 1039 q 425 969 421 993 q 447 849 438 910 q 465 728 456 789 q 478 599 472 664 q 490 469 485 535 q 495 455 492 463 q 507 443 499 447 q 513 381 543 411 q 503 344 499 364 q 509 269 506 307 q 515 194 513 232 q 522 124 518 160 q 533 51 526 88 q 511 7 540 19 q 463 18 488 -7 q 446 41 453 28 q 433 68 439 54 q 414 141 421 104 q 400 215 407 178 q 391 272 396 243 q 382 328 386 300 q 378 340 381 336 q 365 343 375 344 q 311 331 339 338 q 257 318 283 325 q 242 299 242 314 q 232 197 238 247 q 221 94 226 147 q 219 69 219 82 q 219 44 219 57 q 178 -10 213 1 q 144 -9 160 -15 q 115 10 128 -3 q 103 30 106 19 q 100 53 100 40 q 99 92 99 72 q 99 135 99 113 m 317 832 q 308 814 308 819 q 271 624 283 719 q 262 540 267 582 q 253 456 257 497 q 253 440 251 443 q 269 439 256 438 q 308 443 289 440 q 346 447 328 446 q 363 465 367 447 q 356 520 358 493 q 349 574 353 547 q 342 633 346 604 q 336 693 338 663 q 328 763 333 728 q 317 832 324 797 m 325 1322 q 306 1289 313 1307 q 290 1253 300 1271 q 279 1232 285 1243 q 267 1210 274 1221 q 224 1186 253 1179 q 199 1228 199 1193 q 207 1257 201 1244 q 233 1332 219 1294 q 265 1406 247 1369 q 285 1434 272 1422 q 319 1447 299 1446 q 354 1437 339 1447 q 379 1410 369 1426 q 398 1373 390 1392 q 411 1335 406 1354 q 425 1263 418 1299 q 440 1190 432 1226 q 441 1185 440 1188 q 442 1181 442 1183 q 433 1160 446 1167 q 411 1160 422 1154 q 399 1174 403 1167 q 392 1189 394 1181 q 366 1247 379 1218 q 338 1303 353 1275 q 333 1314 335 1308 q 325 1322 331 1319 z "},"Ä":{"ha":586,"x_min":50,"x_max":543,"o":"m 99 135 q 101 194 99 164 q 107 256 104 225 q 103 272 107 265 q 88 282 100 279 q 60 303 71 286 q 52 342 50 321 q 71 378 54 363 q 104 399 86 393 q 122 410 117 401 q 128 428 126 418 q 134 489 131 458 q 142 549 138 519 q 167 699 153 624 q 194 849 181 774 q 212 930 204 889 q 233 1011 219 971 q 244 1036 239 1024 q 257 1060 249 1049 q 324 1101 282 1101 q 392 1060 367 1101 q 414 1016 407 1039 q 425 969 421 993 q 447 849 438 910 q 465 728 456 789 q 478 599 472 664 q 490 469 485 535 q 495 455 492 463 q 507 443 499 447 q 513 381 543 411 q 503 344 499 364 q 509 269 506 307 q 515 194 513 232 q 522 124 518 160 q 533 51 526 88 q 511 7 540 19 q 463 18 488 -7 q 446 41 453 28 q 433 68 439 54 q 414 141 421 104 q 400 215 407 178 q 391 272 396 243 q 382 328 386 300 q 378 340 381 336 q 365 343 375 344 q 311 331 339 338 q 257 318 283 325 q 242 299 242 314 q 232 197 238 247 q 221 94 226 147 q 219 69 219 82 q 219 44 219 57 q 178 -10 213 1 q 144 -9 160 -15 q 115 10 128 -3 q 103 30 106 19 q 100 53 100 40 q 99 92 99 72 q 99 135 99 113 m 317 832 q 308 814 308 819 q 271 624 283 719 q 262 540 267 582 q 253 456 257 497 q 253 440 251 443 q 269 439 256 438 q 308 443 289 440 q 346 447 328 446 q 363 465 367 447 q 356 520 358 493 q 349 574 353 547 q 342 633 346 604 q 336 693 338 663 q 328 763 333 728 q 317 832 324 797 m 444 1263 q 431 1234 444 1247 q 400 1221 418 1221 q 371 1236 383 1224 q 358 1267 358 1249 q 373 1297 361 1285 q 403 1308 385 1308 q 433 1295 419 1308 q 444 1263 446 1282 m 292 1228 q 265 1238 276 1228 q 253 1263 254 1247 q 288 1303 253 1299 q 315 1293 303 1304 q 328 1267 326 1282 q 317 1240 328 1251 q 292 1228 307 1229 z "},"À":{"ha":586,"x_min":50,"x_max":543,"o":"m 99 135 q 101 194 99 164 q 107 256 104 225 q 103 272 107 265 q 88 282 100 279 q 60 303 71 286 q 52 342 50 321 q 71 378 54 363 q 104 399 86 393 q 122 410 117 401 q 128 428 126 418 q 134 489 131 458 q 142 549 138 519 q 167 699 153 624 q 194 849 181 774 q 212 930 204 889 q 233 1011 219 971 q 244 1036 239 1024 q 257 1060 249 1049 q 324 1101 282 1101 q 392 1060 367 1101 q 414 1016 407 1039 q 425 969 421 993 q 447 849 438 910 q 465 728 456 789 q 478 599 472 664 q 490 469 485 535 q 495 455 492 463 q 507 443 499 447 q 513 381 543 411 q 503 344 499 364 q 509 269 506 307 q 515 194 513 232 q 522 124 518 160 q 533 51 526 88 q 511 7 540 19 q 463 18 488 -7 q 446 41 453 28 q 433 68 439 54 q 414 141 421 104 q 400 215 407 178 q 391 272 396 243 q 382 328 386 300 q 378 340 381 336 q 365 343 375 344 q 311 331 339 338 q 257 318 283 325 q 242 299 242 314 q 232 197 238 247 q 221 94 226 147 q 219 69 219 82 q 219 44 219 57 q 178 -10 213 1 q 144 -9 160 -15 q 115 10 128 -3 q 103 30 106 19 q 100 53 100 40 q 99 92 99 72 q 99 135 99 113 m 317 832 q 308 814 308 819 q 271 624 283 719 q 262 540 267 582 q 253 456 257 497 q 253 440 251 443 q 269 439 256 438 q 308 443 289 440 q 346 447 328 446 q 363 465 367 447 q 356 520 358 493 q 349 574 353 547 q 342 633 346 604 q 336 693 338 663 q 328 763 333 728 q 317 832 324 797 m 268 1336 q 282 1368 268 1358 q 314 1368 296 1378 q 323 1360 318 1365 q 332 1351 328 1356 q 352 1321 344 1338 q 368 1289 360 1304 q 391 1233 379 1261 q 415 1178 403 1206 q 419 1172 418 1175 q 422 1165 421 1168 q 415 1144 424 1153 q 393 1140 408 1138 q 365 1164 376 1146 q 341 1201 353 1183 q 319 1236 329 1218 q 299 1267 310 1251 q 278 1301 288 1283 q 272 1320 275 1311 q 268 1336 269 1329 z "},"Ā":{"ha":586,"x_min":50,"x_max":543,"o":"m 99 135 q 101 194 99 164 q 107 256 104 225 q 103 272 107 265 q 88 282 100 279 q 60 303 71 286 q 52 342 50 321 q 71 378 54 363 q 104 399 86 393 q 122 410 117 401 q 128 428 126 418 q 134 489 131 458 q 142 549 138 519 q 167 699 153 624 q 194 849 181 774 q 212 930 204 889 q 233 1011 219 971 q 244 1036 239 1024 q 257 1060 249 1049 q 324 1101 282 1101 q 392 1060 367 1101 q 414 1016 407 1039 q 425 969 421 993 q 447 849 438 910 q 465 728 456 789 q 478 599 472 664 q 490 469 485 535 q 495 455 492 463 q 507 443 499 447 q 513 381 543 411 q 503 344 499 364 q 509 269 506 307 q 515 194 513 232 q 522 124 518 160 q 533 51 526 88 q 511 7 540 19 q 463 18 488 -7 q 446 41 453 28 q 433 68 439 54 q 414 141 421 104 q 400 215 407 178 q 391 272 396 243 q 382 328 386 300 q 378 340 381 336 q 365 343 375 344 q 311 331 339 338 q 257 318 283 325 q 242 299 242 314 q 232 197 238 247 q 221 94 226 147 q 219 69 219 82 q 219 44 219 57 q 178 -10 213 1 q 144 -9 160 -15 q 115 10 128 -3 q 103 30 106 19 q 100 53 100 40 q 99 92 99 72 q 99 135 99 113 m 317 832 q 308 814 308 819 q 271 624 283 719 q 262 540 267 582 q 253 456 257 497 q 253 440 251 443 q 269 439 256 438 q 308 443 289 440 q 346 447 328 446 q 363 465 367 447 q 356 520 358 493 q 349 574 353 547 q 342 633 346 604 q 336 693 338 663 q 328 763 333 728 q 317 832 324 797 m 290 1201 q 253 1203 272 1203 q 217 1207 235 1203 q 186 1240 186 1213 q 215 1274 182 1267 q 224 1276 219 1276 q 232 1276 229 1276 q 299 1281 267 1275 q 367 1290 332 1286 q 386 1293 376 1293 q 407 1293 396 1293 q 444 1257 440 1289 q 415 1214 447 1228 q 392 1210 403 1210 q 340 1206 365 1208 q 290 1201 315 1203 z "},"Ą":{"ha":586,"x_min":50,"x_max":619,"o":"m 99 135 q 101 194 99 164 q 107 256 104 225 q 103 272 107 265 q 88 282 100 279 q 60 303 71 286 q 52 342 50 321 q 71 378 54 363 q 104 399 86 393 q 122 410 117 401 q 128 428 126 418 q 134 489 131 458 q 142 549 138 519 q 167 699 153 624 q 194 849 181 774 q 212 930 204 889 q 233 1011 219 971 q 244 1036 239 1024 q 257 1060 249 1049 q 324 1101 282 1101 q 392 1060 367 1101 q 414 1016 407 1039 q 425 969 421 993 q 447 849 438 910 q 465 728 456 789 q 478 599 472 664 q 490 469 485 535 q 495 455 492 463 q 507 443 499 447 q 513 381 543 411 q 503 344 499 364 q 509 269 506 307 q 515 194 513 232 q 522 124 518 160 q 533 51 526 88 q 511 7 540 19 q 463 18 488 -7 q 446 41 453 28 q 433 68 439 54 q 414 141 421 104 q 400 215 407 178 q 391 272 396 243 q 382 328 386 300 q 378 340 381 336 q 365 343 375 344 q 311 331 339 338 q 257 318 283 325 q 242 299 242 314 q 232 197 238 247 q 221 94 226 147 q 219 69 219 82 q 219 44 219 57 q 178 -10 213 1 q 144 -9 160 -15 q 115 10 128 -3 q 103 30 106 19 q 100 53 100 40 q 99 92 99 72 q 99 135 99 113 m 317 832 q 308 814 308 819 q 271 624 283 719 q 262 540 267 582 q 253 456 257 497 q 253 440 251 443 q 269 439 256 438 q 308 443 289 440 q 346 447 328 446 q 363 465 367 447 q 356 520 358 493 q 349 574 353 547 q 342 633 346 604 q 336 693 338 663 q 328 763 333 728 q 317 832 324 797 m 375 -89 q 388 -36 374 -67 q 424 21 401 -6 q 471 56 446 47 q 490 61 481 60 q 510 60 500 63 q 531 42 528 54 q 521 18 533 31 q 491 -15 503 3 q 472 -57 479 -33 q 472 -63 472 -60 q 471 -69 471 -67 q 493 -90 465 -100 q 538 -73 517 -83 q 575 -43 560 -62 q 585 -30 579 -35 q 601 -31 592 -25 q 615 -46 610 -33 q 614 -65 619 -58 q 604 -83 610 -75 q 592 -99 599 -92 q 500 -165 550 -140 q 435 -174 464 -183 q 390 -139 406 -164 q 375 -89 374 -114 z "},"Å":{"ha":586,"x_min":50,"x_max":543,"o":"m 99 135 q 101 194 99 164 q 107 256 104 225 q 103 272 107 265 q 88 282 100 279 q 60 303 71 286 q 52 342 50 321 q 71 378 54 363 q 104 399 86 393 q 122 410 117 401 q 128 428 126 418 q 134 489 131 458 q 142 549 138 519 q 167 699 153 624 q 194 849 181 774 q 212 930 204 889 q 233 1011 219 971 q 244 1036 239 1024 q 257 1060 249 1049 q 324 1101 282 1101 q 392 1060 367 1101 q 414 1016 407 1039 q 425 969 421 993 q 447 849 438 910 q 465 728 456 789 q 478 599 472 664 q 490 469 485 535 q 495 455 492 463 q 507 443 499 447 q 513 381 543 411 q 503 344 499 364 q 509 269 506 307 q 515 194 513 232 q 522 124 518 160 q 533 51 526 88 q 511 7 540 19 q 463 18 488 -7 q 446 41 453 28 q 433 68 439 54 q 414 141 421 104 q 400 215 407 178 q 391 272 396 243 q 382 328 386 300 q 378 340 381 336 q 365 343 375 344 q 311 331 339 338 q 257 318 283 325 q 242 299 242 314 q 232 197 238 247 q 221 94 226 147 q 219 69 219 82 q 219 44 219 57 q 178 -10 213 1 q 144 -9 160 -15 q 115 10 128 -3 q 103 30 106 19 q 100 53 100 40 q 99 92 99 72 q 99 135 99 113 m 317 832 q 308 814 308 819 q 271 624 283 719 q 262 540 267 582 q 253 456 257 497 q 253 440 251 443 q 269 439 256 438 q 308 443 289 440 q 346 447 328 446 q 363 465 367 447 q 356 520 358 493 q 349 574 353 547 q 342 633 346 604 q 336 693 338 663 q 328 763 333 728 q 317 832 324 797 m 215 1249 q 226 1301 218 1276 q 254 1347 235 1326 q 288 1360 271 1361 q 312 1356 300 1357 q 336 1356 324 1356 q 374 1347 356 1354 q 407 1324 393 1339 q 407 1219 454 1276 q 336 1168 376 1188 q 232 1190 272 1144 q 218 1218 221 1203 q 215 1249 215 1233 m 292 1269 q 333 1243 292 1224 q 338 1244 336 1243 q 340 1244 339 1244 q 366 1269 365 1260 q 344 1294 367 1279 q 325 1307 335 1301 q 304 1307 315 1313 q 294 1290 294 1301 q 292 1269 294 1279 z "},"Ã":{"ha":586,"x_min":50,"x_max":543,"o":"m 99 135 q 101 194 99 164 q 107 256 104 225 q 103 272 107 265 q 88 282 100 279 q 60 303 71 286 q 52 342 50 321 q 71 378 54 363 q 104 399 86 393 q 122 410 117 401 q 128 428 126 418 q 134 489 131 458 q 142 549 138 519 q 167 699 153 624 q 194 849 181 774 q 212 930 204 889 q 233 1011 219 971 q 244 1036 239 1024 q 257 1060 249 1049 q 324 1101 282 1101 q 392 1060 367 1101 q 414 1016 407 1039 q 425 969 421 993 q 447 849 438 910 q 465 728 456 789 q 478 599 472 664 q 490 469 485 535 q 495 455 492 463 q 507 443 499 447 q 513 381 543 411 q 503 344 499 364 q 509 269 506 307 q 515 194 513 232 q 522 124 518 160 q 533 51 526 88 q 511 7 540 19 q 463 18 488 -7 q 446 41 453 28 q 433 68 439 54 q 414 141 421 104 q 400 215 407 178 q 391 272 396 243 q 382 328 386 300 q 378 340 381 336 q 365 343 375 344 q 311 331 339 338 q 257 318 283 325 q 242 299 242 314 q 232 197 238 247 q 221 94 226 147 q 219 69 219 82 q 219 44 219 57 q 178 -10 213 1 q 144 -9 160 -15 q 115 10 128 -3 q 103 30 106 19 q 100 53 100 40 q 99 92 99 72 q 99 135 99 113 m 317 832 q 308 814 308 819 q 271 624 283 719 q 262 540 267 582 q 253 456 257 497 q 253 440 251 443 q 269 439 256 438 q 308 443 289 440 q 346 447 328 446 q 363 465 367 447 q 356 520 358 493 q 349 574 353 547 q 342 633 346 604 q 336 693 338 663 q 328 763 333 728 q 317 832 324 797 m 397 1178 q 297 1225 335 1181 q 285 1240 292 1232 q 274 1254 279 1247 q 258 1267 264 1265 q 240 1258 251 1268 q 216 1232 226 1246 q 199 1200 206 1218 q 198 1199 199 1199 q 197 1196 197 1199 q 169 1174 188 1169 q 155 1185 160 1175 q 151 1207 150 1194 q 153 1219 151 1215 q 187 1278 165 1251 q 239 1321 208 1304 q 285 1329 261 1336 q 326 1299 308 1322 q 340 1278 333 1289 q 357 1261 347 1268 q 385 1244 369 1249 q 418 1242 400 1240 q 449 1263 438 1244 q 453 1300 460 1282 q 452 1303 453 1303 q 451 1303 451 1303 q 444 1317 446 1310 q 451 1329 443 1324 q 467 1333 458 1336 q 481 1325 475 1331 q 507 1285 494 1313 q 510 1233 519 1257 q 495 1211 504 1221 q 474 1194 486 1201 q 397 1178 436 1178 z "},"Æ":{"ha":867,"x_min":50,"x_max":817,"o":"m 767 332 q 800 331 785 340 q 815 301 815 321 q 813 290 814 296 q 808 276 811 283 q 783 224 803 249 q 619 56 719 124 q 576 38 597 42 q 536 36 556 33 q 513 7 532 18 q 465 18 489 -7 q 447 41 454 28 q 436 68 440 54 q 417 141 424 104 q 403 215 410 178 q 393 272 397 243 q 383 328 389 300 q 367 343 381 344 q 313 331 340 338 q 258 318 286 325 q 244 299 244 314 q 233 197 239 247 q 224 94 228 147 q 222 69 222 82 q 221 44 221 57 q 179 -10 214 1 q 144 -9 160 -15 q 117 10 129 -3 q 105 30 107 19 q 103 53 103 40 q 100 92 101 72 q 100 135 99 113 q 103 194 100 164 q 107 256 106 225 q 106 272 108 265 q 90 282 103 279 q 61 303 72 286 q 53 342 50 321 q 74 378 56 363 q 89 391 81 386 q 107 399 97 396 q 124 410 119 401 q 128 428 128 418 q 135 489 132 458 q 144 549 139 519 q 168 699 156 624 q 196 849 181 774 q 214 930 206 889 q 236 1011 222 971 q 257 1060 244 1038 q 326 1101 283 1101 q 394 1060 369 1101 q 413 1019 407 1042 q 428 1027 421 1025 q 444 1031 436 1029 q 544 1046 494 1038 q 644 1056 594 1054 q 691 1055 668 1056 q 736 1049 714 1054 q 794 1014 771 1040 q 800 964 817 988 q 753 951 785 939 q 717 958 735 958 q 679 956 699 957 q 606 942 642 950 q 533 926 569 933 q 515 906 515 922 q 518 742 519 825 q 519 578 517 660 q 524 559 521 561 q 542 560 526 557 q 593 564 567 564 q 644 565 619 564 q 683 565 664 565 q 721 564 701 565 q 761 535 754 564 q 733 493 764 507 q 693 480 715 483 q 650 472 671 476 q 596 463 622 467 q 542 456 569 458 q 525 432 525 453 q 526 425 525 429 q 528 418 528 421 l 528 407 q 538 308 532 357 q 554 210 544 258 q 568 172 563 175 q 607 189 574 168 q 677 242 644 213 q 738 307 710 272 q 767 332 751 325 m 349 447 q 365 465 365 447 q 356 520 360 493 q 350 574 353 547 q 343 633 347 604 q 336 693 339 663 q 319 832 332 761 q 311 814 311 822 q 274 624 286 719 q 264 540 268 582 q 254 456 260 497 q 255 440 253 443 q 271 439 257 438 q 310 443 290 440 q 349 447 331 446 z "},"B":{"ha":679,"x_min":49,"x_max":642,"o":"m 378 603 q 425 595 403 599 q 469 585 447 592 q 524 563 497 575 q 574 528 551 550 q 625 351 642 451 q 524 147 606 232 q 353 29 447 67 q 149 -14 258 -8 q 75 14 104 -14 q 53 76 49 39 q 75 108 56 100 q 113 101 94 117 q 147 92 131 88 q 179 101 163 96 q 184 107 185 103 q 182 114 183 111 q 158 254 176 186 q 129 393 139 322 q 109 537 119 465 q 94 681 99 608 q 89 757 92 719 q 83 832 86 794 q 85 853 83 843 q 86 872 86 863 q 90 908 88 892 q 88 943 93 925 q 92 981 85 963 q 111 1011 99 999 q 227 1090 164 1067 q 367 1093 290 1113 q 457 1035 419 1079 q 500 936 494 992 q 499 869 506 901 q 482 803 493 836 q 446 719 468 760 q 400 639 424 678 q 390 622 394 631 q 378 603 385 613 m 232 631 q 244 642 242 635 q 253 656 247 650 q 304 731 281 692 q 346 814 328 771 q 363 859 356 836 q 371 906 371 882 q 311 972 371 968 q 265 965 288 972 q 224 947 243 958 q 219 944 222 946 q 217 936 215 942 q 208 899 228 917 q 206 890 206 896 q 208 878 207 883 q 214 816 211 847 q 219 756 217 785 q 224 694 221 725 q 232 631 226 663 m 263 131 q 291 144 278 138 q 317 156 304 150 q 405 212 365 179 q 469 293 444 244 q 493 352 485 321 q 499 415 501 383 q 486 453 497 440 q 450 474 475 467 q 404 480 428 481 q 358 476 381 479 q 303 467 331 475 q 249 456 276 458 q 240 451 240 456 q 240 439 240 446 q 247 352 244 396 q 250 264 249 308 q 255 200 253 233 q 263 131 257 167 z "},"C":{"ha":542,"x_min":53,"x_max":535,"o":"m 53 540 q 67 703 53 624 q 113 857 81 782 q 183 976 136 921 q 224 1013 203 996 q 269 1039 244 1029 q 363 1044 311 1058 q 444 978 414 1031 q 465 915 461 947 q 454 847 469 882 q 446 831 453 838 q 429 822 439 821 q 413 832 419 822 q 410 842 411 838 q 407 851 408 846 q 378 895 399 881 q 329 919 357 910 q 313 917 319 922 q 299 907 306 913 q 274 879 285 894 q 253 849 263 864 q 222 781 235 817 q 200 710 208 746 q 183 512 181 610 q 215 315 185 414 q 271 206 229 257 q 315 168 289 183 q 363 155 342 150 q 404 182 385 160 q 429 213 419 197 q 449 244 439 229 q 458 260 453 253 q 467 272 463 267 q 511 281 488 293 q 528 264 522 275 q 532 240 535 253 q 499 149 519 193 q 436 74 478 106 q 278 53 364 18 q 201 97 235 68 q 142 164 167 126 q 100 245 115 203 q 75 332 85 288 q 58 436 63 385 q 53 540 53 488 z "},"Ć":{"ha":542,"x_min":53,"x_max":535,"o":"m 53 540 q 67 703 53 624 q 113 857 81 782 q 183 976 136 921 q 224 1013 203 996 q 269 1039 244 1029 q 363 1044 311 1058 q 444 978 414 1031 q 465 915 461 947 q 454 847 469 882 q 446 831 453 838 q 429 822 439 821 q 413 832 419 822 q 410 842 411 838 q 407 851 408 846 q 378 895 399 881 q 329 919 357 910 q 313 917 319 922 q 299 907 306 913 q 274 879 285 894 q 253 849 263 864 q 222 781 235 817 q 200 710 208 746 q 183 512 181 610 q 215 315 185 414 q 271 206 229 257 q 315 168 289 183 q 363 155 342 150 q 404 182 385 160 q 429 213 419 197 q 449 244 439 229 q 458 260 453 253 q 467 272 463 267 q 511 281 488 293 q 528 264 522 275 q 532 240 535 253 q 499 149 519 193 q 436 74 478 106 q 278 53 364 18 q 201 97 235 68 q 142 164 167 126 q 100 245 115 203 q 75 332 85 288 q 58 436 63 385 q 53 540 53 488 m 233 1076 q 210 1088 218 1076 q 204 1114 201 1100 q 207 1119 206 1117 q 208 1124 208 1121 q 269 1216 236 1172 q 343 1299 303 1260 q 356 1307 350 1306 q 373 1308 365 1313 q 381 1293 381 1303 q 378 1283 379 1288 q 375 1274 376 1279 q 328 1187 351 1231 q 272 1103 304 1143 q 256 1085 265 1093 q 233 1076 246 1078 z "},"Č":{"ha":542,"x_min":53,"x_max":535,"o":"m 53 540 q 67 703 53 624 q 113 857 81 782 q 183 976 136 921 q 224 1013 203 996 q 269 1039 244 1029 q 363 1044 311 1058 q 444 978 414 1031 q 465 915 461 947 q 454 847 469 882 q 446 831 453 838 q 429 822 439 821 q 413 832 419 822 q 410 842 411 838 q 407 851 408 846 q 378 895 399 881 q 329 919 357 910 q 313 917 319 922 q 299 907 306 913 q 274 879 285 894 q 253 849 263 864 q 222 781 235 817 q 200 710 208 746 q 183 512 181 610 q 215 315 185 414 q 271 206 229 257 q 315 168 289 183 q 363 155 342 150 q 404 182 385 160 q 429 213 419 197 q 449 244 439 229 q 458 260 453 253 q 467 272 463 267 q 511 281 488 293 q 528 264 522 275 q 532 240 535 253 q 499 149 519 193 q 436 74 478 106 q 278 53 364 18 q 201 97 235 68 q 142 164 167 126 q 100 245 115 203 q 75 332 85 288 q 58 436 63 385 q 53 540 53 488 m 292 1204 q 307 1232 301 1219 q 317 1257 313 1244 q 345 1306 326 1285 q 383 1350 364 1328 q 400 1354 392 1358 q 411 1338 411 1351 q 408 1325 411 1329 q 383 1249 393 1288 q 358 1174 374 1211 q 349 1148 354 1161 q 333 1124 343 1135 q 284 1099 311 1097 q 242 1132 257 1101 q 214 1204 226 1168 q 190 1278 201 1240 q 186 1293 189 1285 q 182 1308 183 1301 q 178 1326 179 1317 q 178 1342 178 1335 q 207 1374 181 1368 q 238 1353 226 1376 q 256 1308 247 1331 q 271 1261 264 1285 q 282 1234 278 1249 q 292 1204 286 1219 z "},"Ç":{"ha":542,"x_min":53,"x_max":535,"o":"m 53 540 q 67 703 53 624 q 113 857 81 782 q 183 976 136 921 q 224 1013 203 996 q 269 1039 244 1029 q 363 1044 311 1058 q 444 978 414 1031 q 465 915 461 947 q 454 847 469 882 q 446 831 453 838 q 429 822 439 821 q 413 832 419 822 q 410 842 411 838 q 407 851 408 846 q 378 895 399 881 q 329 919 357 910 q 313 917 319 922 q 299 907 306 913 q 274 879 285 894 q 253 849 263 864 q 222 781 235 817 q 200 710 208 746 q 183 512 181 610 q 215 315 185 414 q 271 206 229 257 q 315 168 289 183 q 363 155 342 150 q 404 182 385 160 q 429 213 419 197 q 449 244 439 229 q 458 260 453 253 q 467 272 463 267 q 511 281 488 293 q 528 264 522 275 q 532 240 535 253 q 499 149 519 193 q 436 74 478 106 q 278 53 364 18 q 201 97 235 68 q 142 164 167 126 q 100 245 115 203 q 75 332 85 288 q 58 436 63 385 q 53 540 53 488 m 328 -169 q 308 -167 318 -167 q 286 -165 297 -167 q 263 -153 272 -161 q 253 -121 249 -139 q 278 -100 258 -104 q 350 -65 321 -92 q 346 -40 368 -47 q 331 -36 340 -37 q 315 -33 322 -35 q 290 -22 301 -29 q 274 4 278 -14 q 294 63 268 36 q 319 72 307 75 q 338 51 332 69 q 347 34 340 39 q 365 26 354 29 q 454 -44 421 13 q 458 -99 467 -67 q 425 -146 449 -131 q 328 -169 390 -169 z "},"Ċ":{"ha":542,"x_min":53,"x_max":535,"o":"m 53 540 q 67 703 53 624 q 113 857 81 782 q 183 976 136 921 q 224 1013 203 996 q 269 1039 244 1029 q 363 1044 311 1058 q 444 978 414 1031 q 465 915 461 947 q 454 847 469 882 q 446 831 453 838 q 429 822 439 821 q 413 832 419 822 q 410 842 411 838 q 407 851 408 846 q 378 895 399 881 q 329 919 357 910 q 313 917 319 922 q 299 907 306 913 q 274 879 285 894 q 253 849 263 864 q 222 781 235 817 q 200 710 208 746 q 183 512 181 610 q 215 315 185 414 q 271 206 229 257 q 315 168 289 183 q 363 155 342 150 q 404 182 385 160 q 429 213 419 197 q 449 244 439 229 q 458 260 453 253 q 467 272 463 267 q 511 281 488 293 q 528 264 522 275 q 532 240 535 253 q 499 149 519 193 q 436 74 478 106 q 278 53 364 18 q 201 97 235 68 q 142 164 167 126 q 100 245 115 203 q 75 332 85 288 q 58 436 63 385 q 53 540 53 488 m 294 1138 q 265 1148 276 1136 q 253 1178 254 1160 q 267 1213 253 1197 q 299 1228 281 1228 q 338 1179 336 1228 q 324 1151 338 1164 q 294 1138 310 1138 z "},"D":{"ha":686,"x_min":53,"x_max":633,"o":"m 633 669 q 610 485 632 575 q 542 314 588 396 q 442 169 499 236 q 313 49 385 101 q 275 24 294 35 q 233 7 256 14 q 218 4 226 6 q 203 1 210 3 q 137 24 168 -1 q 103 85 106 49 q 105 103 103 94 q 115 115 107 111 q 125 124 125 118 q 124 136 125 131 q 103 247 111 189 q 91 320 97 283 q 82 394 85 357 q 67 600 74 497 q 53 806 60 703 l 53 881 q 60 924 53 904 q 79 964 67 943 q 159 1044 113 1015 q 265 1085 206 1074 q 379 1078 326 1096 q 479 1024 432 1061 q 583 894 547 968 q 629 732 619 819 q 632 713 632 722 q 633 693 632 704 l 633 669 m 217 99 q 236 111 228 104 q 253 124 244 118 q 326 200 293 158 q 388 286 358 242 q 452 413 428 346 q 490 547 476 479 q 501 685 504 617 q 471 819 499 753 q 447 868 461 844 q 413 910 432 892 q 331 956 374 950 q 251 947 289 963 q 186 903 214 931 q 178 892 181 897 q 175 878 175 886 q 176 849 175 864 q 178 819 176 835 q 192 672 188 747 q 203 524 197 597 q 208 453 206 489 q 213 382 211 418 q 215 256 215 318 q 215 128 215 193 q 215 115 215 122 q 217 99 214 107 z "},"Ð":{"ha":686,"x_min":-69,"x_max":633,"o":"m 633 693 l 633 669 q 610 485 632 575 q 540 314 588 396 q 440 169 497 236 q 311 49 383 101 q 274 24 293 35 q 233 7 256 14 q 218 4 226 6 q 203 1 210 3 q 136 24 167 -1 q 103 85 106 49 q 115 115 97 107 q 124 124 122 118 q 124 136 125 131 q 111 192 115 164 q 103 247 107 219 q 89 320 94 283 q 82 394 83 357 q 80 417 81 406 q 78 440 79 428 q 13 426 44 433 q -25 419 -18 418 q -61 460 -53 428 q -43 518 -69 493 q -27 530 -36 525 q -8 536 -18 535 q 69 557 1 542 q 60 681 64 619 q 53 806 57 743 q 52 844 51 825 q 53 881 53 863 q 60 924 53 904 q 79 964 67 943 q 159 1044 113 1015 q 265 1085 206 1074 q 378 1078 325 1096 q 478 1024 432 1061 q 583 894 547 968 q 629 732 619 819 q 631 713 629 722 q 633 693 632 704 m 490 547 q 501 685 504 617 q 471 819 499 753 q 446 868 461 844 q 411 910 431 892 q 330 956 372 950 q 249 947 288 963 q 183 903 211 931 q 176 892 179 897 q 175 878 174 886 q 176 849 175 864 q 178 819 176 835 q 189 700 185 760 q 199 581 193 640 q 215 583 206 582 q 232 585 224 583 q 288 588 251 588 q 356 587 324 589 q 392 581 388 585 q 413 551 411 568 q 399 519 414 535 q 373 510 394 515 q 325 498 351 504 q 276 488 299 492 q 250 482 254 483 q 229 476 240 479 q 207 472 218 474 q 210 426 208 449 q 211 382 211 404 q 215 256 214 318 q 213 128 215 193 q 213 115 213 122 q 217 99 214 107 q 236 111 228 104 q 250 124 244 118 q 326 200 293 158 q 386 286 358 242 q 451 413 425 346 q 490 547 476 479 z "},"Ď":{"ha":686,"x_min":53,"x_max":633,"o":"m 633 669 q 610 485 632 575 q 542 314 588 396 q 442 169 499 236 q 313 49 385 101 q 275 24 294 35 q 233 7 256 14 q 218 4 226 6 q 203 1 210 3 q 137 24 168 -1 q 103 85 106 49 q 105 103 103 94 q 115 115 107 111 q 125 124 125 118 q 124 136 125 131 q 103 247 111 189 q 91 320 97 283 q 82 394 85 357 q 67 600 74 497 q 53 806 60 703 l 53 881 q 60 924 53 904 q 79 964 67 943 q 159 1044 113 1015 q 265 1085 206 1074 q 379 1078 326 1096 q 479 1024 432 1061 q 583 894 547 968 q 629 732 619 819 q 632 713 632 722 q 633 693 632 704 l 633 669 m 217 99 q 236 111 228 104 q 253 124 244 118 q 326 200 293 158 q 388 286 358 242 q 452 413 428 346 q 490 547 476 479 q 501 685 504 617 q 471 819 499 753 q 447 868 461 844 q 413 910 432 892 q 331 956 374 950 q 251 947 289 963 q 186 903 214 931 q 178 892 181 897 q 175 878 175 886 q 176 849 175 864 q 178 819 176 835 q 192 672 188 747 q 203 524 197 597 q 208 453 206 489 q 213 382 211 418 q 215 256 215 318 q 215 128 215 193 q 215 115 215 122 q 217 99 214 107 m 304 1253 q 319 1281 314 1268 q 329 1306 325 1293 q 358 1355 339 1333 q 396 1399 376 1376 q 413 1403 404 1407 q 424 1386 424 1400 q 421 1374 424 1378 q 396 1298 406 1336 q 371 1222 386 1260 q 361 1197 367 1210 q 346 1172 356 1183 q 297 1148 324 1146 q 254 1181 269 1150 q 226 1253 239 1217 q 203 1326 214 1289 q 199 1342 201 1333 q 194 1357 196 1350 q 191 1374 192 1365 q 190 1390 190 1383 q 219 1422 193 1417 q 250 1401 239 1425 q 268 1356 260 1379 q 283 1310 276 1333 q 294 1283 290 1297 q 304 1253 299 1268 z "},"Đ":{"ha":686,"x_min":-69,"x_max":633,"o":"m 633 693 l 633 669 q 610 485 632 575 q 540 314 588 396 q 440 169 497 236 q 311 49 383 101 q 274 24 293 35 q 233 7 256 14 q 218 4 226 6 q 203 1 210 3 q 136 24 167 -1 q 103 85 106 49 q 115 115 97 107 q 124 124 122 118 q 124 136 125 131 q 111 192 115 164 q 103 247 107 219 q 89 320 94 283 q 82 394 83 357 q 80 417 81 406 q 78 440 79 428 q 13 426 44 433 q -25 419 -18 418 q -61 460 -53 428 q -43 518 -69 493 q -27 530 -36 525 q -8 536 -18 535 q 69 557 1 542 q 60 681 64 619 q 53 806 57 743 q 52 844 51 825 q 53 881 53 863 q 60 924 53 904 q 79 964 67 943 q 159 1044 113 1015 q 265 1085 206 1074 q 378 1078 325 1096 q 478 1024 432 1061 q 583 894 547 968 q 629 732 619 819 q 631 713 629 722 q 633 693 632 704 m 490 547 q 501 685 504 617 q 471 819 499 753 q 446 868 461 844 q 411 910 431 892 q 330 956 372 950 q 249 947 288 963 q 183 903 211 931 q 176 892 179 897 q 175 878 174 886 q 176 849 175 864 q 178 819 176 835 q 189 700 185 760 q 199 581 193 640 q 215 583 206 582 q 232 585 224 583 q 288 588 251 588 q 356 587 324 589 q 392 581 388 585 q 413 551 411 568 q 399 519 414 535 q 373 510 394 515 q 325 498 351 504 q 276 488 299 492 q 250 482 254 483 q 229 476 240 479 q 207 472 218 474 q 210 426 208 449 q 211 382 211 404 q 215 256 214 318 q 213 128 215 193 q 213 115 213 122 q 217 99 214 107 q 236 111 228 104 q 250 124 244 118 q 326 200 293 158 q 386 286 358 242 q 451 413 425 346 q 490 547 476 479 z "},"E":{"ha":553,"x_min":50,"x_max":501,"o":"m 75 553 q 72 675 71 614 q 71 797 74 736 q 72 844 69 821 q 75 890 74 868 q 74 910 75 901 q 65 928 72 918 q 53 970 50 947 q 78 1007 57 993 q 129 1031 103 1026 q 229 1046 179 1038 q 329 1056 279 1054 q 376 1055 353 1056 q 421 1049 399 1054 q 479 1014 454 1040 q 486 964 501 990 q 438 951 468 939 q 403 958 421 958 q 365 956 385 957 q 292 942 328 950 q 219 926 256 933 q 200 906 200 922 q 203 742 206 825 q 204 578 201 660 q 210 559 207 561 q 228 560 213 557 q 278 564 253 564 q 329 565 304 564 q 367 565 349 565 q 407 564 386 565 q 446 535 439 564 q 419 493 450 507 q 378 480 401 483 q 336 472 356 476 q 228 456 281 463 q 214 449 217 454 q 211 432 211 443 q 222 320 215 376 q 240 210 229 264 q 253 172 247 175 q 292 189 260 168 q 363 242 329 213 q 424 307 396 272 q 453 332 438 325 q 485 331 469 340 q 500 301 500 321 q 498 290 499 296 q 494 276 497 283 q 469 224 489 249 q 304 56 403 124 q 215 38 257 25 q 149 90 172 50 q 119 159 128 124 q 103 232 110 194 q 88 344 93 288 q 79 457 82 401 q 78 504 78 481 q 75 553 78 528 z "},"É":{"ha":553,"x_min":50,"x_max":501,"o":"m 75 553 q 72 675 71 614 q 71 797 74 736 q 72 844 69 821 q 75 890 74 868 q 74 910 75 901 q 65 928 72 918 q 53 970 50 947 q 78 1007 57 993 q 129 1031 103 1026 q 229 1046 179 1038 q 329 1056 279 1054 q 376 1055 353 1056 q 421 1049 399 1054 q 479 1014 454 1040 q 486 964 501 990 q 438 951 468 939 q 403 958 421 958 q 365 956 385 957 q 292 942 328 950 q 219 926 256 933 q 200 906 200 922 q 203 742 206 825 q 204 578 201 660 q 210 559 207 561 q 228 560 213 557 q 278 564 253 564 q 329 565 304 564 q 367 565 349 565 q 407 564 386 565 q 446 535 439 564 q 419 493 450 507 q 378 480 401 483 q 336 472 356 476 q 228 456 281 463 q 214 449 217 454 q 211 432 211 443 q 222 320 215 376 q 240 210 229 264 q 253 172 247 175 q 292 189 260 168 q 363 242 329 213 q 424 307 396 272 q 453 332 438 325 q 485 331 469 340 q 500 301 500 321 q 498 290 499 296 q 494 276 497 283 q 469 224 489 249 q 304 56 403 124 q 215 38 257 25 q 149 90 172 50 q 119 159 128 124 q 103 232 110 194 q 88 344 93 288 q 79 457 82 401 q 78 504 78 481 q 75 553 78 528 m 221 1083 q 197 1095 206 1083 q 192 1121 189 1107 q 194 1126 193 1124 q 196 1131 196 1128 q 257 1223 224 1179 q 331 1306 290 1267 q 343 1314 338 1313 q 360 1315 353 1319 q 368 1300 368 1310 q 365 1290 367 1294 q 363 1281 364 1286 q 315 1194 339 1238 q 260 1110 292 1150 q 243 1092 253 1100 q 221 1083 233 1085 z "},"Ě":{"ha":553,"x_min":50,"x_max":501,"o":"m 75 553 q 72 675 71 614 q 71 797 74 736 q 72 844 69 821 q 75 890 74 868 q 74 910 75 901 q 65 928 72 918 q 53 970 50 947 q 78 1007 57 993 q 129 1031 103 1026 q 229 1046 179 1038 q 329 1056 279 1054 q 376 1055 353 1056 q 421 1049 399 1054 q 479 1014 454 1040 q 486 964 501 990 q 438 951 468 939 q 403 958 421 958 q 365 956 385 957 q 292 942 328 950 q 219 926 256 933 q 200 906 200 922 q 203 742 206 825 q 204 578 201 660 q 210 559 207 561 q 228 560 213 557 q 278 564 253 564 q 329 565 304 564 q 367 565 349 565 q 407 564 386 565 q 446 535 439 564 q 419 493 450 507 q 378 480 401 483 q 336 472 356 476 q 228 456 281 463 q 214 449 217 454 q 211 432 211 443 q 222 320 215 376 q 240 210 229 264 q 253 172 247 175 q 292 189 260 168 q 363 242 329 213 q 424 307 396 272 q 453 332 438 325 q 485 331 469 340 q 500 301 500 321 q 498 290 499 296 q 494 276 497 283 q 469 224 489 249 q 304 56 403 124 q 215 38 257 25 q 149 90 172 50 q 119 159 128 124 q 103 232 110 194 q 88 344 93 288 q 79 457 82 401 q 78 504 78 481 q 75 553 78 528 m 279 1211 q 294 1239 289 1226 q 304 1264 300 1251 q 333 1313 314 1292 q 371 1357 351 1335 q 388 1361 379 1365 q 399 1344 399 1358 q 396 1332 399 1336 q 371 1256 381 1294 q 346 1181 361 1218 q 336 1155 342 1168 q 321 1131 331 1142 q 272 1106 299 1104 q 229 1139 244 1108 q 201 1211 214 1175 q 178 1285 189 1247 q 174 1300 176 1292 q 169 1315 171 1308 q 166 1333 167 1324 q 165 1349 165 1342 q 194 1381 168 1375 q 225 1360 214 1383 q 243 1315 235 1338 q 258 1268 251 1292 q 269 1241 265 1256 q 279 1211 274 1226 z "},"Ê":{"ha":553,"x_min":50,"x_max":501,"o":"m 75 553 q 72 675 71 614 q 71 797 74 736 q 72 844 69 821 q 75 890 74 868 q 74 910 75 901 q 65 928 72 918 q 53 970 50 947 q 78 1007 57 993 q 129 1031 103 1026 q 229 1046 179 1038 q 329 1056 279 1054 q 376 1055 353 1056 q 421 1049 399 1054 q 479 1014 454 1040 q 486 964 501 990 q 438 951 468 939 q 403 958 421 958 q 365 956 385 957 q 292 942 328 950 q 219 926 256 933 q 200 906 200 922 q 203 742 206 825 q 204 578 201 660 q 210 559 207 561 q 228 560 213 557 q 278 564 253 564 q 329 565 304 564 q 367 565 349 565 q 407 564 386 565 q 446 535 439 564 q 419 493 450 507 q 378 480 401 483 q 336 472 356 476 q 228 456 281 463 q 214 449 217 454 q 211 432 211 443 q 222 320 215 376 q 240 210 229 264 q 253 172 247 175 q 292 189 260 168 q 363 242 329 213 q 424 307 396 272 q 453 332 438 325 q 485 331 469 340 q 500 301 500 321 q 498 290 499 296 q 494 276 497 283 q 469 224 489 249 q 304 56 403 124 q 215 38 257 25 q 149 90 172 50 q 119 159 128 124 q 103 232 110 194 q 88 344 93 288 q 79 457 82 401 q 78 504 78 481 q 75 553 78 528 m 272 1267 q 253 1233 260 1251 q 238 1197 247 1215 q 226 1176 232 1188 q 214 1154 221 1165 q 171 1131 200 1124 q 146 1172 146 1138 q 154 1201 149 1189 q 181 1276 167 1239 q 213 1350 194 1314 q 233 1378 219 1367 q 267 1392 246 1390 q 301 1381 286 1392 q 326 1354 317 1371 q 345 1317 338 1336 q 358 1279 353 1299 q 372 1207 365 1243 q 388 1135 379 1171 q 388 1130 388 1132 q 389 1125 389 1128 q 381 1104 393 1111 q 358 1104 369 1099 q 346 1118 350 1111 q 339 1133 342 1125 q 313 1191 326 1163 q 285 1247 300 1219 q 280 1258 282 1253 q 272 1267 278 1264 z "},"Ë":{"ha":553,"x_min":50,"x_max":501,"o":"m 75 553 q 72 675 71 614 q 71 797 74 736 q 72 844 69 821 q 75 890 74 868 q 74 910 75 901 q 65 928 72 918 q 53 970 50 947 q 78 1007 57 993 q 129 1031 103 1026 q 229 1046 179 1038 q 329 1056 279 1054 q 376 1055 353 1056 q 421 1049 399 1054 q 479 1014 454 1040 q 486 964 501 990 q 438 951 468 939 q 403 958 421 958 q 365 956 385 957 q 292 942 328 950 q 219 926 256 933 q 200 906 200 922 q 203 742 206 825 q 204 578 201 660 q 210 559 207 561 q 228 560 213 557 q 278 564 253 564 q 329 565 304 564 q 367 565 349 565 q 407 564 386 565 q 446 535 439 564 q 419 493 450 507 q 378 480 401 483 q 336 472 356 476 q 228 456 281 463 q 214 449 217 454 q 211 432 211 443 q 222 320 215 376 q 240 210 229 264 q 253 172 247 175 q 292 189 260 168 q 363 242 329 213 q 424 307 396 272 q 453 332 438 325 q 485 331 469 340 q 500 301 500 321 q 498 290 499 296 q 494 276 497 283 q 469 224 489 249 q 304 56 403 124 q 215 38 257 25 q 149 90 172 50 q 119 159 128 124 q 103 232 110 194 q 88 344 93 288 q 79 457 82 401 q 78 504 78 481 q 75 553 78 528 m 392 1207 q 378 1178 392 1192 q 347 1165 365 1165 q 318 1181 331 1168 q 306 1211 306 1193 q 320 1241 308 1229 q 350 1253 332 1253 q 380 1240 367 1253 q 392 1207 393 1226 m 239 1172 q 213 1182 224 1172 q 200 1207 201 1192 q 235 1247 200 1243 q 262 1238 250 1249 q 275 1211 274 1226 q 265 1185 275 1196 q 239 1172 254 1174 z "},"Ė":{"ha":553,"x_min":50,"x_max":501,"o":"m 75 553 q 72 675 71 614 q 71 797 74 736 q 72 844 69 821 q 75 890 74 868 q 74 910 75 901 q 65 928 72 918 q 53 970 50 947 q 78 1007 57 993 q 129 1031 103 1026 q 229 1046 179 1038 q 329 1056 279 1054 q 376 1055 353 1056 q 421 1049 399 1054 q 479 1014 454 1040 q 486 964 501 990 q 438 951 468 939 q 403 958 421 958 q 365 956 385 957 q 292 942 328 950 q 219 926 256 933 q 200 906 200 922 q 203 742 206 825 q 204 578 201 660 q 210 559 207 561 q 228 560 213 557 q 278 564 253 564 q 329 565 304 564 q 367 565 349 565 q 407 564 386 565 q 446 535 439 564 q 419 493 450 507 q 378 480 401 483 q 336 472 356 476 q 228 456 281 463 q 214 449 217 454 q 211 432 211 443 q 222 320 215 376 q 240 210 229 264 q 253 172 247 175 q 292 189 260 168 q 363 242 329 213 q 424 307 396 272 q 453 332 438 325 q 485 331 469 340 q 500 301 500 321 q 498 290 499 296 q 494 276 497 283 q 469 224 489 249 q 304 56 403 124 q 215 38 257 25 q 149 90 172 50 q 119 159 128 124 q 103 232 110 194 q 88 344 93 288 q 79 457 82 401 q 78 504 78 481 q 75 553 78 528 m 282 1144 q 253 1155 264 1143 q 240 1185 242 1167 q 254 1219 240 1204 q 286 1235 268 1235 q 325 1186 324 1235 q 311 1158 325 1171 q 282 1144 297 1144 z "},"È":{"ha":553,"x_min":50,"x_max":501,"o":"m 75 553 q 72 675 71 614 q 71 797 74 736 q 72 844 69 821 q 75 890 74 868 q 74 910 75 901 q 65 928 72 918 q 53 970 50 947 q 78 1007 57 993 q 129 1031 103 1026 q 229 1046 179 1038 q 329 1056 279 1054 q 376 1055 353 1056 q 421 1049 399 1054 q 479 1014 454 1040 q 486 964 501 990 q 438 951 468 939 q 403 958 421 958 q 365 956 385 957 q 292 942 328 950 q 219 926 256 933 q 200 906 200 922 q 203 742 206 825 q 204 578 201 660 q 210 559 207 561 q 228 560 213 557 q 278 564 253 564 q 329 565 304 564 q 367 565 349 565 q 407 564 386 565 q 446 535 439 564 q 419 493 450 507 q 378 480 401 483 q 336 472 356 476 q 228 456 281 463 q 214 449 217 454 q 211 432 211 443 q 222 320 215 376 q 240 210 229 264 q 253 172 247 175 q 292 189 260 168 q 363 242 329 213 q 424 307 396 272 q 453 332 438 325 q 485 331 469 340 q 500 301 500 321 q 498 290 499 296 q 494 276 497 283 q 469 224 489 249 q 304 56 403 124 q 215 38 257 25 q 149 90 172 50 q 119 159 128 124 q 103 232 110 194 q 88 344 93 288 q 79 457 82 401 q 78 504 78 481 q 75 553 78 528 m 215 1281 q 229 1313 215 1303 q 261 1313 243 1322 q 270 1305 265 1310 q 279 1296 275 1300 q 299 1265 292 1282 q 315 1233 307 1249 q 338 1178 326 1206 q 363 1122 350 1150 q 367 1116 365 1119 q 369 1110 368 1113 q 363 1089 371 1097 q 340 1085 356 1082 q 313 1108 324 1090 q 288 1145 300 1128 q 267 1181 276 1163 q 246 1212 257 1196 q 225 1246 235 1228 q 219 1265 222 1256 q 215 1281 217 1274 z "},"Ē":{"ha":553,"x_min":50,"x_max":501,"o":"m 75 553 q 72 675 71 614 q 71 797 74 736 q 72 844 69 821 q 75 890 74 868 q 74 910 75 901 q 65 928 72 918 q 53 970 50 947 q 78 1007 57 993 q 129 1031 103 1026 q 229 1046 179 1038 q 329 1056 279 1054 q 376 1055 353 1056 q 421 1049 399 1054 q 479 1014 454 1040 q 486 964 501 990 q 438 951 468 939 q 403 958 421 958 q 365 956 385 957 q 292 942 328 950 q 219 926 256 933 q 200 906 200 922 q 203 742 206 825 q 204 578 201 660 q 210 559 207 561 q 228 560 213 557 q 278 564 253 564 q 329 565 304 564 q 367 565 349 565 q 407 564 386 565 q 446 535 439 564 q 419 493 450 507 q 378 480 401 483 q 336 472 356 476 q 228 456 281 463 q 214 449 217 454 q 211 432 211 443 q 222 320 215 376 q 240 210 229 264 q 253 172 247 175 q 292 189 260 168 q 363 242 329 213 q 424 307 396 272 q 453 332 438 325 q 485 331 469 340 q 500 301 500 321 q 498 290 499 296 q 494 276 497 283 q 469 224 489 249 q 304 56 403 124 q 215 38 257 25 q 149 90 172 50 q 119 159 128 124 q 103 232 110 194 q 88 344 93 288 q 79 457 82 401 q 78 504 78 481 q 75 553 78 528 m 238 1146 q 201 1147 219 1147 q 164 1151 182 1147 q 133 1185 133 1157 q 163 1218 129 1211 q 172 1221 167 1221 q 179 1221 176 1221 q 247 1225 214 1219 q 314 1235 279 1231 q 333 1238 324 1238 q 354 1238 343 1238 q 392 1201 388 1233 q 363 1158 394 1172 q 339 1154 350 1154 q 288 1150 313 1153 q 238 1146 263 1147 z "},"Ę":{"ha":553,"x_min":50,"x_max":501,"o":"m 75 553 q 72 675 71 614 q 71 797 74 736 q 72 844 69 821 q 75 890 74 868 q 74 910 75 901 q 65 928 72 918 q 53 970 50 947 q 78 1007 57 993 q 129 1031 103 1026 q 229 1046 179 1038 q 329 1056 279 1054 q 376 1055 353 1056 q 421 1049 399 1054 q 479 1014 454 1040 q 486 964 501 990 q 438 951 468 939 q 403 958 421 958 q 365 956 385 957 q 292 942 328 950 q 219 926 256 933 q 200 906 200 922 q 203 742 206 825 q 204 578 201 660 q 210 559 207 561 q 228 560 213 557 q 278 564 253 564 q 329 565 304 564 q 367 565 349 565 q 407 564 386 565 q 446 535 439 564 q 419 493 450 507 q 378 480 401 483 q 336 472 356 476 q 228 456 281 463 q 214 449 217 454 q 211 432 211 443 q 222 320 215 376 q 240 210 229 264 q 253 172 247 175 q 292 189 260 168 q 363 242 329 213 q 424 307 396 272 q 453 332 438 325 q 485 331 469 340 q 500 301 500 321 q 498 290 499 296 q 494 276 497 283 q 469 224 489 249 q 304 56 403 124 q 215 38 257 25 q 149 90 172 50 q 119 159 128 124 q 103 232 110 194 q 88 344 93 288 q 79 457 82 401 q 78 504 78 481 q 75 553 78 528 m 121 -53 q 133 0 119 -31 q 169 57 147 31 q 217 92 192 83 q 236 97 226 96 q 256 96 246 99 q 276 78 274 90 q 267 54 279 67 q 237 21 249 39 q 218 -21 225 3 q 217 -27 218 -24 q 217 -33 217 -31 q 239 -54 211 -64 q 284 -37 263 -47 q 321 -7 306 -26 q 331 6 325 1 q 347 6 338 11 q 360 -10 356 3 q 360 -29 365 -22 q 350 -47 356 -39 q 338 -62 344 -56 q 246 -129 296 -104 q 181 -137 210 -147 q 135 -103 151 -128 q 121 -53 119 -78 z "},"Ẽ":{"ha":553,"x_min":50,"x_max":501,"o":"m 75 553 q 72 675 71 614 q 71 797 74 736 q 72 844 69 821 q 75 890 74 868 q 74 910 75 901 q 65 928 72 918 q 53 970 50 947 q 78 1007 57 993 q 129 1031 103 1026 q 229 1046 179 1038 q 329 1056 279 1054 q 376 1055 353 1056 q 421 1049 399 1054 q 479 1014 454 1040 q 486 964 501 990 q 438 951 468 939 q 403 958 421 958 q 365 956 385 957 q 292 942 328 950 q 219 926 256 933 q 200 906 200 922 q 203 742 206 825 q 204 578 201 660 q 210 559 207 561 q 228 560 213 557 q 278 564 253 564 q 329 565 304 564 q 367 565 349 565 q 407 564 386 565 q 446 535 439 564 q 419 493 450 507 q 378 480 401 483 q 336 472 356 476 q 228 456 281 463 q 214 449 217 454 q 211 432 211 443 q 222 320 215 376 q 240 210 229 264 q 253 172 247 175 q 292 189 260 168 q 363 242 329 213 q 424 307 396 272 q 453 332 438 325 q 485 331 469 340 q 500 301 500 321 q 498 290 499 296 q 494 276 497 283 q 469 224 489 249 q 304 56 403 124 q 215 38 257 25 q 149 90 172 50 q 119 159 128 124 q 103 232 110 194 q 88 344 93 288 q 79 457 82 401 q 78 504 78 481 q 75 553 78 528 m 344 1122 q 244 1169 282 1125 q 233 1184 239 1176 q 221 1199 226 1192 q 205 1211 211 1210 q 188 1203 199 1213 q 163 1176 174 1190 q 146 1144 153 1163 q 145 1143 146 1143 q 144 1140 144 1143 q 117 1118 135 1114 q 102 1129 107 1119 q 99 1151 97 1139 q 100 1164 99 1160 q 134 1222 113 1196 q 186 1265 156 1249 q 232 1274 208 1281 q 274 1243 256 1267 q 288 1223 281 1233 q 304 1206 294 1213 q 332 1189 317 1193 q 365 1186 347 1185 q 396 1208 385 1189 q 400 1244 407 1226 q 399 1247 400 1247 q 399 1247 399 1247 q 392 1261 393 1254 q 399 1274 390 1268 q 414 1278 406 1281 q 428 1269 422 1275 q 454 1229 442 1257 q 457 1178 467 1201 q 442 1156 451 1165 q 421 1139 433 1146 q 344 1122 383 1122 z "},"F":{"ha":586,"x_min":44,"x_max":621,"o":"m 221 636 q 226 617 224 619 q 246 618 229 615 q 465 626 356 639 q 476 625 472 626 q 486 622 481 624 q 512 587 510 610 q 494 547 514 564 q 462 528 481 535 q 424 518 443 521 q 338 506 381 513 q 250 490 294 499 q 233 486 236 489 q 232 468 231 483 q 244 301 239 383 q 251 217 247 258 q 258 132 254 175 q 263 92 261 113 q 275 53 265 72 q 276 26 281 40 q 261 3 272 13 q 233 -7 249 -7 q 204 1 217 -7 q 188 23 194 11 q 174 47 181 35 q 152 124 161 85 q 136 203 143 163 q 103 456 111 328 q 94 610 97 533 q 88 764 90 688 q 84 840 86 803 q 83 915 82 878 q 83 926 83 921 q 78 936 82 932 q 54 1006 44 971 q 108 1057 64 1042 q 186 1076 147 1069 q 299 1089 243 1083 q 413 1094 356 1094 q 475 1094 444 1097 q 536 1082 506 1092 q 607 1036 578 1074 q 617 994 621 1017 q 597 967 613 978 q 565 961 582 956 q 481 972 522 976 q 399 965 439 968 q 318 960 358 964 q 238 953 278 956 q 218 949 221 951 q 215 928 215 946 q 216 870 215 910 q 217 783 217 831 q 219 696 218 736 q 221 636 221 656 z "},"G":{"ha":728,"x_min":51,"x_max":743,"o":"m 408 553 q 376 545 392 549 q 346 536 361 542 q 299 551 315 529 q 296 607 279 578 q 310 623 301 617 q 328 635 318 629 q 356 644 342 642 q 383 649 369 647 q 466 659 424 654 q 549 664 508 664 q 612 663 581 664 q 674 656 643 663 q 699 649 686 654 q 724 636 711 644 q 736 601 743 621 q 703 582 729 579 q 643 585 672 585 q 582 582 614 585 q 574 581 579 581 q 567 581 569 581 q 544 573 547 575 q 542 551 542 571 q 535 452 539 501 q 528 353 532 403 q 515 281 522 318 q 500 207 507 243 q 492 145 497 176 q 482 82 486 114 l 482 72 q 446 36 471 40 q 404 68 415 36 q 400 107 400 88 q 399 144 400 126 q 398 160 397 153 q 396 174 399 167 q 371 131 383 151 q 344 90 358 110 q 314 57 331 72 q 278 31 297 42 q 208 17 247 13 q 140 51 168 21 q 113 90 125 71 q 92 132 100 110 q 72 201 79 165 q 61 272 64 236 q 53 422 51 347 q 65 572 56 497 q 93 708 75 642 q 138 840 111 775 q 233 997 174 922 q 275 1034 253 1017 q 324 1064 297 1051 q 406 1073 360 1079 q 486 1022 453 1067 q 517 974 503 999 q 536 919 531 950 q 537 904 538 913 q 533 889 536 896 q 521 874 529 876 q 503 882 513 872 q 493 894 497 888 q 483 906 489 900 q 460 931 474 919 q 432 951 447 943 q 399 960 414 963 q 369 947 385 958 q 328 906 346 929 q 294 857 310 882 q 247 760 267 810 q 215 657 228 710 q 193 535 200 597 q 183 411 186 474 q 187 310 183 361 q 204 210 190 260 q 225 151 211 179 q 236 138 232 139 q 250 147 240 138 q 285 185 271 164 q 311 231 299 207 q 341 302 328 265 q 365 374 354 339 q 403 511 386 443 q 408 553 408 528 z "},"Ğ":{"ha":728,"x_min":51,"x_max":743,"o":"m 408 553 q 376 545 392 549 q 346 536 361 542 q 299 551 315 529 q 296 607 279 578 q 310 623 301 617 q 328 635 318 629 q 356 644 342 642 q 383 649 369 647 q 466 659 424 654 q 549 664 508 664 q 612 663 581 664 q 674 656 643 663 q 699 649 686 654 q 724 636 711 644 q 736 601 743 621 q 703 582 729 579 q 643 585 672 585 q 582 582 614 585 q 574 581 579 581 q 567 581 569 581 q 544 573 547 575 q 542 551 542 571 q 535 452 539 501 q 528 353 532 403 q 515 281 522 318 q 500 207 507 243 q 492 145 497 176 q 482 82 486 114 l 482 72 q 446 36 471 40 q 404 68 415 36 q 400 107 400 88 q 399 144 400 126 q 398 160 397 153 q 396 174 399 167 q 371 131 383 151 q 344 90 358 110 q 314 57 331 72 q 278 31 297 42 q 208 17 247 13 q 140 51 168 21 q 113 90 125 71 q 92 132 100 110 q 72 201 79 165 q 61 272 64 236 q 53 422 51 347 q 65 572 56 497 q 93 708 75 642 q 138 840 111 775 q 233 997 174 922 q 275 1034 253 1017 q 324 1064 297 1051 q 406 1073 360 1079 q 486 1022 453 1067 q 517 974 503 999 q 536 919 531 950 q 537 904 538 913 q 533 889 536 896 q 521 874 529 876 q 503 882 513 872 q 493 894 497 888 q 483 906 489 900 q 460 931 474 919 q 432 951 447 943 q 399 960 414 963 q 369 947 385 958 q 328 906 346 929 q 294 857 310 882 q 247 760 267 810 q 215 657 228 710 q 193 535 200 597 q 183 411 186 474 q 187 310 183 361 q 204 210 190 260 q 225 151 211 179 q 236 138 232 139 q 250 147 240 138 q 285 185 271 164 q 311 231 299 207 q 341 302 328 265 q 365 374 354 339 q 403 511 386 443 q 408 553 408 528 m 456 1300 q 460 1305 458 1303 q 468 1304 463 1307 q 474 1292 474 1303 q 472 1269 474 1290 q 465 1220 471 1247 q 442 1173 458 1193 q 393 1153 425 1153 q 351 1174 367 1153 q 326 1222 335 1194 q 313 1271 317 1249 q 310 1296 310 1293 q 319 1313 311 1306 q 332 1321 326 1319 q 356 1304 346 1325 q 359 1280 357 1299 q 369 1244 361 1261 q 394 1228 378 1228 q 431 1243 421 1228 q 446 1276 442 1258 q 456 1300 450 1294 z "},"Ģ":{"ha":728,"x_min":51,"x_max":743,"o":"m 408 553 q 376 545 392 549 q 346 536 361 542 q 299 551 315 529 q 296 607 279 578 q 310 623 301 617 q 328 635 318 629 q 356 644 342 642 q 383 649 369 647 q 466 659 424 654 q 549 664 508 664 q 612 663 581 664 q 674 656 643 663 q 699 649 686 654 q 724 636 711 644 q 736 601 743 621 q 703 582 729 579 q 643 585 672 585 q 582 582 614 585 q 574 581 579 581 q 567 581 569 581 q 544 573 547 575 q 542 551 542 571 q 535 452 539 501 q 528 353 532 403 q 515 281 522 318 q 500 207 507 243 q 492 145 497 176 q 482 82 486 114 l 482 72 q 446 36 471 40 q 404 68 415 36 q 400 107 400 88 q 399 144 400 126 q 398 160 397 153 q 396 174 399 167 q 371 131 383 151 q 344 90 358 110 q 314 57 331 72 q 278 31 297 42 q 208 17 247 13 q 140 51 168 21 q 113 90 125 71 q 92 132 100 110 q 72 201 79 165 q 61 272 64 236 q 53 422 51 347 q 65 572 56 497 q 93 708 75 642 q 138 840 111 775 q 233 997 174 922 q 275 1034 253 1017 q 324 1064 297 1051 q 406 1073 360 1079 q 486 1022 453 1067 q 517 974 503 999 q 536 919 531 950 q 537 904 538 913 q 533 889 536 896 q 521 874 529 876 q 503 882 513 872 q 493 894 497 888 q 483 906 489 900 q 460 931 474 919 q 432 951 447 943 q 399 960 414 963 q 369 947 385 958 q 328 906 346 929 q 294 857 310 882 q 247 760 267 810 q 215 657 228 710 q 193 535 200 597 q 183 411 186 474 q 187 310 183 361 q 204 210 190 260 q 225 151 211 179 q 236 138 232 139 q 250 147 240 138 q 285 185 271 164 q 311 231 299 207 q 341 302 328 265 q 365 374 354 339 q 403 511 386 443 q 408 553 408 528 m 119 -256 q 96 -243 104 -254 q 90 -218 88 -232 q 93 -213 92 -215 q 94 -208 94 -211 q 156 -116 122 -160 q 229 -33 189 -72 q 242 -25 236 -26 q 259 -24 251 -19 q 267 -39 267 -29 q 265 -49 265 -44 q 261 -58 264 -53 q 214 -145 238 -101 q 158 -229 190 -189 q 142 -247 151 -239 q 119 -256 132 -254 z "},"Ġ":{"ha":728,"x_min":51,"x_max":743,"o":"m 408 553 q 376 545 392 549 q 346 536 361 542 q 299 551 315 529 q 296 607 279 578 q 310 623 301 617 q 328 635 318 629 q 356 644 342 642 q 383 649 369 647 q 466 659 424 654 q 549 664 508 664 q 612 663 581 664 q 674 656 643 663 q 699 649 686 654 q 724 636 711 644 q 736 601 743 621 q 703 582 729 579 q 643 585 672 585 q 582 582 614 585 q 574 581 579 581 q 567 581 569 581 q 544 573 547 575 q 542 551 542 571 q 535 452 539 501 q 528 353 532 403 q 515 281 522 318 q 500 207 507 243 q 492 145 497 176 q 482 82 486 114 l 482 72 q 446 36 471 40 q 404 68 415 36 q 400 107 400 88 q 399 144 400 126 q 398 160 397 153 q 396 174 399 167 q 371 131 383 151 q 344 90 358 110 q 314 57 331 72 q 278 31 297 42 q 208 17 247 13 q 140 51 168 21 q 113 90 125 71 q 92 132 100 110 q 72 201 79 165 q 61 272 64 236 q 53 422 51 347 q 65 572 56 497 q 93 708 75 642 q 138 840 111 775 q 233 997 174 922 q 275 1034 253 1017 q 324 1064 297 1051 q 406 1073 360 1079 q 486 1022 453 1067 q 517 974 503 999 q 536 919 531 950 q 537 904 538 913 q 533 889 536 896 q 521 874 529 876 q 503 882 513 872 q 493 894 497 888 q 483 906 489 900 q 460 931 474 919 q 432 951 447 943 q 399 960 414 963 q 369 947 385 958 q 328 906 346 929 q 294 857 310 882 q 247 760 267 810 q 215 657 228 710 q 193 535 200 597 q 183 411 186 474 q 187 310 183 361 q 204 210 190 260 q 225 151 211 179 q 236 138 232 139 q 250 147 240 138 q 285 185 271 164 q 311 231 299 207 q 341 302 328 265 q 365 374 354 339 q 403 511 386 443 q 408 553 408 528 m 397 1171 q 368 1181 379 1169 q 356 1211 357 1193 q 369 1246 356 1231 q 401 1261 383 1261 q 440 1213 439 1261 q 426 1184 440 1197 q 397 1171 413 1171 z "},"Ḡ":{"ha":728,"x_min":51,"x_max":743,"o":"m 408 553 q 376 545 392 549 q 346 536 361 542 q 299 551 315 529 q 296 607 279 578 q 310 623 301 617 q 328 635 318 629 q 356 644 342 642 q 383 649 369 647 q 466 659 424 654 q 549 664 508 664 q 612 663 581 664 q 674 656 643 663 q 699 649 686 654 q 724 636 711 644 q 736 601 743 621 q 703 582 729 579 q 643 585 672 585 q 582 582 614 585 q 574 581 579 581 q 567 581 569 581 q 544 573 547 575 q 542 551 542 571 q 535 452 539 501 q 528 353 532 403 q 515 281 522 318 q 500 207 507 243 q 492 145 497 176 q 482 82 486 114 l 482 72 q 446 36 471 40 q 404 68 415 36 q 400 107 400 88 q 399 144 400 126 q 398 160 397 153 q 396 174 399 167 q 371 131 383 151 q 344 90 358 110 q 314 57 331 72 q 278 31 297 42 q 208 17 247 13 q 140 51 168 21 q 113 90 125 71 q 92 132 100 110 q 72 201 79 165 q 61 272 64 236 q 53 422 51 347 q 65 572 56 497 q 93 708 75 642 q 138 840 111 775 q 233 997 174 922 q 275 1034 253 1017 q 324 1064 297 1051 q 406 1073 360 1079 q 486 1022 453 1067 q 517 974 503 999 q 536 919 531 950 q 537 904 538 913 q 533 889 536 896 q 521 874 529 876 q 503 882 513 872 q 493 894 497 888 q 483 906 489 900 q 460 931 474 919 q 432 951 447 943 q 399 960 414 963 q 369 947 385 958 q 328 906 346 929 q 294 857 310 882 q 247 760 267 810 q 215 657 228 710 q 193 535 200 597 q 183 411 186 474 q 187 310 183 361 q 204 210 190 260 q 225 151 211 179 q 236 138 232 139 q 250 147 240 138 q 285 185 271 164 q 311 231 299 207 q 341 302 328 265 q 365 374 354 339 q 403 511 386 443 q 408 553 408 528 m 353 1172 q 316 1174 335 1174 q 279 1178 297 1174 q 249 1211 249 1183 q 278 1244 244 1238 q 287 1247 282 1247 q 294 1247 292 1247 q 362 1251 329 1246 q 429 1261 394 1257 q 449 1264 439 1264 q 469 1264 458 1264 q 507 1228 503 1260 q 478 1185 510 1199 q 454 1181 465 1181 q 403 1176 428 1179 q 353 1172 378 1174 z "},"H":{"ha":579,"x_min":44,"x_max":532,"o":"m 396 531 q 321 507 357 519 q 250 482 285 494 q 224 472 238 478 q 199 461 211 467 q 182 439 182 460 q 185 330 183 383 q 192 222 188 276 q 197 154 194 188 q 204 89 200 121 q 200 65 207 75 q 182 51 193 54 q 161 54 172 49 q 142 69 150 60 q 129 107 133 89 q 107 213 115 160 q 92 318 99 265 q 84 368 88 343 q 78 418 81 393 q 74 440 76 429 q 63 460 71 450 q 58 510 44 481 q 63 536 65 525 q 53 708 53 622 q 54 878 53 793 q 58 931 57 906 q 63 982 60 956 q 90 1035 69 1014 q 136 1049 110 1054 q 174 1015 163 1043 q 181 990 181 1003 q 182 961 182 976 q 183 854 182 908 q 182 747 183 800 q 184 673 182 710 q 183 599 186 636 q 187 584 183 586 q 203 585 190 582 q 288 608 244 599 q 375 624 332 617 q 393 630 390 626 q 396 647 396 633 q 394 728 394 688 q 396 810 393 769 q 403 882 399 846 q 417 953 407 918 q 436 997 422 978 q 456 1014 446 1008 q 479 1018 465 1019 q 502 1008 494 1017 q 515 986 510 999 q 525 939 522 964 q 528 890 528 914 q 524 769 526 831 q 517 647 522 708 q 517 630 517 639 q 521 614 517 621 q 524 589 532 600 q 511 549 511 571 q 508 507 511 528 q 502 378 506 443 q 496 247 499 313 l 496 132 q 498 107 496 119 q 503 82 500 94 q 486 43 508 57 q 446 51 468 33 q 428 74 433 61 q 419 101 424 88 q 409 156 411 128 q 404 211 407 183 q 401 346 400 279 q 396 481 401 413 q 395 504 394 492 q 396 531 396 517 z "},"Ħ":{"ha":599,"x_min":-7,"x_max":568,"o":"m 528 818 q 524 732 526 775 q 519 647 522 689 q 519 630 519 639 q 524 614 518 621 q 525 589 533 600 q 513 549 513 571 q 511 507 513 528 q 503 378 506 443 q 499 247 501 313 q 498 190 497 219 q 499 132 499 160 q 503 82 499 107 q 488 43 511 56 q 446 51 469 33 q 430 74 436 61 q 421 101 424 88 q 411 156 414 128 q 407 211 408 183 q 402 346 401 279 q 399 481 403 413 q 398 504 397 492 q 399 531 399 517 q 324 507 360 519 q 253 482 288 494 q 226 472 240 478 q 200 461 213 467 q 183 439 183 460 q 186 330 183 383 q 194 222 189 276 q 199 154 197 188 q 207 89 201 121 q 182 51 210 58 q 163 54 174 49 q 144 69 151 60 q 135 88 139 79 q 129 107 132 97 q 108 213 117 160 q 92 318 100 265 q 85 368 89 343 q 79 418 82 393 q 75 440 78 429 q 65 460 72 450 q 61 510 43 483 q 65 536 67 522 q 57 632 60 585 q 54 726 54 679 q 44 726 49 726 q 38 726 40 725 q 1 766 10 733 q 19 824 -7 799 q 54 843 35 836 l 57 843 l 57 878 q 59 931 58 906 q 65 982 60 956 q 92 1035 72 1013 q 139 1049 113 1054 q 175 1015 165 1043 q 183 990 182 1003 q 183 961 183 976 l 183 865 q 299 878 240 874 q 404 885 357 883 q 410 921 407 904 q 419 953 414 938 q 438 997 426 981 q 482 1018 456 1019 q 517 986 507 1014 q 527 939 525 964 q 528 890 529 914 l 528 886 q 546 885 544 886 q 567 856 565 872 q 553 824 568 839 q 545 821 551 822 q 528 818 539 819 m 378 624 q 396 630 393 626 q 399 647 399 633 q 397 722 397 685 q 399 797 396 760 q 288 778 346 789 q 183 757 231 768 l 183 747 q 185 673 183 710 q 186 599 188 636 q 189 584 186 586 q 203 585 192 582 q 291 608 247 599 q 378 624 335 617 z "},"I":{"ha":250,"x_min":50,"x_max":199,"o":"m 178 876 q 172 688 175 778 q 171 510 169 597 q 174 385 174 447 q 178 261 175 322 q 180 183 179 222 q 186 107 181 144 q 194 61 189 83 q 197 38 199 46 q 182 22 194 29 q 156 17 169 14 q 133 32 142 19 q 117 65 124 47 q 107 101 110 83 q 91 217 97 158 q 79 332 85 275 q 70 481 75 407 q 61 631 65 556 q 53 785 56 708 q 61 940 50 863 q 69 981 64 961 q 79 1022 75 1001 q 94 1053 83 1038 q 110 1068 101 1063 q 132 1074 118 1074 q 152 1064 144 1072 q 163 1044 160 1056 q 173 1001 171 1022 q 175 956 175 979 q 179 912 178 933 q 178 876 181 890 z "},"Ĳ":{"ha":788,"x_min":50,"x_max":739,"o":"m 178 876 q 172 688 175 778 q 171 510 169 597 q 174 385 174 447 q 178 261 175 322 q 180 183 179 222 q 186 107 181 144 q 194 61 189 83 q 197 38 199 46 q 182 22 194 29 q 156 17 169 14 q 133 32 142 19 q 117 65 124 47 q 107 101 110 83 q 91 217 97 158 q 79 332 85 275 q 70 481 75 407 q 61 631 65 556 q 53 785 56 708 q 61 940 50 863 q 69 981 64 961 q 79 1022 75 1001 q 94 1053 83 1038 q 110 1068 101 1063 q 132 1074 118 1074 q 152 1064 144 1072 q 163 1044 160 1056 q 173 1001 171 1022 q 175 956 175 979 q 179 912 178 933 q 178 876 181 890 m 604 647 q 601 778 607 713 q 588 910 596 844 q 583 960 585 935 q 582 1007 582 985 q 583 1023 582 1015 q 586 1036 583 1031 q 622 1069 597 1064 q 665 1053 647 1074 q 694 1006 683 1033 q 719 898 711 953 q 732 789 726 843 q 737 622 739 706 q 728 453 735 538 q 713 353 722 403 q 690 256 704 304 q 661 179 678 217 q 619 110 644 142 q 474 22 564 35 q 381 39 424 14 q 321 115 339 64 q 313 139 317 126 q 307 164 310 151 q 303 185 303 172 q 319 206 306 200 q 342 197 333 207 q 354 175 349 186 q 365 153 360 164 q 368 146 367 150 q 371 136 369 142 q 423 94 390 101 q 488 111 456 86 q 525 160 513 129 q 553 234 543 196 q 571 311 564 272 q 596 465 590 392 q 604 535 601 500 q 604 606 607 569 l 604 647 z "},"Í":{"ha":250,"x_min":42,"x_max":221,"o":"m 178 876 q 172 688 175 778 q 171 510 169 597 q 174 385 174 447 q 178 261 175 322 q 180 183 179 222 q 186 107 181 144 q 194 61 189 83 q 197 38 199 46 q 182 22 194 29 q 156 17 169 14 q 133 32 142 19 q 117 65 124 47 q 107 101 110 83 q 91 217 97 158 q 79 332 85 275 q 70 481 75 407 q 61 631 65 556 q 53 785 56 708 q 61 940 50 863 q 69 981 64 961 q 79 1022 75 1001 q 94 1053 83 1038 q 110 1068 101 1063 q 132 1074 118 1074 q 152 1064 144 1072 q 163 1044 160 1056 q 173 1001 171 1022 q 175 956 175 979 q 179 912 178 933 q 178 876 181 890 m 74 1118 q 50 1130 58 1118 q 44 1156 42 1142 q 47 1160 46 1158 q 49 1165 49 1163 q 110 1258 76 1214 q 183 1340 143 1301 q 196 1349 190 1347 q 213 1349 206 1354 q 221 1335 221 1344 q 218 1325 219 1329 q 215 1315 217 1321 q 168 1228 192 1272 q 113 1144 144 1185 q 96 1127 106 1135 q 74 1118 86 1119 z "},"Î":{"ha":250,"x_min":-1,"x_max":246,"o":"m 178 876 q 172 688 175 778 q 171 510 169 597 q 174 385 174 447 q 178 261 175 322 q 180 183 179 222 q 186 107 181 144 q 194 61 189 83 q 197 38 199 46 q 182 22 194 29 q 156 17 169 14 q 133 32 142 19 q 117 65 124 47 q 107 101 110 83 q 91 217 97 158 q 79 332 85 275 q 70 481 75 407 q 61 631 65 556 q 53 785 56 708 q 61 940 50 863 q 69 981 64 961 q 79 1022 75 1001 q 94 1053 83 1038 q 110 1068 101 1063 q 132 1074 118 1074 q 152 1064 144 1072 q 163 1044 160 1056 q 173 1001 171 1022 q 175 956 175 979 q 179 912 178 933 q 178 876 181 890 m 125 1301 q 106 1268 113 1286 q 90 1232 100 1250 q 79 1211 85 1222 q 67 1189 74 1200 q 24 1165 53 1158 q -1 1207 -1 1172 q 7 1236 1 1224 q 33 1311 19 1274 q 65 1385 47 1349 q 85 1413 72 1401 q 119 1426 99 1425 q 154 1416 139 1426 q 179 1389 169 1406 q 198 1352 190 1371 q 211 1314 206 1333 q 225 1242 218 1278 q 240 1169 232 1206 q 241 1165 240 1167 q 242 1160 242 1163 q 233 1139 246 1146 q 211 1139 222 1133 q 199 1153 203 1146 q 192 1168 194 1160 q 166 1226 179 1197 q 138 1282 153 1254 q 133 1293 135 1288 q 125 1301 131 1299 z "},"Ï":{"ha":250,"x_min":50,"x_max":246,"o":"m 178 876 q 172 688 175 778 q 171 510 169 597 q 174 385 174 447 q 178 261 175 322 q 180 183 179 222 q 186 107 181 144 q 194 61 189 83 q 197 38 199 46 q 182 22 194 29 q 156 17 169 14 q 133 32 142 19 q 117 65 124 47 q 107 101 110 83 q 91 217 97 158 q 79 332 85 275 q 70 481 75 407 q 61 631 65 556 q 53 785 56 708 q 61 940 50 863 q 69 981 64 961 q 79 1022 75 1001 q 94 1053 83 1038 q 110 1068 101 1063 q 132 1074 118 1074 q 152 1064 144 1072 q 163 1044 160 1056 q 173 1001 171 1022 q 175 956 175 979 q 179 912 178 933 q 178 876 181 890 m 244 1242 q 231 1213 244 1226 q 200 1200 218 1200 q 171 1215 183 1203 q 158 1246 158 1228 q 173 1276 161 1264 q 203 1288 185 1288 q 233 1274 219 1288 q 244 1242 246 1261 m 92 1207 q 65 1217 76 1207 q 53 1242 54 1226 q 88 1282 53 1278 q 115 1272 103 1283 q 128 1246 126 1261 q 117 1219 128 1231 q 92 1207 107 1208 z "},"İ":{"ha":250,"x_min":50,"x_max":199,"o":"m 178 876 q 172 688 175 778 q 171 510 169 597 q 174 385 174 447 q 178 261 175 322 q 180 183 179 222 q 186 107 181 144 q 194 61 189 83 q 197 38 199 46 q 182 22 194 29 q 156 17 169 14 q 133 32 142 19 q 117 65 124 47 q 107 101 110 83 q 91 217 97 158 q 79 332 85 275 q 70 481 75 407 q 61 631 65 556 q 53 785 56 708 q 61 940 50 863 q 69 981 64 961 q 79 1022 75 1001 q 94 1053 83 1038 q 110 1068 101 1063 q 132 1074 118 1074 q 152 1064 144 1072 q 163 1044 160 1056 q 173 1001 171 1022 q 175 956 175 979 q 179 912 178 933 q 178 876 181 890 m 135 1179 q 106 1190 117 1178 q 93 1219 94 1201 q 107 1254 93 1239 q 139 1269 121 1269 q 178 1221 176 1269 q 164 1192 178 1206 q 135 1179 150 1179 z "},"Ì":{"ha":250,"x_min":50,"x_max":224,"o":"m 178 876 q 172 688 175 778 q 171 510 169 597 q 174 385 174 447 q 178 261 175 322 q 180 183 179 222 q 186 107 181 144 q 194 61 189 83 q 197 38 199 46 q 182 22 194 29 q 156 17 169 14 q 133 32 142 19 q 117 65 124 47 q 107 101 110 83 q 91 217 97 158 q 79 332 85 275 q 70 481 75 407 q 61 631 65 556 q 53 785 56 708 q 61 940 50 863 q 69 981 64 961 q 79 1022 75 1001 q 94 1053 83 1038 q 110 1068 101 1063 q 132 1074 118 1074 q 152 1064 144 1072 q 163 1044 160 1056 q 173 1001 171 1022 q 175 956 175 979 q 179 912 178 933 q 178 876 181 890 m 68 1315 q 82 1347 68 1338 q 114 1347 96 1357 q 123 1340 118 1344 q 132 1331 128 1335 q 152 1300 144 1317 q 168 1268 160 1283 q 191 1213 179 1240 q 215 1157 203 1185 q 219 1151 218 1154 q 222 1144 221 1147 q 215 1124 224 1132 q 193 1119 208 1117 q 165 1143 176 1125 q 141 1180 153 1163 q 119 1215 129 1197 q 99 1247 110 1231 q 78 1281 88 1263 q 72 1299 75 1290 q 68 1315 69 1308 z "},"Ī":{"ha":250,"x_min":-18,"x_max":247,"o":"m 178 876 q 172 688 175 778 q 171 510 169 597 q 174 385 174 447 q 178 261 175 322 q 180 183 179 222 q 186 107 181 144 q 194 61 189 83 q 197 38 199 46 q 182 22 194 29 q 156 17 169 14 q 133 32 142 19 q 117 65 124 47 q 107 101 110 83 q 91 217 97 158 q 79 332 85 275 q 70 481 75 407 q 61 631 65 556 q 53 785 56 708 q 61 940 50 863 q 69 981 64 961 q 79 1022 75 1001 q 94 1053 83 1038 q 110 1068 101 1063 q 132 1074 118 1074 q 152 1064 144 1072 q 163 1044 160 1056 q 173 1001 171 1022 q 175 956 175 979 q 179 912 178 933 q 178 876 181 890 m 90 1181 q 53 1182 72 1182 q 17 1186 35 1182 q -14 1219 -14 1192 q 15 1253 -18 1246 q 24 1256 19 1256 q 32 1256 29 1256 q 99 1260 67 1254 q 167 1269 132 1265 q 186 1272 176 1272 q 207 1272 196 1272 q 244 1236 240 1268 q 215 1193 247 1207 q 192 1189 203 1189 q 140 1185 165 1188 q 90 1181 115 1182 z "},"Į":{"ha":250,"x_min":43,"x_max":289,"o":"m 178 876 q 172 688 175 778 q 171 510 169 597 q 174 385 174 447 q 178 261 175 322 q 180 183 179 222 q 186 107 181 144 q 194 61 189 83 q 197 38 199 46 q 182 22 194 29 q 156 17 169 14 q 133 32 142 19 q 117 65 124 47 q 107 101 110 83 q 91 217 97 158 q 79 332 85 275 q 70 481 75 407 q 61 631 65 556 q 53 785 56 708 q 61 940 50 863 q 69 981 64 961 q 79 1022 75 1001 q 94 1053 83 1038 q 110 1068 101 1063 q 132 1074 118 1074 q 152 1064 144 1072 q 163 1044 160 1056 q 173 1001 171 1022 q 175 956 175 979 q 179 912 178 933 q 178 876 181 890 m 44 -78 q 57 -25 43 -56 q 93 32 71 6 q 140 67 115 58 q 160 72 150 71 q 179 71 169 74 q 200 53 197 65 q 190 29 203 42 q 160 -4 172 14 q 142 -46 149 -22 q 141 -52 142 -49 q 140 -58 140 -56 q 163 -79 135 -89 q 208 -62 186 -72 q 244 -32 229 -51 q 255 -19 249 -24 q 271 -19 261 -14 q 284 -35 279 -22 q 283 -54 289 -47 q 274 -72 279 -64 q 261 -87 268 -81 q 169 -154 219 -129 q 104 -162 133 -172 q 59 -128 75 -153 q 44 -78 43 -103 z "},"Ĩ":{"ha":250,"x_min":-50,"x_max":319,"o":"m 178 876 q 172 688 175 778 q 171 510 169 597 q 174 385 174 447 q 178 261 175 322 q 180 183 179 222 q 186 107 181 144 q 194 61 189 83 q 197 38 199 46 q 182 22 194 29 q 156 17 169 14 q 133 32 142 19 q 117 65 124 47 q 107 101 110 83 q 91 217 97 158 q 79 332 85 275 q 70 481 75 407 q 61 631 65 556 q 53 785 56 708 q 61 940 50 863 q 69 981 64 961 q 79 1022 75 1001 q 94 1053 83 1038 q 110 1068 101 1063 q 132 1074 118 1074 q 152 1064 144 1072 q 163 1044 160 1056 q 173 1001 171 1022 q 175 956 175 979 q 179 912 178 933 q 178 876 181 890 m 197 1157 q 97 1204 135 1160 q 85 1219 92 1211 q 74 1233 79 1226 q 58 1246 64 1244 q 40 1238 51 1247 q 16 1211 26 1225 q -1 1179 6 1197 q -2 1178 -1 1178 q -3 1175 -3 1178 q -31 1153 -12 1149 q -45 1164 -40 1154 q -49 1186 -50 1174 q -47 1199 -49 1194 q -13 1257 -35 1231 q 39 1300 8 1283 q 85 1308 61 1315 q 126 1278 108 1301 q 140 1258 133 1268 q 157 1240 147 1247 q 185 1224 169 1228 q 218 1221 200 1219 q 249 1242 238 1224 q 253 1279 260 1261 q 252 1282 253 1282 q 251 1282 251 1282 q 244 1296 246 1289 q 251 1308 243 1303 q 267 1313 258 1315 q 281 1304 275 1310 q 307 1264 294 1292 q 310 1213 319 1236 q 295 1190 304 1200 q 274 1174 286 1181 q 197 1157 236 1157 z "},"J":{"ha":538,"x_min":53,"x_max":489,"o":"m 354 647 q 351 778 357 713 q 338 910 346 844 q 333 960 335 935 q 332 1007 332 985 q 333 1023 332 1015 q 336 1036 333 1031 q 372 1069 347 1064 q 415 1053 397 1074 q 444 1006 433 1033 q 469 898 461 953 q 482 789 476 843 q 487 622 489 706 q 478 453 485 538 q 463 353 472 403 q 440 256 454 304 q 411 179 428 217 q 369 110 394 142 q 224 22 314 35 q 131 39 174 14 q 71 115 89 64 q 63 139 67 126 q 57 164 60 151 q 53 185 53 172 q 69 206 56 200 q 92 197 83 207 q 104 175 99 186 q 115 153 110 164 q 118 146 117 150 q 121 136 119 142 q 173 94 140 101 q 238 111 206 86 q 275 160 263 129 q 303 234 293 196 q 321 311 314 272 q 346 465 340 392 q 354 535 351 500 q 354 606 357 569 l 354 647 z "},"K":{"ha":578,"x_min":51,"x_max":572,"o":"m 182 632 q 199 641 193 635 q 208 653 204 647 q 297 747 253 700 q 383 844 342 794 q 479 957 433 901 q 492 974 486 965 q 508 986 499 982 q 553 989 529 1001 q 567 951 572 976 q 563 936 565 943 q 557 922 560 929 q 504 831 533 874 q 440 747 475 788 q 364 663 403 704 q 286 582 325 622 q 265 563 275 572 q 246 543 256 553 q 236 528 236 532 q 246 515 236 525 q 267 496 256 506 q 290 476 278 486 q 363 417 326 446 q 440 361 400 389 q 489 324 465 344 q 538 286 513 304 q 556 264 553 276 q 557 239 560 251 q 540 219 551 225 q 513 211 528 214 q 501 212 507 211 q 488 214 494 213 q 388 247 436 226 q 299 301 340 267 q 245 345 272 324 q 190 386 218 367 q 185 379 185 383 q 186 369 186 375 q 186 251 186 310 q 188 132 186 192 q 188 102 188 117 q 192 72 189 88 q 174 22 201 36 q 145 16 161 14 q 117 28 129 18 q 101 49 107 38 q 90 74 94 61 q 78 125 82 99 q 71 178 74 151 q 58 328 61 253 q 54 478 54 403 q 52 728 53 603 q 54 978 51 853 q 56 1001 54 989 q 58 1024 57 1014 q 84 1062 65 1047 q 125 1074 103 1076 q 165 1053 149 1071 q 179 1011 182 1036 q 181 911 178 961 q 183 811 183 861 q 182 724 182 768 q 182 632 182 679 z "},"Ķ":{"ha":578,"x_min":51,"x_max":572,"o":"m 182 632 q 199 641 193 635 q 208 653 204 647 q 297 747 253 700 q 383 844 342 794 q 479 957 433 901 q 492 974 486 965 q 508 986 499 982 q 553 989 529 1001 q 567 951 572 976 q 563 936 565 943 q 557 922 560 929 q 504 831 533 874 q 440 747 475 788 q 364 663 403 704 q 286 582 325 622 q 265 563 275 572 q 246 543 256 553 q 236 528 236 532 q 246 515 236 525 q 267 496 256 506 q 290 476 278 486 q 363 417 326 446 q 440 361 400 389 q 489 324 465 344 q 538 286 513 304 q 556 264 553 276 q 557 239 560 251 q 540 219 551 225 q 513 211 528 214 q 501 212 507 211 q 488 214 494 213 q 388 247 436 226 q 299 301 340 267 q 245 345 272 324 q 190 386 218 367 q 185 379 185 383 q 186 369 186 375 q 186 251 186 310 q 188 132 186 192 q 188 102 188 117 q 192 72 189 88 q 174 22 201 36 q 145 16 161 14 q 117 28 129 18 q 101 49 107 38 q 90 74 94 61 q 78 125 82 99 q 71 178 74 151 q 58 328 61 253 q 54 478 54 403 q 52 728 53 603 q 54 978 51 853 q 56 1001 54 989 q 58 1024 57 1014 q 84 1062 65 1047 q 125 1074 103 1076 q 165 1053 149 1071 q 179 1011 182 1036 q 181 911 178 961 q 183 811 183 861 q 182 724 182 768 q 182 632 182 679 m 215 -207 q 192 -194 200 -206 q 186 -169 183 -183 q 189 -165 188 -167 q 190 -160 190 -162 q 251 -67 218 -111 q 325 15 285 -24 q 338 24 332 22 q 355 24 347 29 q 363 10 363 19 q 360 0 361 4 q 357 -10 360 -4 q 310 -97 333 -53 q 254 -181 286 -140 q 238 -198 247 -190 q 215 -207 228 -206 z "},"L":{"ha":711,"x_min":51,"x_max":701,"o":"m 57 335 q 54 461 56 394 q 53 594 53 528 q 52 728 53 663 q 53 861 51 794 q 53 929 53 896 q 57 997 54 963 q 65 1039 60 1021 q 72 1056 68 1049 q 83 1072 76 1064 q 128 1088 103 1092 q 167 1060 153 1083 q 178 1035 175 1049 q 182 1007 181 1022 q 183 852 185 929 q 178 697 182 775 q 176 681 178 689 q 175 665 175 674 q 167 389 172 526 q 167 181 165 286 q 172 150 167 154 q 203 151 178 146 q 285 171 244 161 q 369 186 326 181 q 453 197 411 193 q 536 199 496 201 l 629 199 q 653 197 642 199 q 675 189 665 196 q 696 169 690 183 q 699 143 701 156 q 688 124 697 132 q 671 122 679 117 q 629 128 649 133 q 590 119 610 122 q 549 110 569 117 q 508 94 529 103 q 381 58 446 72 q 250 28 315 43 q 201 18 225 24 q 153 6 178 13 q 119 3 133 1 q 69 26 86 6 q 53 78 51 47 q 56 149 54 114 q 57 219 58 185 l 57 335 z "},"Ĺ":{"ha":711,"x_min":51,"x_max":701,"o":"m 57 335 q 54 461 56 394 q 53 594 53 528 q 52 728 53 663 q 53 861 51 794 q 53 929 53 896 q 57 997 54 963 q 65 1039 60 1021 q 72 1056 68 1049 q 83 1072 76 1064 q 128 1088 103 1092 q 167 1060 153 1083 q 178 1035 175 1049 q 182 1007 181 1022 q 183 852 185 929 q 178 697 182 775 q 176 681 178 689 q 175 665 175 674 q 167 389 172 526 q 167 181 165 286 q 172 150 167 154 q 203 151 178 146 q 285 171 244 161 q 369 186 326 181 q 453 197 411 193 q 536 199 496 201 l 629 199 q 653 197 642 199 q 675 189 665 196 q 696 169 690 183 q 699 143 701 156 q 688 124 697 132 q 671 122 679 117 q 629 128 649 133 q 590 119 610 122 q 549 110 569 117 q 508 94 529 103 q 381 58 446 72 q 250 28 315 43 q 201 18 225 24 q 153 6 178 13 q 119 3 133 1 q 69 26 86 6 q 53 78 51 47 q 56 149 54 114 q 57 219 58 185 l 57 335 m 158 1139 q 135 1151 143 1139 q 129 1176 126 1163 q 132 1181 131 1179 q 133 1186 133 1183 q 194 1278 161 1235 q 268 1361 228 1322 q 281 1369 275 1368 q 298 1370 290 1375 q 306 1356 306 1365 q 303 1346 304 1350 q 300 1336 301 1342 q 253 1249 276 1293 q 197 1165 229 1206 q 181 1148 190 1156 q 158 1139 171 1140 z "},"Ľ":{"ha":711,"x_min":51,"x_max":701,"o":"m 57 335 q 54 461 56 394 q 53 594 53 528 q 52 728 53 663 q 53 861 51 794 q 53 929 53 896 q 57 997 54 963 q 65 1039 60 1021 q 72 1056 68 1049 q 83 1072 76 1064 q 128 1088 103 1092 q 167 1060 153 1083 q 178 1035 175 1049 q 182 1007 181 1022 q 183 852 185 929 q 178 697 182 775 q 176 681 178 689 q 175 665 175 674 q 167 389 172 526 q 167 181 165 286 q 172 150 167 154 q 203 151 178 146 q 285 171 244 161 q 369 186 326 181 q 453 197 411 193 q 536 199 496 201 l 629 199 q 653 197 642 199 q 675 189 665 196 q 696 169 690 183 q 699 143 701 156 q 688 124 697 132 q 671 122 679 117 q 629 128 649 133 q 590 119 610 122 q 549 110 569 117 q 508 94 529 103 q 381 58 446 72 q 250 28 315 43 q 201 18 225 24 q 153 6 178 13 q 119 3 133 1 q 69 26 86 6 q 53 78 51 47 q 56 149 54 114 q 57 219 58 185 l 57 335 m 463 1149 q 439 1160 447 1149 q 433 1186 431 1172 q 436 1191 435 1189 q 438 1196 438 1193 q 499 1288 465 1244 q 572 1371 532 1332 q 585 1379 579 1378 q 602 1380 594 1385 q 610 1365 610 1375 q 607 1356 608 1360 q 604 1346 606 1351 q 557 1259 581 1303 q 501 1175 533 1215 q 485 1158 494 1165 q 463 1149 475 1150 z "},"Ļ":{"ha":711,"x_min":51,"x_max":701,"o":"m 57 335 q 54 461 56 394 q 53 594 53 528 q 52 728 53 663 q 53 861 51 794 q 53 929 53 896 q 57 997 54 963 q 65 1039 60 1021 q 72 1056 68 1049 q 83 1072 76 1064 q 128 1088 103 1092 q 167 1060 153 1083 q 178 1035 175 1049 q 182 1007 181 1022 q 183 852 185 929 q 178 697 182 775 q 176 681 178 689 q 175 665 175 674 q 167 389 172 526 q 167 181 165 286 q 172 150 167 154 q 203 151 178 146 q 285 171 244 161 q 369 186 326 181 q 453 197 411 193 q 536 199 496 201 l 629 199 q 653 197 642 199 q 675 189 665 196 q 696 169 690 183 q 699 143 701 156 q 688 124 697 132 q 671 122 679 117 q 629 128 649 133 q 590 119 610 122 q 549 110 569 117 q 508 94 529 103 q 381 58 446 72 q 250 28 315 43 q 201 18 225 24 q 153 6 178 13 q 119 3 133 1 q 69 26 86 6 q 53 78 51 47 q 56 149 54 114 q 57 219 58 185 l 57 335 m 179 -253 q 156 -240 164 -251 q 150 -215 147 -229 q 153 -210 151 -212 q 154 -206 154 -208 q 215 -113 182 -157 q 289 -31 249 -69 q 301 -22 296 -24 q 319 -22 311 -17 q 326 -36 326 -26 q 324 -46 325 -42 q 321 -56 324 -50 q 274 -142 297 -99 q 218 -226 250 -186 q 201 -244 211 -236 q 179 -253 192 -251 z "},"Ł":{"ha":769,"x_min":-46,"x_max":719,"o":"m 694 189 q 713 169 707 183 q 717 143 719 156 q 705 124 714 132 q 688 122 696 117 q 646 128 665 133 q 607 119 626 122 q 566 110 586 117 q 525 94 546 103 q 397 58 463 72 q 267 28 332 43 q 219 18 244 24 q 169 6 194 13 q 136 3 150 1 q 85 26 103 6 q 69 78 68 47 q 73 149 71 114 q 74 219 75 185 l 74 335 q 72 389 74 361 q 71 447 71 417 q 49 422 58 433 q 33 407 39 410 q -3 408 17 400 q -34 433 -22 415 q -42 474 -46 450 q -35 494 -39 483 q -25 511 -31 504 q 19 561 -6 535 q 69 614 43 588 l 69 861 q 70 929 69 896 q 74 997 71 963 q 82 1039 76 1021 q 89 1056 85 1049 q 100 1072 93 1064 q 145 1088 119 1092 q 183 1060 171 1083 q 194 1035 192 1049 q 199 1007 197 1022 q 200 870 201 939 q 196 732 199 801 q 292 813 251 781 q 338 844 333 844 q 379 801 385 844 q 350 764 379 796 q 278 687 321 732 q 190 594 235 642 q 188 492 190 543 q 183 389 186 440 q 183 181 182 286 q 189 150 183 154 q 219 151 194 146 q 302 171 261 161 q 386 186 343 181 q 470 197 428 193 q 554 199 513 201 l 646 199 q 671 197 658 199 q 694 189 683 196 z "},"M":{"ha":799,"x_min":51,"x_max":746,"o":"m 611 826 q 590 792 599 808 q 574 761 581 776 q 526 673 549 718 q 482 581 504 628 q 447 507 464 544 q 413 431 431 469 q 358 393 399 396 q 326 400 340 392 q 300 424 311 408 q 279 474 286 446 q 244 589 263 532 q 213 703 225 646 q 200 728 211 715 q 196 686 200 706 q 190 546 193 617 q 183 406 186 475 q 174 303 181 354 q 161 199 168 251 q 158 166 160 182 q 153 132 156 150 q 146 113 151 122 q 128 101 140 104 q 105 101 117 96 q 86 118 93 106 q 78 134 81 125 q 74 153 76 143 q 58 274 64 213 q 53 394 51 335 q 65 660 56 529 q 72 749 69 704 q 78 839 75 793 q 85 912 81 875 q 100 985 90 949 q 106 1006 103 996 q 115 1026 110 1017 q 188 1056 142 1068 q 236 1028 219 1047 q 263 981 253 1008 q 312 828 290 906 q 357 674 333 751 q 367 639 361 657 q 378 603 372 621 q 390 613 388 606 q 394 626 392 621 q 451 732 426 678 q 507 839 476 786 q 549 910 526 875 q 594 981 571 946 q 603 997 599 988 q 611 1014 608 1006 q 631 1046 615 1033 q 665 1060 647 1058 q 702 1051 685 1061 q 728 1024 719 1042 q 737 1000 735 1014 q 740 974 739 986 q 744 901 743 939 q 746 826 744 864 q 742 646 746 736 q 732 465 739 556 q 729 402 729 435 q 728 336 729 369 q 724 202 725 269 q 724 68 724 135 q 699 31 724 38 q 658 51 671 25 q 644 103 647 75 q 638 167 639 135 q 633 231 636 200 q 628 346 629 288 q 621 461 626 404 q 613 633 614 547 q 613 806 611 719 q 613 813 613 808 q 611 826 613 817 z "},"N":{"ha":654,"x_min":53,"x_max":604,"o":"m 179 594 q 177 552 176 572 q 178 510 178 532 q 176 417 176 463 q 174 326 176 371 q 169 197 171 261 q 171 68 168 132 l 171 61 q 157 31 171 32 q 125 56 136 26 q 115 113 119 83 q 107 169 111 142 q 97 229 101 200 q 88 289 93 258 q 81 344 83 317 q 75 399 78 372 q 63 576 67 492 q 55 740 57 658 q 53 906 53 822 q 56 958 53 932 q 67 1011 60 985 q 71 1024 69 1018 q 78 1035 72 1029 q 114 1060 90 1057 q 154 1043 138 1063 q 172 1022 164 1033 q 186 994 181 1010 q 234 866 213 931 q 275 736 256 801 q 324 594 297 664 q 379 457 350 525 q 421 365 399 410 q 469 276 443 321 q 477 263 474 271 q 490 251 481 256 q 493 303 492 278 q 494 351 494 328 q 494 433 494 392 q 492 514 494 474 q 490 661 489 588 q 490 807 490 735 q 490 891 490 850 q 486 972 489 932 q 485 989 486 982 q 474 1001 483 996 q 466 1015 464 1006 q 475 1031 468 1025 q 506 1035 490 1038 q 528 1015 522 1033 q 538 990 535 1003 q 544 964 542 976 q 567 815 561 890 q 578 665 572 740 q 587 514 581 589 q 599 361 593 439 q 602 273 600 317 q 603 185 604 229 q 599 142 601 163 q 590 101 597 121 q 549 53 581 65 q 483 57 517 40 q 458 77 469 65 q 436 103 447 89 q 379 176 406 138 q 329 256 353 215 q 274 372 300 313 q 224 490 247 431 q 206 540 214 515 q 188 589 197 564 q 185 592 186 590 q 179 594 185 594 z "},"Ń":{"ha":654,"x_min":53,"x_max":604,"o":"m 179 594 q 177 552 176 572 q 178 510 178 532 q 176 417 176 463 q 174 326 176 371 q 169 197 171 261 q 171 68 168 132 l 171 61 q 157 31 171 32 q 125 56 136 26 q 115 113 119 83 q 107 169 111 142 q 97 229 101 200 q 88 289 93 258 q 81 344 83 317 q 75 399 78 372 q 63 576 67 492 q 55 740 57 658 q 53 906 53 822 q 56 958 53 932 q 67 1011 60 985 q 71 1024 69 1018 q 78 1035 72 1029 q 114 1060 90 1057 q 154 1043 138 1063 q 172 1022 164 1033 q 186 994 181 1010 q 234 866 213 931 q 275 736 256 801 q 324 594 297 664 q 379 457 350 525 q 421 365 399 410 q 469 276 443 321 q 477 263 474 271 q 490 251 481 256 q 493 303 492 278 q 494 351 494 328 q 494 433 494 392 q 492 514 494 474 q 490 661 489 588 q 490 807 490 735 q 490 891 490 850 q 486 972 489 932 q 485 989 486 982 q 474 1001 483 996 q 466 1015 464 1006 q 475 1031 468 1025 q 506 1035 490 1038 q 528 1015 522 1033 q 538 990 535 1003 q 544 964 542 976 q 567 815 561 890 q 578 665 572 740 q 587 514 581 589 q 599 361 593 439 q 602 273 600 317 q 603 185 604 229 q 599 142 601 163 q 590 101 597 121 q 549 53 581 65 q 483 57 517 40 q 458 77 469 65 q 436 103 447 89 q 379 176 406 138 q 329 256 353 215 q 274 372 300 313 q 224 490 247 431 q 206 540 214 515 q 188 589 197 564 q 185 592 186 590 q 179 594 185 594 m 257 1097 q 233 1109 242 1097 q 228 1135 225 1121 q 231 1140 229 1138 q 232 1144 232 1142 q 293 1237 260 1193 q 367 1319 326 1281 q 379 1328 374 1326 q 397 1328 389 1333 q 404 1314 404 1324 q 401 1304 403 1308 q 399 1294 400 1300 q 351 1208 375 1251 q 296 1124 328 1164 q 279 1106 289 1114 q 257 1097 269 1099 z "},"Ň":{"ha":654,"x_min":53,"x_max":604,"o":"m 179 594 q 177 552 176 572 q 178 510 178 532 q 176 417 176 463 q 174 326 176 371 q 169 197 171 261 q 171 68 168 132 l 171 61 q 157 31 171 32 q 125 56 136 26 q 115 113 119 83 q 107 169 111 142 q 97 229 101 200 q 88 289 93 258 q 81 344 83 317 q 75 399 78 372 q 63 576 67 492 q 55 740 57 658 q 53 906 53 822 q 56 958 53 932 q 67 1011 60 985 q 71 1024 69 1018 q 78 1035 72 1029 q 114 1060 90 1057 q 154 1043 138 1063 q 172 1022 164 1033 q 186 994 181 1010 q 234 866 213 931 q 275 736 256 801 q 324 594 297 664 q 379 457 350 525 q 421 365 399 410 q 469 276 443 321 q 477 263 474 271 q 490 251 481 256 q 493 303 492 278 q 494 351 494 328 q 494 433 494 392 q 492 514 494 474 q 490 661 489 588 q 490 807 490 735 q 490 891 490 850 q 486 972 489 932 q 485 989 486 982 q 474 1001 483 996 q 466 1015 464 1006 q 475 1031 468 1025 q 506 1035 490 1038 q 528 1015 522 1033 q 538 990 535 1003 q 544 964 542 976 q 567 815 561 890 q 578 665 572 740 q 587 514 581 589 q 599 361 593 439 q 602 273 600 317 q 603 185 604 229 q 599 142 601 163 q 590 101 597 121 q 549 53 581 65 q 483 57 517 40 q 458 77 469 65 q 436 103 447 89 q 379 176 406 138 q 329 256 353 215 q 274 372 300 313 q 224 490 247 431 q 206 540 214 515 q 188 589 197 564 q 185 592 186 590 q 179 594 185 594 m 315 1225 q 331 1253 325 1240 q 340 1278 336 1265 q 369 1327 350 1306 q 407 1371 388 1349 q 424 1375 415 1379 q 435 1358 435 1372 q 432 1346 435 1350 q 407 1270 417 1308 q 382 1194 397 1232 q 372 1169 378 1182 q 357 1144 367 1156 q 308 1120 335 1118 q 265 1153 281 1122 q 238 1225 250 1189 q 214 1299 225 1261 q 210 1314 213 1306 q 206 1329 207 1322 q 202 1347 203 1338 q 201 1363 201 1356 q 231 1394 204 1389 q 261 1374 250 1397 q 279 1328 271 1351 q 294 1282 288 1306 q 306 1255 301 1269 q 315 1225 310 1240 z "},"Ņ":{"ha":654,"x_min":53,"x_max":604,"o":"m 179 594 q 177 552 176 572 q 178 510 178 532 q 176 417 176 463 q 174 326 176 371 q 169 197 171 261 q 171 68 168 132 l 171 61 q 157 31 171 32 q 125 56 136 26 q 115 113 119 83 q 107 169 111 142 q 97 229 101 200 q 88 289 93 258 q 81 344 83 317 q 75 399 78 372 q 63 576 67 492 q 55 740 57 658 q 53 906 53 822 q 56 958 53 932 q 67 1011 60 985 q 71 1024 69 1018 q 78 1035 72 1029 q 114 1060 90 1057 q 154 1043 138 1063 q 172 1022 164 1033 q 186 994 181 1010 q 234 866 213 931 q 275 736 256 801 q 324 594 297 664 q 379 457 350 525 q 421 365 399 410 q 469 276 443 321 q 477 263 474 271 q 490 251 481 256 q 493 303 492 278 q 494 351 494 328 q 494 433 494 392 q 492 514 494 474 q 490 661 489 588 q 490 807 490 735 q 490 891 490 850 q 486 972 489 932 q 485 989 486 982 q 474 1001 483 996 q 466 1015 464 1006 q 475 1031 468 1025 q 506 1035 490 1038 q 528 1015 522 1033 q 538 990 535 1003 q 544 964 542 976 q 567 815 561 890 q 578 665 572 740 q 587 514 581 589 q 599 361 593 439 q 602 273 600 317 q 603 185 604 229 q 599 142 601 163 q 590 101 597 121 q 549 53 581 65 q 483 57 517 40 q 458 77 469 65 q 436 103 447 89 q 379 176 406 138 q 329 256 353 215 q 274 372 300 313 q 224 490 247 431 q 206 540 214 515 q 188 589 197 564 q 185 592 186 590 q 179 594 185 594 m 232 -194 q 208 -182 217 -193 q 203 -157 200 -171 q 206 -152 204 -154 q 207 -147 207 -150 q 268 -55 235 -99 q 342 28 301 -11 q 354 36 349 35 q 372 37 364 42 q 379 22 379 32 q 377 13 378 17 q 374 3 376 8 q 326 -84 350 -40 q 271 -168 303 -128 q 254 -185 264 -178 q 232 -194 244 -193 z "},"Ñ":{"ha":654,"x_min":53,"x_max":604,"o":"m 179 594 q 177 552 176 572 q 178 510 178 532 q 176 417 176 463 q 174 326 176 371 q 169 197 171 261 q 171 68 168 132 l 171 61 q 157 31 171 32 q 125 56 136 26 q 115 113 119 83 q 107 169 111 142 q 97 229 101 200 q 88 289 93 258 q 81 344 83 317 q 75 399 78 372 q 63 576 67 492 q 55 740 57 658 q 53 906 53 822 q 56 958 53 932 q 67 1011 60 985 q 71 1024 69 1018 q 78 1035 72 1029 q 114 1060 90 1057 q 154 1043 138 1063 q 172 1022 164 1033 q 186 994 181 1010 q 234 866 213 931 q 275 736 256 801 q 324 594 297 664 q 379 457 350 525 q 421 365 399 410 q 469 276 443 321 q 477 263 474 271 q 490 251 481 256 q 493 303 492 278 q 494 351 494 328 q 494 433 494 392 q 492 514 494 474 q 490 661 489 588 q 490 807 490 735 q 490 891 490 850 q 486 972 489 932 q 485 989 486 982 q 474 1001 483 996 q 466 1015 464 1006 q 475 1031 468 1025 q 506 1035 490 1038 q 528 1015 522 1033 q 538 990 535 1003 q 544 964 542 976 q 567 815 561 890 q 578 665 572 740 q 587 514 581 589 q 599 361 593 439 q 602 273 600 317 q 603 185 604 229 q 599 142 601 163 q 590 101 597 121 q 549 53 581 65 q 483 57 517 40 q 458 77 469 65 q 436 103 447 89 q 379 176 406 138 q 329 256 353 215 q 274 372 300 313 q 224 490 247 431 q 206 540 214 515 q 188 589 197 564 q 185 592 186 590 q 179 594 185 594 m 381 1136 q 281 1183 318 1139 q 269 1198 275 1190 q 257 1213 263 1206 q 241 1225 247 1224 q 224 1217 235 1226 q 199 1190 210 1204 q 182 1158 189 1176 q 181 1157 182 1157 q 181 1154 181 1157 q 153 1132 171 1128 q 138 1143 143 1133 q 135 1165 133 1153 q 136 1178 135 1174 q 170 1236 149 1210 q 222 1279 192 1263 q 268 1288 244 1294 q 310 1257 292 1281 q 324 1237 317 1247 q 340 1219 331 1226 q 368 1203 353 1207 q 401 1200 383 1199 q 432 1222 421 1203 q 436 1258 443 1240 q 435 1261 436 1261 q 435 1261 435 1261 q 428 1275 429 1268 q 435 1288 426 1282 q 450 1292 442 1294 q 464 1283 458 1289 q 490 1243 478 1271 q 493 1192 503 1215 q 478 1169 488 1179 q 457 1153 469 1160 q 381 1136 419 1136 z "},"Ŋ":{"ha":654,"x_min":53,"x_max":606,"o":"m 599 589 q 603 421 606 504 q 592 253 601 338 q 579 153 588 203 q 557 56 571 104 q 528 -21 544 17 q 486 -90 511 -58 q 340 -178 431 -165 q 247 -161 289 -186 q 188 -86 206 -136 q 180 -61 183 -74 q 174 -36 176 -49 q 169 -15 169 -28 q 186 3 172 1 q 208 -6 200 10 q 221 -26 215 -15 q 232 -47 226 -36 q 235 -54 233 -50 q 238 -64 236 -58 q 290 -106 257 -99 q 354 -90 322 -114 q 392 -43 379 -69 q 417 28 407 -8 q 436 101 428 65 l 436 103 q 380 176 406 138 q 332 256 354 215 q 275 372 301 313 q 225 490 249 431 q 206 540 215 515 q 188 589 197 564 q 185 592 186 590 q 179 594 185 594 q 177 552 176 572 q 178 510 178 532 q 177 417 176 463 q 175 326 178 371 q 169 197 171 261 q 171 68 168 132 l 171 61 q 157 31 171 32 q 128 56 135 25 q 115 113 119 83 q 107 169 111 142 q 97 229 101 200 q 88 289 93 258 q 81 344 83 317 q 75 399 78 372 q 69 489 72 444 q 63 576 65 533 q 56 740 58 658 q 53 906 53 822 q 58 958 54 932 q 67 1011 61 985 q 78 1035 71 1022 q 115 1060 92 1057 q 154 1043 139 1063 q 174 1022 165 1033 q 188 994 182 1010 q 234 866 213 931 q 275 736 256 801 q 324 594 297 664 q 379 457 350 525 q 419 369 399 413 q 465 285 440 325 q 469 344 468 314 q 471 403 471 374 l 471 447 q 468 538 472 481 q 458 663 464 596 q 446 787 451 729 q 436 878 440 844 q 431 928 433 903 q 429 976 428 953 q 430 992 429 983 q 433 1006 431 1000 q 469 1037 444 1032 q 513 1019 493 1042 q 530 998 522 1010 q 540 972 538 986 q 558 894 549 946 q 575 781 567 842 q 590 669 583 721 q 599 589 596 617 z "},"O":{"ha":665,"x_min":53,"x_max":618,"o":"m 53 507 q 60 626 53 567 q 78 743 67 685 q 105 850 89 797 q 144 953 121 903 q 169 997 156 976 q 200 1035 182 1017 q 229 1057 213 1047 q 255 1072 244 1063 q 275 1090 265 1081 q 342 1107 307 1118 q 467 1028 422 1092 q 506 963 489 997 q 536 894 522 929 q 598 676 578 788 q 611 449 618 564 q 594 322 606 385 q 561 199 583 258 q 520 112 546 151 q 457 40 494 72 q 360 -13 411 3 q 253 -10 310 -29 q 198 21 222 0 q 154 68 174 42 q 112 144 128 104 q 83 226 96 183 q 60 354 67 289 q 53 485 53 419 l 53 507 m 300 969 q 290 961 293 967 q 286 951 288 956 q 271 917 278 933 q 257 885 264 901 q 203 708 221 799 q 183 526 186 618 q 184 442 182 483 q 192 356 186 400 q 207 275 197 315 q 232 197 217 235 q 247 167 239 182 q 265 139 254 151 q 371 118 311 82 q 417 157 399 133 q 449 207 436 181 q 471 267 461 238 q 486 328 481 297 q 497 444 497 386 q 490 561 497 501 q 474 645 485 604 q 453 726 464 686 q 426 813 440 771 q 392 894 411 854 q 374 932 385 914 q 349 964 364 950 q 336 968 340 972 q 317 961 325 957 q 300 969 308 965 z "},"Ó":{"ha":665,"x_min":53,"x_max":618,"o":"m 53 507 q 60 626 53 567 q 78 743 67 685 q 105 850 89 797 q 144 953 121 903 q 169 997 156 976 q 200 1035 182 1017 q 229 1057 213 1047 q 255 1072 244 1063 q 275 1090 265 1081 q 342 1107 307 1118 q 467 1028 422 1092 q 506 963 489 997 q 536 894 522 929 q 598 676 578 788 q 611 449 618 564 q 594 322 606 385 q 561 199 583 258 q 520 112 546 151 q 457 40 494 72 q 360 -13 411 3 q 253 -10 310 -29 q 198 21 222 0 q 154 68 174 42 q 112 144 128 104 q 83 226 96 183 q 60 354 67 289 q 53 485 53 419 l 53 507 m 300 969 q 290 961 293 967 q 286 951 288 956 q 271 917 278 933 q 257 885 264 901 q 203 708 221 799 q 183 526 186 618 q 184 442 182 483 q 192 356 186 400 q 207 275 197 315 q 232 197 217 235 q 247 167 239 182 q 265 139 254 151 q 371 118 311 82 q 417 157 399 133 q 449 207 436 181 q 471 267 461 238 q 486 328 481 297 q 497 444 497 386 q 490 561 497 501 q 474 645 485 604 q 453 726 464 686 q 426 813 440 771 q 392 894 411 854 q 374 932 385 914 q 349 964 364 950 q 336 968 340 972 q 317 961 325 957 q 300 969 308 965 m 283 1151 q 260 1163 268 1151 q 254 1189 251 1175 q 257 1194 256 1192 q 258 1199 258 1196 q 319 1291 286 1247 q 393 1374 353 1335 q 406 1382 400 1381 q 423 1383 415 1388 q 431 1368 431 1378 q 428 1358 429 1363 q 425 1349 426 1354 q 378 1262 401 1306 q 322 1178 354 1218 q 306 1160 315 1168 q 283 1151 296 1153 z "},"Ô":{"ha":665,"x_min":53,"x_max":618,"o":"m 53 507 q 60 626 53 567 q 78 743 67 685 q 105 850 89 797 q 144 953 121 903 q 169 997 156 976 q 200 1035 182 1017 q 229 1057 213 1047 q 255 1072 244 1063 q 275 1090 265 1081 q 342 1107 307 1118 q 467 1028 422 1092 q 506 963 489 997 q 536 894 522 929 q 598 676 578 788 q 611 449 618 564 q 594 322 606 385 q 561 199 583 258 q 520 112 546 151 q 457 40 494 72 q 360 -13 411 3 q 253 -10 310 -29 q 198 21 222 0 q 154 68 174 42 q 112 144 128 104 q 83 226 96 183 q 60 354 67 289 q 53 485 53 419 l 53 507 m 300 969 q 290 961 293 967 q 286 951 288 956 q 271 917 278 933 q 257 885 264 901 q 203 708 221 799 q 183 526 186 618 q 184 442 182 483 q 192 356 186 400 q 207 275 197 315 q 232 197 217 235 q 247 167 239 182 q 265 139 254 151 q 371 118 311 82 q 417 157 399 133 q 449 207 436 181 q 471 267 461 238 q 486 328 481 297 q 497 444 497 386 q 490 561 497 501 q 474 645 485 604 q 453 726 464 686 q 426 813 440 771 q 392 894 411 854 q 374 932 385 914 q 349 964 364 950 q 336 968 340 972 q 317 961 325 957 q 300 969 308 965 m 335 1335 q 316 1301 322 1319 q 300 1265 310 1283 q 289 1244 294 1256 q 276 1222 283 1233 q 233 1199 263 1192 q 208 1240 208 1206 q 217 1269 211 1257 q 243 1344 229 1307 q 275 1418 257 1382 q 295 1447 282 1435 q 329 1460 308 1458 q 364 1449 349 1460 q 389 1422 379 1439 q 408 1385 400 1404 q 421 1347 415 1367 q 435 1275 428 1311 q 450 1203 442 1239 q 451 1198 450 1200 q 451 1193 451 1196 q 443 1172 456 1179 q 421 1172 432 1167 q 408 1186 413 1179 q 401 1201 404 1193 q 376 1259 389 1231 q 347 1315 363 1288 q 342 1326 344 1321 q 335 1335 340 1332 z "},"Ö":{"ha":665,"x_min":53,"x_max":618,"o":"m 53 507 q 60 626 53 567 q 78 743 67 685 q 105 850 89 797 q 144 953 121 903 q 169 997 156 976 q 200 1035 182 1017 q 229 1057 213 1047 q 255 1072 244 1063 q 275 1090 265 1081 q 342 1107 307 1118 q 467 1028 422 1092 q 506 963 489 997 q 536 894 522 929 q 598 676 578 788 q 611 449 618 564 q 594 322 606 385 q 561 199 583 258 q 520 112 546 151 q 457 40 494 72 q 360 -13 411 3 q 253 -10 310 -29 q 198 21 222 0 q 154 68 174 42 q 112 144 128 104 q 83 226 96 183 q 60 354 67 289 q 53 485 53 419 l 53 507 m 300 969 q 290 961 293 967 q 286 951 288 956 q 271 917 278 933 q 257 885 264 901 q 203 708 221 799 q 183 526 186 618 q 184 442 182 483 q 192 356 186 400 q 207 275 197 315 q 232 197 217 235 q 247 167 239 182 q 265 139 254 151 q 371 118 311 82 q 417 157 399 133 q 449 207 436 181 q 471 267 461 238 q 486 328 481 297 q 497 444 497 386 q 490 561 497 501 q 474 645 485 604 q 453 726 464 686 q 426 813 440 771 q 392 894 411 854 q 374 932 385 914 q 349 964 364 950 q 336 968 340 972 q 317 961 325 957 q 300 969 308 965 m 454 1275 q 441 1247 454 1260 q 410 1233 428 1233 q 381 1249 393 1236 q 368 1279 368 1261 q 383 1309 371 1297 q 413 1321 394 1321 q 442 1308 429 1321 q 454 1275 456 1294 m 301 1240 q 275 1250 286 1240 q 263 1275 264 1260 q 297 1315 263 1311 q 324 1306 313 1317 q 338 1279 336 1294 q 327 1253 338 1264 q 301 1240 317 1242 z "},"Ò":{"ha":665,"x_min":53,"x_max":618,"o":"m 53 507 q 60 626 53 567 q 78 743 67 685 q 105 850 89 797 q 144 953 121 903 q 169 997 156 976 q 200 1035 182 1017 q 229 1057 213 1047 q 255 1072 244 1063 q 275 1090 265 1081 q 342 1107 307 1118 q 467 1028 422 1092 q 506 963 489 997 q 536 894 522 929 q 598 676 578 788 q 611 449 618 564 q 594 322 606 385 q 561 199 583 258 q 520 112 546 151 q 457 40 494 72 q 360 -13 411 3 q 253 -10 310 -29 q 198 21 222 0 q 154 68 174 42 q 112 144 128 104 q 83 226 96 183 q 60 354 67 289 q 53 485 53 419 l 53 507 m 300 969 q 290 961 293 967 q 286 951 288 956 q 271 917 278 933 q 257 885 264 901 q 203 708 221 799 q 183 526 186 618 q 184 442 182 483 q 192 356 186 400 q 207 275 197 315 q 232 197 217 235 q 247 167 239 182 q 265 139 254 151 q 371 118 311 82 q 417 157 399 133 q 449 207 436 181 q 471 267 461 238 q 486 328 481 297 q 497 444 497 386 q 490 561 497 501 q 474 645 485 604 q 453 726 464 686 q 426 813 440 771 q 392 894 411 854 q 374 932 385 914 q 349 964 364 950 q 336 968 340 972 q 317 961 325 957 q 300 969 308 965 m 278 1349 q 292 1381 278 1371 q 324 1381 306 1390 q 333 1373 328 1378 q 342 1364 338 1368 q 362 1333 354 1350 q 378 1301 369 1317 q 401 1246 389 1274 q 425 1190 413 1218 q 429 1184 428 1188 q 432 1178 431 1181 q 425 1157 433 1165 q 403 1153 418 1150 q 375 1176 386 1158 q 351 1213 363 1196 q 329 1249 339 1231 q 308 1280 319 1264 q 288 1314 297 1296 q 282 1333 285 1324 q 278 1349 279 1342 z "},"Ő":{"ha":665,"x_min":53,"x_max":618,"o":"m 53 507 q 60 626 53 567 q 78 743 67 685 q 105 850 89 797 q 144 953 121 903 q 169 997 156 976 q 200 1035 182 1017 q 229 1057 213 1047 q 255 1072 244 1063 q 275 1090 265 1081 q 342 1107 307 1118 q 467 1028 422 1092 q 506 963 489 997 q 536 894 522 929 q 598 676 578 788 q 611 449 618 564 q 594 322 606 385 q 561 199 583 258 q 520 112 546 151 q 457 40 494 72 q 360 -13 411 3 q 253 -10 310 -29 q 198 21 222 0 q 154 68 174 42 q 112 144 128 104 q 83 226 96 183 q 60 354 67 289 q 53 485 53 419 l 53 507 m 300 969 q 290 961 293 967 q 286 951 288 956 q 271 917 278 933 q 257 885 264 901 q 203 708 221 799 q 183 526 186 618 q 184 442 182 483 q 192 356 186 400 q 207 275 197 315 q 232 197 217 235 q 247 167 239 182 q 265 139 254 151 q 371 118 311 82 q 417 157 399 133 q 449 207 436 181 q 471 267 461 238 q 486 328 481 297 q 497 444 497 386 q 490 561 497 501 q 474 645 485 604 q 453 726 464 686 q 426 813 440 771 q 392 894 411 854 q 374 932 385 914 q 349 964 364 950 q 336 968 340 972 q 317 961 325 957 q 300 969 308 965 m 342 1357 q 333 1313 342 1332 q 315 1261 324 1286 q 296 1211 306 1236 q 289 1194 293 1201 q 276 1179 285 1186 q 265 1174 272 1175 q 251 1178 258 1172 q 242 1200 238 1183 q 261 1276 251 1238 q 281 1353 271 1314 q 292 1371 281 1363 q 322 1379 307 1390 q 338 1370 333 1376 q 342 1357 342 1364 m 433 1346 q 425 1311 432 1328 q 408 1279 418 1294 q 383 1238 396 1257 q 358 1199 371 1218 q 352 1190 356 1193 q 346 1183 349 1186 q 336 1177 340 1179 q 325 1179 332 1175 q 317 1200 313 1186 q 325 1225 319 1213 q 347 1283 336 1253 q 368 1342 358 1313 q 379 1363 372 1353 q 413 1378 393 1385 q 426 1365 419 1375 q 433 1346 433 1356 z "},"Ō":{"ha":665,"x_min":53,"x_max":618,"o":"m 53 507 q 60 626 53 567 q 78 743 67 685 q 105 850 89 797 q 144 953 121 903 q 169 997 156 976 q 200 1035 182 1017 q 229 1057 213 1047 q 255 1072 244 1063 q 275 1090 265 1081 q 342 1107 307 1118 q 467 1028 422 1092 q 506 963 489 997 q 536 894 522 929 q 598 676 578 788 q 611 449 618 564 q 594 322 606 385 q 561 199 583 258 q 520 112 546 151 q 457 40 494 72 q 360 -13 411 3 q 253 -10 310 -29 q 198 21 222 0 q 154 68 174 42 q 112 144 128 104 q 83 226 96 183 q 60 354 67 289 q 53 485 53 419 l 53 507 m 300 969 q 290 961 293 967 q 286 951 288 956 q 271 917 278 933 q 257 885 264 901 q 203 708 221 799 q 183 526 186 618 q 184 442 182 483 q 192 356 186 400 q 207 275 197 315 q 232 197 217 235 q 247 167 239 182 q 265 139 254 151 q 371 118 311 82 q 417 157 399 133 q 449 207 436 181 q 471 267 461 238 q 486 328 481 297 q 497 444 497 386 q 490 561 497 501 q 474 645 485 604 q 453 726 464 686 q 426 813 440 771 q 392 894 411 854 q 374 932 385 914 q 349 964 364 950 q 336 968 340 972 q 317 961 325 957 q 300 969 308 965 m 300 1214 q 263 1215 282 1215 q 226 1219 244 1215 q 196 1253 196 1225 q 225 1286 192 1279 q 234 1289 229 1289 q 242 1289 239 1289 q 309 1293 276 1288 q 376 1303 342 1299 q 396 1306 386 1306 q 417 1306 406 1306 q 454 1269 450 1301 q 425 1226 457 1240 q 401 1222 413 1222 q 350 1218 375 1221 q 300 1214 325 1215 z "},"Ø":{"ha":679,"x_min":39,"x_max":632,"o":"m 574 835 q 619 645 606 742 q 625 449 632 549 q 611 322 622 385 q 578 199 600 258 q 535 112 560 151 q 474 40 511 72 q 377 -13 428 3 q 267 -10 326 -29 q 213 21 236 0 q 169 68 189 42 q 158 85 164 75 q 143 51 151 67 q 129 32 135 35 q 95 22 115 19 q 60 38 75 24 q 42 76 44 53 q 49 115 39 99 q 70 161 56 135 q 103 219 85 188 q 101 224 103 222 q 100 226 100 225 q 76 354 83 289 q 69 485 69 419 q 69 497 69 492 q 67 507 69 501 q 76 626 69 567 q 94 743 82 685 q 122 850 106 797 q 161 953 138 903 q 217 1035 179 1000 q 230 1047 224 1042 q 246 1057 236 1053 q 270 1072 258 1063 q 292 1090 282 1081 q 358 1107 322 1117 q 483 1028 439 1092 q 515 974 501 1001 q 540 919 529 947 q 565 955 556 942 q 575 968 574 968 q 628 936 621 982 q 613 906 628 933 q 574 835 599 879 m 199 526 q 199 459 199 493 q 204 393 200 425 q 330 596 264 492 q 450 785 396 700 q 432 840 443 813 q 408 894 421 868 q 390 932 399 914 q 365 964 381 950 q 359 969 363 967 q 350 968 356 971 q 331 961 340 957 q 315 969 322 965 q 306 961 310 967 q 300 951 303 956 q 286 917 293 933 q 271 885 279 901 q 219 708 236 799 q 199 526 203 618 m 500 328 q 512 444 511 386 q 504 561 513 501 q 495 619 501 589 q 482 676 489 649 q 392 523 439 603 q 304 370 346 443 q 232 240 263 297 q 239 219 235 231 q 249 197 243 208 q 263 167 256 182 q 279 139 269 151 q 386 118 325 82 q 433 157 414 133 q 465 207 451 181 q 486 267 478 238 q 500 328 494 297 z "},"Õ":{"ha":665,"x_min":53,"x_max":618,"o":"m 53 507 q 60 626 53 567 q 78 743 67 685 q 105 850 89 797 q 144 953 121 903 q 169 997 156 976 q 200 1035 182 1017 q 229 1057 213 1047 q 255 1072 244 1063 q 275 1090 265 1081 q 342 1107 307 1118 q 467 1028 422 1092 q 506 963 489 997 q 536 894 522 929 q 598 676 578 788 q 611 449 618 564 q 594 322 606 385 q 561 199 583 258 q 520 112 546 151 q 457 40 494 72 q 360 -13 411 3 q 253 -10 310 -29 q 198 21 222 0 q 154 68 174 42 q 112 144 128 104 q 83 226 96 183 q 60 354 67 289 q 53 485 53 419 l 53 507 m 300 969 q 290 961 293 967 q 286 951 288 956 q 271 917 278 933 q 257 885 264 901 q 203 708 221 799 q 183 526 186 618 q 184 442 182 483 q 192 356 186 400 q 207 275 197 315 q 232 197 217 235 q 247 167 239 182 q 265 139 254 151 q 371 118 311 82 q 417 157 399 133 q 449 207 436 181 q 471 267 461 238 q 486 328 481 297 q 497 444 497 386 q 490 561 497 501 q 474 645 485 604 q 453 726 464 686 q 426 813 440 771 q 392 894 411 854 q 374 932 385 914 q 349 964 364 950 q 336 968 340 972 q 317 961 325 957 q 300 969 308 965 m 407 1190 q 307 1238 344 1193 q 295 1252 301 1244 q 283 1267 289 1260 q 267 1279 274 1278 q 250 1271 261 1281 q 226 1244 236 1258 q 208 1213 215 1231 q 208 1211 208 1211 q 207 1208 207 1211 q 179 1186 197 1182 q 165 1197 169 1188 q 161 1219 160 1207 q 163 1232 161 1228 q 197 1290 175 1264 q 249 1333 218 1317 q 294 1342 271 1349 q 336 1311 318 1335 q 350 1291 343 1301 q 367 1274 357 1281 q 394 1257 379 1261 q 428 1254 410 1253 q 458 1276 447 1257 q 463 1313 469 1294 q 462 1315 463 1315 q 461 1315 461 1315 q 454 1329 456 1322 q 461 1342 453 1336 q 476 1346 468 1349 q 490 1338 485 1343 q 517 1297 504 1325 q 519 1246 529 1269 q 505 1224 514 1233 q 483 1207 496 1214 q 407 1190 446 1190 z "},"Œ":{"ha":975,"x_min":53,"x_max":925,"o":"m 875 332 q 908 331 893 340 q 924 301 924 321 q 922 290 924 296 q 919 276 921 283 q 892 224 908 246 q 728 56 828 124 q 638 38 681 25 q 571 90 596 50 q 544 153 553 118 q 458 40 513 86 q 363 -13 414 3 q 253 -10 313 -29 q 198 21 222 0 q 154 68 174 42 q 113 144 129 104 q 86 226 97 183 q 61 354 68 289 q 54 485 54 419 q 54 497 54 492 q 53 507 54 501 q 60 626 54 567 q 79 743 67 685 q 107 850 90 797 q 146 953 124 903 q 170 997 156 976 q 203 1035 185 1017 q 216 1047 210 1042 q 232 1057 222 1053 q 256 1072 244 1063 q 278 1090 267 1081 q 344 1107 307 1117 q 469 1028 424 1092 q 478 1013 474 1021 q 488 997 483 1004 q 500 1007 492 999 q 525 1022 511 1015 q 553 1031 539 1029 q 653 1046 603 1038 q 754 1056 703 1054 q 799 1055 776 1056 q 844 1049 822 1054 q 903 1014 881 1039 q 908 964 925 988 q 861 951 893 939 q 825 958 843 958 q 788 956 807 957 q 714 942 750 950 q 642 926 678 933 q 624 906 624 922 q 626 742 628 825 q 628 578 625 660 q 632 559 629 561 q 650 560 635 557 q 701 564 675 564 q 753 565 728 564 q 792 565 772 565 q 829 564 811 565 q 869 535 863 564 q 844 493 872 508 q 802 480 824 483 q 758 472 781 476 q 705 463 732 467 q 650 456 678 458 q 633 432 633 453 q 646 320 639 376 q 665 210 653 264 q 677 172 672 175 q 715 189 682 168 q 785 242 753 213 q 846 307 818 272 q 875 332 860 325 m 486 328 q 497 444 497 386 q 490 561 497 501 q 475 645 485 604 q 453 726 465 686 q 428 813 442 771 q 394 894 414 854 q 375 932 385 914 q 350 964 365 950 q 336 968 342 972 q 317 961 326 957 q 300 969 308 965 q 292 961 294 967 q 286 951 289 956 q 271 917 278 933 q 257 885 264 901 q 205 708 221 799 q 183 526 189 618 q 185 442 182 483 q 194 356 189 400 q 208 275 199 315 q 233 197 217 235 q 265 139 247 164 q 374 118 311 82 q 418 157 400 133 q 450 207 436 181 q 472 267 463 238 q 486 328 481 297 z "},"P":{"ha":621,"x_min":35,"x_max":613,"o":"m 611 826 q 601 729 613 776 q 571 636 590 682 q 485 497 539 558 q 365 385 432 435 q 292 336 329 358 q 215 299 256 314 q 203 278 203 294 q 202 206 203 233 q 201 150 201 178 q 200 78 200 122 q 205 53 203 65 q 204 28 207 40 q 171 -19 204 -17 q 141 -10 156 -21 q 121 18 126 0 q 108 69 114 43 q 99 119 103 94 q 90 168 93 153 q 83 199 86 183 q 78 247 81 215 l 78 264 q 77 290 79 278 q 65 314 75 301 q 71 374 35 346 q 78 383 78 379 q 79 393 79 388 q 83 553 83 475 q 89 674 86 614 q 94 794 92 735 q 103 873 96 835 q 115 949 110 911 q 118 958 117 954 q 117 968 119 963 q 126 1011 114 993 q 154 1043 138 1029 q 311 1111 222 1099 q 366 1113 339 1117 q 419 1097 393 1108 q 611 872 579 1042 q 612 850 613 861 q 611 826 611 839 m 215 719 q 210 610 213 656 q 207 522 208 564 q 207 482 207 501 q 204 443 207 463 q 205 435 204 440 q 208 428 206 431 q 217 429 214 426 q 224 435 221 432 q 262 463 243 449 q 299 490 281 476 q 357 540 331 513 q 407 597 383 567 q 451 672 433 632 q 479 756 469 713 q 490 819 490 789 q 488 856 490 839 q 478 890 485 874 q 419 962 458 936 q 332 989 381 988 q 233 960 283 990 q 221 935 219 950 l 221 897 q 220 798 224 846 q 215 719 217 750 z "},"Þ":{"ha":540,"x_min":51,"x_max":493,"o":"m 178 872 q 256 889 217 886 q 332 881 294 892 q 440 801 400 858 q 486 672 481 740 q 471 501 493 583 q 392 349 449 419 q 207 182 311 249 q 183 139 182 169 q 188 78 189 108 q 192 18 188 47 q 192 7 192 13 q 190 -3 192 1 q 163 -31 183 -26 q 132 -14 142 -31 q 119 22 121 6 q 103 136 108 79 q 99 151 101 144 q 86 161 96 157 q 69 185 72 167 q 79 218 63 207 q 90 243 93 225 q 79 356 85 300 q 67 465 74 411 q 58 568 61 518 q 53 668 54 618 q 52 690 51 679 q 53 710 53 700 q 52 808 53 758 q 53 906 51 857 q 57 979 54 943 q 63 1053 60 1015 q 69 1081 63 1067 q 97 1110 79 1100 q 133 1115 114 1121 q 165 1095 153 1111 q 175 1057 178 1079 q 174 981 174 1019 q 175 906 175 943 q 176 890 175 897 q 178 872 176 882 m 178 274 q 215 306 200 289 q 246 340 231 324 q 353 518 317 418 q 371 665 381 592 q 339 738 365 713 q 277 766 313 763 q 204 753 242 769 q 175 707 175 739 q 177 529 178 618 q 178 351 176 440 l 178 274 z "},"Q":{"ha":750,"x_min":49,"x_max":704,"o":"m 507 151 q 476 118 492 133 q 442 90 460 103 q 389 59 417 72 q 329 43 361 46 q 183 94 247 38 q 107 206 135 140 q 60 373 71 288 q 54 547 49 458 q 75 674 60 613 q 113 797 90 736 q 159 890 132 846 q 224 969 186 935 q 274 1008 247 993 q 336 1019 301 1022 q 354 1026 343 1018 q 450 1051 403 1056 q 544 1019 497 1047 q 592 977 572 1003 q 628 922 613 951 q 660 844 647 885 q 678 760 672 804 q 687 624 689 692 q 669 486 685 556 q 635 377 657 431 q 586 272 614 324 q 573 238 572 246 q 594 206 574 229 q 633 160 614 182 q 674 115 653 138 q 683 101 678 108 q 694 86 689 94 q 690 49 704 65 q 654 40 676 33 q 639 48 647 43 q 624 57 631 53 q 577 91 600 72 q 532 128 554 110 q 520 140 526 135 q 507 151 514 146 m 482 340 q 485 344 483 343 q 488 349 486 346 q 500 374 494 361 q 511 399 506 386 q 552 580 543 489 q 546 764 561 671 q 538 801 543 783 q 525 836 533 819 q 504 877 515 857 q 474 910 493 897 q 446 919 460 919 q 417 918 432 919 q 399 910 404 918 q 388 894 394 903 q 336 878 368 863 q 304 869 317 889 q 290 849 297 860 q 244 764 263 808 q 211 672 225 719 q 186 550 193 611 q 183 426 179 489 q 200 333 189 378 q 233 243 211 288 q 251 215 242 229 q 275 189 261 200 q 346 182 308 163 q 364 195 356 189 q 379 210 372 201 q 407 240 407 232 q 383 272 407 247 q 350 304 367 288 q 321 339 333 321 q 310 376 308 356 q 324 411 311 397 q 390 419 351 439 q 417 401 406 413 q 442 376 429 389 q 460 358 451 367 q 482 340 469 349 z "},"R":{"ha":708,"x_min":51,"x_max":700,"o":"m 317 336 q 351 324 335 331 q 382 314 367 318 q 468 279 426 299 q 549 236 510 260 q 603 203 576 221 q 654 168 629 185 q 672 152 664 160 q 686 135 681 144 q 698 103 696 119 q 690 72 700 88 q 663 53 678 57 q 628 51 647 49 q 608 58 618 54 q 588 68 597 63 q 518 116 553 93 q 444 157 483 139 q 329 206 389 185 q 208 239 269 228 q 199 240 204 239 q 190 239 194 240 q 190 201 190 221 q 192 161 190 181 q 196 101 194 132 q 199 40 197 71 q 195 13 200 22 q 179 -1 190 4 q 132 18 150 -10 q 112 60 118 38 q 103 106 106 82 q 87 203 93 154 q 74 301 81 253 q 62 410 65 356 q 57 519 58 465 q 53 677 54 597 q 53 836 51 757 q 56 892 53 864 q 61 947 58 919 q 72 982 63 967 q 103 1003 82 997 q 110 1007 107 1006 q 115 1011 114 1008 q 210 1073 160 1051 q 317 1107 261 1094 q 462 1097 392 1125 q 575 1003 532 1068 q 609 924 599 965 q 617 839 619 883 q 603 737 617 786 q 567 640 589 688 q 468 488 526 556 q 340 360 410 419 q 328 350 335 354 q 317 336 322 346 m 182 397 q 197 401 192 397 q 207 407 201 404 q 278 462 244 432 q 342 524 313 492 q 406 602 376 561 q 457 689 435 643 q 491 780 479 733 q 496 876 503 826 q 469 947 492 911 q 396 993 446 983 q 359 997 378 996 q 324 993 340 997 q 251 972 286 985 q 183 940 217 958 q 167 914 167 929 q 169 862 169 888 q 169 811 169 836 q 172 663 169 736 q 175 515 174 589 q 179 456 178 486 q 182 397 181 426 z "},"Ŕ":{"ha":708,"x_min":51,"x_max":700,"o":"m 317 336 q 351 324 335 331 q 382 314 367 318 q 468 279 426 299 q 549 236 510 260 q 603 203 576 221 q 654 168 629 185 q 672 152 664 160 q 686 135 681 144 q 698 103 696 119 q 690 72 700 88 q 663 53 678 57 q 628 51 647 49 q 608 58 618 54 q 588 68 597 63 q 518 116 553 93 q 444 157 483 139 q 329 206 389 185 q 208 239 269 228 q 199 240 204 239 q 190 239 194 240 q 190 201 190 221 q 192 161 190 181 q 196 101 194 132 q 199 40 197 71 q 195 13 200 22 q 179 -1 190 4 q 132 18 150 -10 q 112 60 118 38 q 103 106 106 82 q 87 203 93 154 q 74 301 81 253 q 62 410 65 356 q 57 519 58 465 q 53 677 54 597 q 53 836 51 757 q 56 892 53 864 q 61 947 58 919 q 72 982 63 967 q 103 1003 82 997 q 110 1007 107 1006 q 115 1011 114 1008 q 210 1073 160 1051 q 317 1107 261 1094 q 462 1097 392 1125 q 575 1003 532 1068 q 609 924 599 965 q 617 839 619 883 q 603 737 617 786 q 567 640 589 688 q 468 488 526 556 q 340 360 410 419 q 328 350 335 354 q 317 336 322 346 m 182 397 q 197 401 192 397 q 207 407 201 404 q 278 462 244 432 q 342 524 313 492 q 406 602 376 561 q 457 689 435 643 q 491 780 479 733 q 496 876 503 826 q 469 947 492 911 q 396 993 446 983 q 359 997 378 996 q 324 993 340 997 q 251 972 286 985 q 183 940 217 958 q 167 914 167 929 q 169 862 169 888 q 169 811 169 836 q 172 663 169 736 q 175 515 174 589 q 179 456 178 486 q 182 397 181 426 m 317 1175 q 293 1187 301 1175 q 288 1213 285 1199 q 290 1217 289 1215 q 292 1222 292 1219 q 353 1315 319 1271 q 426 1397 386 1358 q 439 1406 433 1404 q 456 1406 449 1411 q 464 1392 464 1401 q 461 1382 463 1386 q 458 1372 460 1378 q 411 1285 435 1329 q 356 1201 388 1242 q 339 1184 349 1192 q 317 1175 329 1176 z "},"Ř":{"ha":708,"x_min":51,"x_max":700,"o":"m 317 336 q 351 324 335 331 q 382 314 367 318 q 468 279 426 299 q 549 236 510 260 q 603 203 576 221 q 654 168 629 185 q 672 152 664 160 q 686 135 681 144 q 698 103 696 119 q 690 72 700 88 q 663 53 678 57 q 628 51 647 49 q 608 58 618 54 q 588 68 597 63 q 518 116 553 93 q 444 157 483 139 q 329 206 389 185 q 208 239 269 228 q 199 240 204 239 q 190 239 194 240 q 190 201 190 221 q 192 161 190 181 q 196 101 194 132 q 199 40 197 71 q 195 13 200 22 q 179 -1 190 4 q 132 18 150 -10 q 112 60 118 38 q 103 106 106 82 q 87 203 93 154 q 74 301 81 253 q 62 410 65 356 q 57 519 58 465 q 53 677 54 597 q 53 836 51 757 q 56 892 53 864 q 61 947 58 919 q 72 982 63 967 q 103 1003 82 997 q 110 1007 107 1006 q 115 1011 114 1008 q 210 1073 160 1051 q 317 1107 261 1094 q 462 1097 392 1125 q 575 1003 532 1068 q 609 924 599 965 q 617 839 619 883 q 603 737 617 786 q 567 640 589 688 q 468 488 526 556 q 340 360 410 419 q 328 350 335 354 q 317 336 322 346 m 182 397 q 197 401 192 397 q 207 407 201 404 q 278 462 244 432 q 342 524 313 492 q 406 602 376 561 q 457 689 435 643 q 491 780 479 733 q 496 876 503 826 q 469 947 492 911 q 396 993 446 983 q 359 997 378 996 q 324 993 340 997 q 251 972 286 985 q 183 940 217 958 q 167 914 167 929 q 169 862 169 888 q 169 811 169 836 q 172 663 169 736 q 175 515 174 589 q 179 456 178 486 q 182 397 181 426 m 375 1303 q 390 1331 385 1318 q 400 1356 396 1343 q 428 1405 410 1383 q 467 1449 447 1426 q 483 1453 475 1457 q 494 1436 494 1450 q 492 1424 494 1428 q 467 1348 476 1386 q 442 1272 457 1310 q 432 1247 438 1260 q 417 1222 426 1233 q 367 1198 394 1196 q 325 1231 340 1200 q 297 1303 310 1267 q 274 1376 285 1339 q 269 1392 272 1383 q 265 1407 267 1400 q 262 1424 263 1415 q 261 1440 261 1433 q 290 1472 264 1467 q 321 1451 310 1475 q 339 1406 331 1429 q 354 1360 347 1383 q 365 1333 361 1347 q 375 1303 369 1318 z "},"Ŗ":{"ha":708,"x_min":51,"x_max":700,"o":"m 317 336 q 351 324 335 331 q 382 314 367 318 q 468 279 426 299 q 549 236 510 260 q 603 203 576 221 q 654 168 629 185 q 672 152 664 160 q 686 135 681 144 q 698 103 696 119 q 690 72 700 88 q 663 53 678 57 q 628 51 647 49 q 608 58 618 54 q 588 68 597 63 q 518 116 553 93 q 444 157 483 139 q 329 206 389 185 q 208 239 269 228 q 199 240 204 239 q 190 239 194 240 q 190 201 190 221 q 192 161 190 181 q 196 101 194 132 q 199 40 197 71 q 195 13 200 22 q 179 -1 190 4 q 132 18 150 -10 q 112 60 118 38 q 103 106 106 82 q 87 203 93 154 q 74 301 81 253 q 62 410 65 356 q 57 519 58 465 q 53 677 54 597 q 53 836 51 757 q 56 892 53 864 q 61 947 58 919 q 72 982 63 967 q 103 1003 82 997 q 110 1007 107 1006 q 115 1011 114 1008 q 210 1073 160 1051 q 317 1107 261 1094 q 462 1097 392 1125 q 575 1003 532 1068 q 609 924 599 965 q 617 839 619 883 q 603 737 617 786 q 567 640 589 688 q 468 488 526 556 q 340 360 410 419 q 328 350 335 354 q 317 336 322 346 m 182 397 q 197 401 192 397 q 207 407 201 404 q 278 462 244 432 q 342 524 313 492 q 406 602 376 561 q 457 689 435 643 q 491 780 479 733 q 496 876 503 826 q 469 947 492 911 q 396 993 446 983 q 359 997 378 996 q 324 993 340 997 q 251 972 286 985 q 183 940 217 958 q 167 914 167 929 q 169 862 169 888 q 169 811 169 836 q 172 663 169 736 q 175 515 174 589 q 179 456 178 486 q 182 397 181 426 m 229 -210 q 206 -197 214 -208 q 200 -172 197 -186 q 203 -167 201 -169 q 204 -162 204 -165 q 265 -70 232 -114 q 339 13 299 -26 q 351 21 346 19 q 369 22 361 26 q 376 7 376 17 q 374 -3 375 1 q 371 -12 374 -7 q 324 -99 347 -56 q 268 -183 300 -143 q 251 -201 261 -193 q 229 -210 242 -208 z "},"S":{"ha":650,"x_min":50,"x_max":643,"o":"m 165 749 q 304 490 167 582 q 374 451 338 468 q 446 419 411 435 q 515 388 481 406 q 579 347 550 371 q 607 322 594 336 q 628 290 619 308 q 640 224 643 256 q 617 160 636 192 q 574 106 600 129 q 519 61 549 82 q 438 19 481 36 q 349 1 396 3 q 263 15 303 -3 q 216 68 228 35 q 219 136 204 101 q 239 168 226 154 q 265 194 251 182 q 311 199 292 218 q 319 153 332 183 q 315 143 318 149 q 308 132 311 138 q 306 119 304 122 q 319 115 308 115 q 400 128 363 114 q 458 157 431 140 q 507 199 485 174 q 526 235 526 222 q 499 265 525 249 q 448 295 475 283 q 394 319 421 307 q 314 356 354 338 q 238 399 274 374 q 153 472 190 431 q 90 565 115 513 q 53 710 60 632 q 57 818 50 764 q 86 924 64 872 q 138 1015 106 974 q 217 1082 169 1056 q 335 1114 269 1114 q 463 1053 400 1114 q 548 947 515 1006 q 599 819 581 888 q 603 785 603 803 q 603 747 604 767 q 596 726 601 736 q 579 711 590 717 q 536 724 557 704 q 526 736 531 729 q 519 749 522 743 q 500 786 508 767 q 482 824 492 806 q 451 886 468 856 q 413 943 435 917 q 393 965 403 954 q 371 982 383 975 q 283 990 332 1014 q 251 968 267 981 q 225 939 236 956 q 187 872 200 908 q 169 794 174 835 q 166 770 168 782 q 165 749 164 758 z "},"Ś":{"ha":650,"x_min":50,"x_max":643,"o":"m 165 749 q 304 490 167 582 q 374 451 338 468 q 446 419 411 435 q 515 388 481 406 q 579 347 550 371 q 607 322 594 336 q 628 290 619 308 q 640 224 643 256 q 617 160 636 192 q 574 106 600 129 q 519 61 549 82 q 438 19 481 36 q 349 1 396 3 q 263 15 303 -3 q 216 68 228 35 q 219 136 204 101 q 239 168 226 154 q 265 194 251 182 q 311 199 292 218 q 319 153 332 183 q 315 143 318 149 q 308 132 311 138 q 306 119 304 122 q 319 115 308 115 q 400 128 363 114 q 458 157 431 140 q 507 199 485 174 q 526 235 526 222 q 499 265 525 249 q 448 295 475 283 q 394 319 421 307 q 314 356 354 338 q 238 399 274 374 q 153 472 190 431 q 90 565 115 513 q 53 710 60 632 q 57 818 50 764 q 86 924 64 872 q 138 1015 106 974 q 217 1082 169 1056 q 335 1114 269 1114 q 463 1053 400 1114 q 548 947 515 1006 q 599 819 581 888 q 603 785 603 803 q 603 747 604 767 q 596 726 601 736 q 579 711 590 717 q 536 724 557 704 q 526 736 531 729 q 519 749 522 743 q 500 786 508 767 q 482 824 492 806 q 451 886 468 856 q 413 943 435 917 q 393 965 403 954 q 371 982 383 975 q 283 990 332 1014 q 251 968 267 981 q 225 939 236 956 q 187 872 200 908 q 169 794 174 835 q 166 770 168 782 q 165 749 164 758 m 288 1160 q 264 1172 272 1160 q 258 1197 256 1183 q 261 1202 260 1200 q 263 1207 263 1204 q 324 1299 290 1256 q 397 1382 357 1343 q 410 1390 404 1389 q 427 1391 419 1396 q 435 1376 435 1386 q 432 1367 433 1371 q 429 1357 431 1363 q 382 1270 406 1314 q 326 1186 358 1226 q 310 1169 319 1176 q 288 1160 300 1161 z "},"Š":{"ha":650,"x_min":50,"x_max":643,"o":"m 165 749 q 304 490 167 582 q 374 451 338 468 q 446 419 411 435 q 515 388 481 406 q 579 347 550 371 q 607 322 594 336 q 628 290 619 308 q 640 224 643 256 q 617 160 636 192 q 574 106 600 129 q 519 61 549 82 q 438 19 481 36 q 349 1 396 3 q 263 15 303 -3 q 216 68 228 35 q 219 136 204 101 q 239 168 226 154 q 265 194 251 182 q 311 199 292 218 q 319 153 332 183 q 315 143 318 149 q 308 132 311 138 q 306 119 304 122 q 319 115 308 115 q 400 128 363 114 q 458 157 431 140 q 507 199 485 174 q 526 235 526 222 q 499 265 525 249 q 448 295 475 283 q 394 319 421 307 q 314 356 354 338 q 238 399 274 374 q 153 472 190 431 q 90 565 115 513 q 53 710 60 632 q 57 818 50 764 q 86 924 64 872 q 138 1015 106 974 q 217 1082 169 1056 q 335 1114 269 1114 q 463 1053 400 1114 q 548 947 515 1006 q 599 819 581 888 q 603 785 603 803 q 603 747 604 767 q 596 726 601 736 q 579 711 590 717 q 536 724 557 704 q 526 736 531 729 q 519 749 522 743 q 500 786 508 767 q 482 824 492 806 q 451 886 468 856 q 413 943 435 917 q 393 965 403 954 q 371 982 383 975 q 283 990 332 1014 q 251 968 267 981 q 225 939 236 956 q 187 872 200 908 q 169 794 174 835 q 166 770 168 782 q 165 749 164 758 m 346 1288 q 361 1315 356 1303 q 371 1340 367 1328 q 399 1390 381 1368 q 438 1433 418 1411 q 454 1438 446 1442 q 465 1421 465 1435 q 463 1408 465 1413 q 438 1333 447 1371 q 413 1257 428 1294 q 403 1231 408 1244 q 388 1207 397 1218 q 338 1183 365 1181 q 296 1215 311 1185 q 268 1288 281 1251 q 244 1361 256 1324 q 240 1376 243 1368 q 236 1392 238 1385 q 233 1409 233 1400 q 232 1425 232 1418 q 261 1457 235 1451 q 292 1436 281 1460 q 310 1391 301 1414 q 325 1344 318 1368 q 336 1317 332 1332 q 346 1288 340 1303 z "},"Ş":{"ha":650,"x_min":50,"x_max":643,"o":"m 165 749 q 304 490 167 582 q 374 451 338 468 q 446 419 411 435 q 515 388 481 406 q 579 347 550 371 q 607 322 594 336 q 628 290 619 308 q 640 224 643 256 q 617 160 636 192 q 574 106 600 129 q 519 61 549 82 q 438 19 481 36 q 349 1 396 3 q 263 15 303 -3 q 216 68 228 35 q 219 136 204 101 q 239 168 226 154 q 265 194 251 182 q 311 199 292 218 q 319 153 332 183 q 315 143 318 149 q 308 132 311 138 q 306 119 304 122 q 319 115 308 115 q 400 128 363 114 q 458 157 431 140 q 507 199 485 174 q 526 235 526 222 q 499 265 525 249 q 448 295 475 283 q 394 319 421 307 q 314 356 354 338 q 238 399 274 374 q 153 472 190 431 q 90 565 115 513 q 53 710 60 632 q 57 818 50 764 q 86 924 64 872 q 138 1015 106 974 q 217 1082 169 1056 q 335 1114 269 1114 q 463 1053 400 1114 q 548 947 515 1006 q 599 819 581 888 q 603 785 603 803 q 603 747 604 767 q 596 726 601 736 q 579 711 590 717 q 536 724 557 704 q 526 736 531 729 q 519 749 522 743 q 500 786 508 767 q 482 824 492 806 q 451 886 468 856 q 413 943 435 917 q 393 965 403 954 q 371 982 383 975 q 283 990 332 1014 q 251 968 267 981 q 225 939 236 956 q 187 872 200 908 q 169 794 174 835 q 166 770 168 782 q 165 749 164 758 m 353 -197 q 333 -194 343 -194 q 311 -193 322 -194 q 288 -181 297 -189 q 278 -149 274 -167 q 303 -128 283 -132 q 375 -93 346 -119 q 371 -68 393 -75 q 356 -64 365 -65 q 340 -61 347 -62 q 315 -49 326 -57 q 299 -24 303 -42 q 319 35 293 8 q 344 44 332 47 q 363 24 357 42 q 372 6 365 11 q 390 -1 379 1 q 479 -72 446 -15 q 483 -126 492 -94 q 450 -174 474 -158 q 353 -197 415 -197 z "},"Ș":{"ha":650,"x_min":50,"x_max":643,"o":"m 165 749 q 304 490 167 582 q 374 451 338 468 q 446 419 411 435 q 515 388 481 406 q 579 347 550 371 q 607 322 594 336 q 628 290 619 308 q 640 224 643 256 q 617 160 636 192 q 574 106 600 129 q 519 61 549 82 q 438 19 481 36 q 349 1 396 3 q 263 15 303 -3 q 216 68 228 35 q 219 136 204 101 q 239 168 226 154 q 265 194 251 182 q 311 199 292 218 q 319 153 332 183 q 315 143 318 149 q 308 132 311 138 q 306 119 304 122 q 319 115 308 115 q 400 128 363 114 q 458 157 431 140 q 507 199 485 174 q 526 235 526 222 q 499 265 525 249 q 448 295 475 283 q 394 319 421 307 q 314 356 354 338 q 238 399 274 374 q 153 472 190 431 q 90 565 115 513 q 53 710 60 632 q 57 818 50 764 q 86 924 64 872 q 138 1015 106 974 q 217 1082 169 1056 q 335 1114 269 1114 q 463 1053 400 1114 q 548 947 515 1006 q 599 819 581 888 q 603 785 603 803 q 603 747 604 767 q 596 726 601 736 q 579 711 590 717 q 536 724 557 704 q 526 736 531 729 q 519 749 522 743 q 500 786 508 767 q 482 824 492 806 q 451 886 468 856 q 413 943 435 917 q 393 965 403 954 q 371 982 383 975 q 283 990 332 1014 q 251 968 267 981 q 225 939 236 956 q 187 872 200 908 q 169 794 174 835 q 166 770 168 782 q 165 749 164 758 m 253 -260 q 229 -247 238 -258 q 224 -222 221 -236 q 226 -217 225 -219 q 228 -212 228 -215 q 289 -120 256 -164 q 363 -37 322 -76 q 375 -29 369 -31 q 392 -28 385 -24 q 400 -43 400 -33 q 398 -53 399 -49 q 394 -62 397 -57 q 347 -149 371 -106 q 292 -233 324 -193 q 275 -251 285 -243 q 253 -260 265 -258 z "},"ẞ":{"ha":546,"x_min":51,"x_max":496,"o":"m 374 551 q 403 541 389 549 q 429 526 417 533 q 481 455 469 500 q 475 369 493 410 q 453 330 465 347 q 425 294 440 313 q 357 234 393 263 q 283 182 321 206 q 248 165 261 168 q 207 160 235 161 q 211 119 208 139 q 217 81 214 100 q 218 69 217 75 q 219 60 219 64 q 194 11 221 24 q 164 10 181 7 q 138 24 147 14 q 119 53 128 39 q 103 85 110 67 q 84 160 92 122 q 69 236 76 199 q 55 397 58 317 q 54 557 51 478 q 69 703 60 631 q 96 844 78 775 q 121 925 107 885 q 154 1003 135 965 q 176 1039 164 1022 q 203 1069 188 1056 q 375 1090 282 1146 q 444 1028 418 1065 q 483 943 469 990 q 493 851 496 896 q 475 761 490 806 q 442 677 463 718 q 399 597 422 636 q 387 575 393 586 q 374 551 381 564 m 192 260 q 220 283 207 274 q 246 303 233 293 q 292 338 269 321 q 336 376 315 356 q 358 407 350 393 q 353 431 369 424 q 331 435 342 435 q 308 435 319 436 q 274 431 290 431 q 220 459 239 431 q 211 518 201 488 q 217 533 214 525 q 225 549 221 542 q 266 613 246 581 q 304 678 286 646 q 340 746 325 711 q 365 819 356 781 q 368 899 375 860 q 332 969 361 938 q 301 990 314 992 q 274 965 289 989 q 265 952 268 960 q 257 936 261 944 q 235 885 244 911 q 219 831 226 858 q 178 592 186 713 q 182 347 171 471 q 185 305 183 326 q 192 260 186 283 z "},"T":{"ha":678,"x_min":46,"x_max":861,"o":"m 483 743 q 491 618 489 681 q 499 493 493 556 q 503 413 501 453 q 508 332 506 372 q 515 215 511 272 q 524 99 518 157 q 528 78 525 89 q 532 57 531 68 q 529 36 533 47 q 515 18 525 25 q 471 22 494 4 q 444 61 453 36 q 425 120 432 89 q 413 182 418 151 q 390 358 399 269 q 378 536 382 447 q 374 601 376 568 q 369 664 371 633 q 365 881 365 772 q 367 927 365 904 q 371 972 368 950 q 372 990 374 986 q 357 993 369 993 q 246 989 301 992 q 138 978 190 986 q 117 976 128 976 q 96 976 107 975 q 54 1014 65 983 q 78 1068 46 1047 q 113 1082 92 1079 q 228 1103 171 1097 q 346 1111 286 1110 q 446 1108 396 1111 q 546 1101 496 1106 q 667 1088 607 1096 q 786 1060 728 1079 q 805 1053 796 1057 q 824 1044 814 1050 q 854 994 861 1029 q 808 961 847 961 q 728 963 768 961 q 649 969 689 964 q 575 978 613 975 q 500 986 538 982 q 485 985 488 989 q 483 969 483 982 q 482 913 481 942 q 483 856 483 883 l 483 743 z "},"Ť":{"ha":678,"x_min":46,"x_max":861,"o":"m 483 743 q 491 618 489 681 q 499 493 493 556 q 503 413 501 453 q 508 332 506 372 q 515 215 511 272 q 524 99 518 157 q 528 78 525 89 q 532 57 531 68 q 529 36 533 47 q 515 18 525 25 q 471 22 494 4 q 444 61 453 36 q 425 120 432 89 q 413 182 418 151 q 390 358 399 269 q 378 536 382 447 q 374 601 376 568 q 369 664 371 633 q 365 881 365 772 q 367 927 365 904 q 371 972 368 950 q 372 990 374 986 q 357 993 369 993 q 246 989 301 992 q 138 978 190 986 q 117 976 128 976 q 96 976 107 975 q 54 1014 65 983 q 78 1068 46 1047 q 113 1082 92 1079 q 228 1103 171 1097 q 346 1111 286 1110 q 446 1108 396 1111 q 546 1101 496 1106 q 667 1088 607 1096 q 786 1060 728 1079 q 805 1053 796 1057 q 824 1044 814 1050 q 854 994 861 1029 q 808 961 847 961 q 728 963 768 961 q 649 969 689 964 q 575 978 613 975 q 500 986 538 982 q 485 985 488 989 q 483 969 483 982 q 482 913 481 942 q 483 856 483 883 l 483 743 m 442 1283 q 457 1311 451 1299 q 467 1336 463 1324 q 495 1385 476 1364 q 533 1429 514 1407 q 550 1433 542 1438 q 561 1417 561 1431 q 558 1404 561 1408 q 533 1328 543 1367 q 508 1253 524 1290 q 499 1227 504 1240 q 483 1203 493 1214 q 434 1178 461 1176 q 392 1211 407 1181 q 364 1283 376 1247 q 340 1357 351 1319 q 336 1372 339 1364 q 332 1388 333 1381 q 328 1405 329 1396 q 328 1421 328 1414 q 357 1453 331 1447 q 388 1432 376 1456 q 406 1387 397 1410 q 421 1340 414 1364 q 432 1313 428 1328 q 442 1283 436 1299 z "},"Ţ":{"ha":678,"x_min":46,"x_max":861,"o":"m 483 743 q 491 618 489 681 q 499 493 493 556 q 503 413 501 453 q 508 332 506 372 q 515 215 511 272 q 524 99 518 157 q 528 78 525 89 q 532 57 531 68 q 529 36 533 47 q 515 18 525 25 q 471 22 494 4 q 444 61 453 36 q 425 120 432 89 q 413 182 418 151 q 390 358 399 269 q 378 536 382 447 q 374 601 376 568 q 369 664 371 633 q 365 881 365 772 q 367 927 365 904 q 371 972 368 950 q 372 990 374 986 q 357 993 369 993 q 246 989 301 992 q 138 978 190 986 q 117 976 128 976 q 96 976 107 975 q 54 1014 65 983 q 78 1068 46 1047 q 113 1082 92 1079 q 228 1103 171 1097 q 346 1111 286 1110 q 446 1108 396 1111 q 546 1101 496 1106 q 667 1088 607 1096 q 786 1060 728 1079 q 805 1053 796 1057 q 824 1044 814 1050 q 854 994 861 1029 q 808 961 847 961 q 728 963 768 961 q 649 969 689 964 q 575 978 613 975 q 500 986 538 982 q 485 985 488 989 q 483 969 483 982 q 482 913 481 942 q 483 856 483 883 l 483 743 m 496 -190 q 476 -187 486 -187 q 454 -186 465 -187 q 431 -174 440 -182 q 421 -142 417 -160 q 446 -121 426 -125 q 518 -86 489 -112 q 514 -61 536 -68 q 499 -57 508 -58 q 483 -54 490 -56 q 458 -42 469 -50 q 442 -17 446 -35 q 463 42 436 15 q 488 51 475 54 q 506 31 500 49 q 515 13 508 18 q 533 6 522 8 q 622 -65 589 -8 q 626 -119 635 -87 q 593 -167 617 -151 q 496 -190 558 -190 z "},"Ț":{"ha":678,"x_min":46,"x_max":861,"o":"m 483 743 q 491 618 489 681 q 499 493 493 556 q 503 413 501 453 q 508 332 506 372 q 515 215 511 272 q 524 99 518 157 q 528 78 525 89 q 532 57 531 68 q 529 36 533 47 q 515 18 525 25 q 471 22 494 4 q 444 61 453 36 q 425 120 432 89 q 413 182 418 151 q 390 358 399 269 q 378 536 382 447 q 374 601 376 568 q 369 664 371 633 q 365 881 365 772 q 367 927 365 904 q 371 972 368 950 q 372 990 374 986 q 357 993 369 993 q 246 989 301 992 q 138 978 190 986 q 117 976 128 976 q 96 976 107 975 q 54 1014 65 983 q 78 1068 46 1047 q 113 1082 92 1079 q 228 1103 171 1097 q 346 1111 286 1110 q 446 1108 396 1111 q 546 1101 496 1106 q 667 1088 607 1096 q 786 1060 728 1079 q 805 1053 796 1057 q 824 1044 814 1050 q 854 994 861 1029 q 808 961 847 961 q 728 963 768 961 q 649 969 689 964 q 575 978 613 975 q 500 986 538 982 q 485 985 488 989 q 483 969 483 982 q 482 913 481 942 q 483 856 483 883 l 483 743 m 396 -253 q 372 -240 381 -251 q 367 -215 364 -229 q 369 -210 368 -212 q 371 -206 371 -208 q 432 -113 399 -157 q 506 -31 465 -69 q 518 -22 513 -24 q 535 -22 528 -17 q 543 -36 543 -26 q 541 -46 542 -42 q 538 -56 540 -50 q 490 -142 514 -99 q 435 -226 467 -186 q 418 -244 428 -236 q 396 -253 408 -251 z "},"U":{"ha":833,"x_min":53,"x_max":782,"o":"m 53 757 q 55 862 53 814 q 65 957 57 910 q 81 1019 72 989 q 107 1078 89 1050 q 138 1115 119 1101 q 161 1124 149 1122 q 183 1118 174 1125 q 200 1101 196 1113 q 204 1078 204 1090 q 198 1010 201 1043 q 192 943 194 978 q 185 837 189 890 q 183 731 182 783 q 196 580 186 654 q 225 432 206 506 q 249 358 235 394 q 282 286 264 321 q 311 240 294 261 q 346 199 328 218 q 361 186 353 189 q 421 185 390 163 q 458 216 442 199 q 488 253 474 233 q 588 439 547 338 q 633 572 615 504 q 661 710 651 639 q 669 788 668 749 q 674 865 671 826 q 678 956 676 911 q 674 1047 681 1001 q 679 1076 674 1061 q 715 1106 689 1104 q 757 1090 742 1108 q 774 1066 768 1081 q 782 1036 779 1051 l 782 1026 q 778 801 782 914 q 750 576 775 688 q 732 503 743 539 q 708 432 721 468 q 667 320 692 375 q 613 214 643 265 q 572 155 594 183 q 524 101 550 126 q 448 53 489 68 q 358 44 407 38 q 303 68 325 51 q 242 117 268 88 q 194 181 217 146 q 129 306 156 240 q 88 443 103 372 q 61 605 69 525 q 53 757 53 685 z "},"Ú":{"ha":833,"x_min":53,"x_max":782,"o":"m 53 757 q 55 862 53 814 q 65 957 57 910 q 81 1019 72 989 q 107 1078 89 1050 q 138 1115 119 1101 q 161 1124 149 1122 q 183 1118 174 1125 q 200 1101 196 1113 q 204 1078 204 1090 q 198 1010 201 1043 q 192 943 194 978 q 185 837 189 890 q 183 731 182 783 q 196 580 186 654 q 225 432 206 506 q 249 358 235 394 q 282 286 264 321 q 311 240 294 261 q 346 199 328 218 q 361 186 353 189 q 421 185 390 163 q 458 216 442 199 q 488 253 474 233 q 588 439 547 338 q 633 572 615 504 q 661 710 651 639 q 669 788 668 749 q 674 865 671 826 q 678 956 676 911 q 674 1047 681 1001 q 679 1076 674 1061 q 715 1106 689 1104 q 757 1090 742 1108 q 774 1066 768 1081 q 782 1036 779 1051 l 782 1026 q 778 801 782 914 q 750 576 775 688 q 732 503 743 539 q 708 432 721 468 q 667 320 692 375 q 613 214 643 265 q 572 155 594 183 q 524 101 550 126 q 448 53 489 68 q 358 44 407 38 q 303 68 325 51 q 242 117 268 88 q 194 181 217 146 q 129 306 156 240 q 88 443 103 372 q 61 605 69 525 q 53 757 53 685 m 386 1121 q 363 1133 371 1121 q 357 1158 354 1144 q 360 1163 358 1161 q 361 1168 361 1165 q 422 1260 389 1217 q 496 1343 456 1304 q 508 1351 503 1350 q 526 1352 518 1357 q 533 1338 533 1347 q 531 1328 532 1332 q 528 1318 529 1324 q 481 1231 504 1275 q 425 1147 457 1188 q 408 1130 418 1138 q 386 1121 399 1122 z "},"Ŭ":{"ha":833,"x_min":53,"x_max":782,"o":"m 53 757 q 55 862 53 814 q 65 957 57 910 q 81 1019 72 989 q 107 1078 89 1050 q 138 1115 119 1101 q 161 1124 149 1122 q 183 1118 174 1125 q 200 1101 196 1113 q 204 1078 204 1090 q 198 1010 201 1043 q 192 943 194 978 q 185 837 189 890 q 183 731 182 783 q 196 580 186 654 q 225 432 206 506 q 249 358 235 394 q 282 286 264 321 q 311 240 294 261 q 346 199 328 218 q 361 186 353 189 q 421 185 390 163 q 458 216 442 199 q 488 253 474 233 q 588 439 547 338 q 633 572 615 504 q 661 710 651 639 q 669 788 668 749 q 674 865 671 826 q 678 956 676 911 q 674 1047 681 1001 q 679 1076 674 1061 q 715 1106 689 1104 q 757 1090 742 1108 q 774 1066 768 1081 q 782 1036 779 1051 l 782 1026 q 778 801 782 914 q 750 576 775 688 q 732 503 743 539 q 708 432 721 468 q 667 320 692 375 q 613 214 643 265 q 572 155 594 183 q 524 101 550 126 q 448 53 489 68 q 358 44 407 38 q 303 68 325 51 q 242 117 268 88 q 194 181 217 146 q 129 306 156 240 q 88 443 103 372 q 61 605 69 525 q 53 757 53 685 m 506 1311 q 510 1316 508 1314 q 518 1315 513 1318 q 524 1303 524 1314 q 522 1280 524 1301 q 515 1231 521 1258 q 492 1184 508 1204 q 443 1164 475 1164 q 401 1185 417 1164 q 376 1233 385 1206 q 363 1282 367 1260 q 360 1307 360 1304 q 369 1324 361 1317 q 382 1332 376 1331 q 406 1315 396 1336 q 409 1291 407 1310 q 419 1256 411 1272 q 444 1239 428 1239 q 481 1254 471 1239 q 496 1288 492 1269 q 506 1311 500 1306 z "},"Û":{"ha":833,"x_min":53,"x_max":782,"o":"m 53 757 q 55 862 53 814 q 65 957 57 910 q 81 1019 72 989 q 107 1078 89 1050 q 138 1115 119 1101 q 161 1124 149 1122 q 183 1118 174 1125 q 200 1101 196 1113 q 204 1078 204 1090 q 198 1010 201 1043 q 192 943 194 978 q 185 837 189 890 q 183 731 182 783 q 196 580 186 654 q 225 432 206 506 q 249 358 235 394 q 282 286 264 321 q 311 240 294 261 q 346 199 328 218 q 361 186 353 189 q 421 185 390 163 q 458 216 442 199 q 488 253 474 233 q 588 439 547 338 q 633 572 615 504 q 661 710 651 639 q 669 788 668 749 q 674 865 671 826 q 678 956 676 911 q 674 1047 681 1001 q 679 1076 674 1061 q 715 1106 689 1104 q 757 1090 742 1108 q 774 1066 768 1081 q 782 1036 779 1051 l 782 1026 q 778 801 782 914 q 750 576 775 688 q 732 503 743 539 q 708 432 721 468 q 667 320 692 375 q 613 214 643 265 q 572 155 594 183 q 524 101 550 126 q 448 53 489 68 q 358 44 407 38 q 303 68 325 51 q 242 117 268 88 q 194 181 217 146 q 129 306 156 240 q 88 443 103 372 q 61 605 69 525 q 53 757 53 685 m 438 1304 q 419 1271 425 1289 q 403 1235 413 1253 q 392 1214 397 1225 q 379 1192 386 1203 q 336 1168 365 1161 q 311 1210 311 1175 q 319 1239 314 1226 q 346 1314 332 1276 q 378 1388 360 1351 q 398 1416 385 1404 q 432 1429 411 1428 q 467 1419 451 1429 q 492 1392 482 1408 q 510 1355 503 1374 q 524 1317 518 1336 q 538 1244 531 1281 q 553 1172 544 1208 q 553 1167 553 1169 q 554 1163 554 1165 q 546 1142 558 1149 q 524 1142 535 1136 q 511 1156 515 1149 q 504 1171 507 1163 q 478 1228 492 1200 q 450 1285 465 1257 q 445 1296 447 1290 q 438 1304 443 1301 z "},"Ü":{"ha":833,"x_min":53,"x_max":782,"o":"m 53 757 q 55 862 53 814 q 65 957 57 910 q 81 1019 72 989 q 107 1078 89 1050 q 138 1115 119 1101 q 161 1124 149 1122 q 183 1118 174 1125 q 200 1101 196 1113 q 204 1078 204 1090 q 198 1010 201 1043 q 192 943 194 978 q 185 837 189 890 q 183 731 182 783 q 196 580 186 654 q 225 432 206 506 q 249 358 235 394 q 282 286 264 321 q 311 240 294 261 q 346 199 328 218 q 361 186 353 189 q 421 185 390 163 q 458 216 442 199 q 488 253 474 233 q 588 439 547 338 q 633 572 615 504 q 661 710 651 639 q 669 788 668 749 q 674 865 671 826 q 678 956 676 911 q 674 1047 681 1001 q 679 1076 674 1061 q 715 1106 689 1104 q 757 1090 742 1108 q 774 1066 768 1081 q 782 1036 779 1051 l 782 1026 q 778 801 782 914 q 750 576 775 688 q 732 503 743 539 q 708 432 721 468 q 667 320 692 375 q 613 214 643 265 q 572 155 594 183 q 524 101 550 126 q 448 53 489 68 q 358 44 407 38 q 303 68 325 51 q 242 117 268 88 q 194 181 217 146 q 129 306 156 240 q 88 443 103 372 q 61 605 69 525 q 53 757 53 685 m 557 1244 q 544 1216 557 1229 q 513 1203 531 1203 q 483 1218 496 1206 q 471 1249 471 1231 q 485 1278 474 1267 q 515 1290 497 1290 q 545 1277 532 1290 q 557 1244 558 1264 m 404 1210 q 378 1219 389 1210 q 365 1244 367 1229 q 400 1285 365 1281 q 427 1275 415 1286 q 440 1249 439 1264 q 430 1222 440 1233 q 404 1210 419 1211 z "},"Ù":{"ha":833,"x_min":53,"x_max":782,"o":"m 53 757 q 55 862 53 814 q 65 957 57 910 q 81 1019 72 989 q 107 1078 89 1050 q 138 1115 119 1101 q 161 1124 149 1122 q 183 1118 174 1125 q 200 1101 196 1113 q 204 1078 204 1090 q 198 1010 201 1043 q 192 943 194 978 q 185 837 189 890 q 183 731 182 783 q 196 580 186 654 q 225 432 206 506 q 249 358 235 394 q 282 286 264 321 q 311 240 294 261 q 346 199 328 218 q 361 186 353 189 q 421 185 390 163 q 458 216 442 199 q 488 253 474 233 q 588 439 547 338 q 633 572 615 504 q 661 710 651 639 q 669 788 668 749 q 674 865 671 826 q 678 956 676 911 q 674 1047 681 1001 q 679 1076 674 1061 q 715 1106 689 1104 q 757 1090 742 1108 q 774 1066 768 1081 q 782 1036 779 1051 l 782 1026 q 778 801 782 914 q 750 576 775 688 q 732 503 743 539 q 708 432 721 468 q 667 320 692 375 q 613 214 643 265 q 572 155 594 183 q 524 101 550 126 q 448 53 489 68 q 358 44 407 38 q 303 68 325 51 q 242 117 268 88 q 194 181 217 146 q 129 306 156 240 q 88 443 103 372 q 61 605 69 525 q 53 757 53 685 m 381 1318 q 394 1350 381 1340 q 426 1350 408 1360 q 435 1342 431 1347 q 444 1333 440 1338 q 465 1303 457 1319 q 481 1271 472 1286 q 503 1215 492 1243 q 528 1160 515 1188 q 532 1153 531 1157 q 535 1147 533 1150 q 528 1126 536 1135 q 506 1122 521 1119 q 478 1146 489 1128 q 453 1183 465 1165 q 432 1218 442 1200 q 411 1249 422 1233 q 390 1283 400 1265 q 385 1302 388 1293 q 381 1318 382 1311 z "},"Ű":{"ha":833,"x_min":53,"x_max":782,"o":"m 53 757 q 55 862 53 814 q 65 957 57 910 q 81 1019 72 989 q 107 1078 89 1050 q 138 1115 119 1101 q 161 1124 149 1122 q 183 1118 174 1125 q 200 1101 196 1113 q 204 1078 204 1090 q 198 1010 201 1043 q 192 943 194 978 q 185 837 189 890 q 183 731 182 783 q 196 580 186 654 q 225 432 206 506 q 249 358 235 394 q 282 286 264 321 q 311 240 294 261 q 346 199 328 218 q 361 186 353 189 q 421 185 390 163 q 458 216 442 199 q 488 253 474 233 q 588 439 547 338 q 633 572 615 504 q 661 710 651 639 q 669 788 668 749 q 674 865 671 826 q 678 956 676 911 q 674 1047 681 1001 q 679 1076 674 1061 q 715 1106 689 1104 q 757 1090 742 1108 q 774 1066 768 1081 q 782 1036 779 1051 l 782 1026 q 778 801 782 914 q 750 576 775 688 q 732 503 743 539 q 708 432 721 468 q 667 320 692 375 q 613 214 643 265 q 572 155 594 183 q 524 101 550 126 q 448 53 489 68 q 358 44 407 38 q 303 68 325 51 q 242 117 268 88 q 194 181 217 146 q 129 306 156 240 q 88 443 103 372 q 61 605 69 525 q 53 757 53 685 m 444 1326 q 436 1282 444 1301 q 417 1231 426 1256 q 399 1181 408 1206 q 392 1163 396 1171 q 379 1149 388 1156 q 368 1143 375 1144 q 354 1147 361 1142 q 344 1169 340 1153 q 364 1245 354 1207 q 383 1322 374 1283 q 394 1340 383 1332 q 425 1349 410 1360 q 440 1340 436 1346 q 444 1326 444 1333 m 536 1315 q 528 1281 535 1297 q 511 1249 521 1264 q 486 1207 499 1226 q 461 1168 474 1188 q 455 1159 458 1163 q 449 1153 451 1156 q 439 1147 443 1149 q 428 1149 435 1144 q 419 1169 415 1156 q 428 1194 422 1182 q 450 1252 439 1222 q 471 1311 461 1282 q 482 1332 475 1322 q 515 1347 496 1354 q 529 1335 522 1344 q 536 1315 536 1325 z "},"Ū":{"ha":833,"x_min":53,"x_max":782,"o":"m 53 757 q 55 862 53 814 q 65 957 57 910 q 81 1019 72 989 q 107 1078 89 1050 q 138 1115 119 1101 q 161 1124 149 1122 q 183 1118 174 1125 q 200 1101 196 1113 q 204 1078 204 1090 q 198 1010 201 1043 q 192 943 194 978 q 185 837 189 890 q 183 731 182 783 q 196 580 186 654 q 225 432 206 506 q 249 358 235 394 q 282 286 264 321 q 311 240 294 261 q 346 199 328 218 q 361 186 353 189 q 421 185 390 163 q 458 216 442 199 q 488 253 474 233 q 588 439 547 338 q 633 572 615 504 q 661 710 651 639 q 669 788 668 749 q 674 865 671 826 q 678 956 676 911 q 674 1047 681 1001 q 679 1076 674 1061 q 715 1106 689 1104 q 757 1090 742 1108 q 774 1066 768 1081 q 782 1036 779 1051 l 782 1026 q 778 801 782 914 q 750 576 775 688 q 732 503 743 539 q 708 432 721 468 q 667 320 692 375 q 613 214 643 265 q 572 155 594 183 q 524 101 550 126 q 448 53 489 68 q 358 44 407 38 q 303 68 325 51 q 242 117 268 88 q 194 181 217 146 q 129 306 156 240 q 88 443 103 372 q 61 605 69 525 q 53 757 53 685 m 403 1183 q 366 1185 385 1185 q 329 1189 347 1185 q 299 1222 299 1194 q 328 1256 294 1249 q 337 1258 332 1258 q 344 1258 342 1258 q 412 1263 379 1257 q 479 1272 444 1268 q 499 1275 489 1275 q 519 1275 508 1275 q 557 1239 553 1271 q 528 1196 560 1210 q 504 1192 515 1192 q 453 1188 478 1190 q 403 1183 428 1185 z "},"Ų":{"ha":833,"x_min":53,"x_max":782,"o":"m 53 757 q 55 862 53 814 q 65 957 57 910 q 81 1019 72 989 q 107 1078 89 1050 q 138 1115 119 1101 q 161 1124 149 1122 q 183 1118 174 1125 q 200 1101 196 1113 q 204 1078 204 1090 q 198 1010 201 1043 q 192 943 194 978 q 185 837 189 890 q 183 731 182 783 q 196 580 186 654 q 225 432 206 506 q 249 358 235 394 q 282 286 264 321 q 311 240 294 261 q 346 199 328 218 q 361 186 353 189 q 421 185 390 163 q 458 216 442 199 q 488 253 474 233 q 588 439 547 338 q 633 572 615 504 q 661 710 651 639 q 669 788 668 749 q 674 865 671 826 q 678 956 676 911 q 674 1047 681 1001 q 679 1076 674 1061 q 715 1106 689 1104 q 757 1090 742 1108 q 774 1066 768 1081 q 782 1036 779 1051 l 782 1026 q 778 801 782 914 q 750 576 775 688 q 732 503 743 539 q 708 432 721 468 q 667 320 692 375 q 613 214 643 265 q 572 155 594 183 q 524 101 550 126 q 448 53 489 68 q 358 44 407 38 q 303 68 325 51 q 242 117 268 88 q 194 181 217 146 q 129 306 156 240 q 88 443 103 372 q 61 605 69 525 q 53 757 53 685 m 328 -32 q 340 21 326 -10 q 376 78 354 51 q 424 113 399 104 q 443 118 433 117 q 463 117 453 119 q 483 99 481 111 q 474 75 486 88 q 444 42 456 60 q 425 0 432 24 q 424 -6 425 -3 q 424 -12 424 -10 q 446 -33 418 -43 q 491 -16 469 -26 q 528 14 513 -6 q 538 27 532 22 q 554 26 544 32 q 567 11 563 24 q 567 -8 572 -1 q 557 -26 563 -18 q 544 -42 551 -35 q 453 -108 503 -83 q 388 -117 417 -126 q 342 -82 358 -107 q 328 -32 326 -57 z "},"Ů":{"ha":833,"x_min":53,"x_max":782,"o":"m 53 757 q 55 862 53 814 q 65 957 57 910 q 81 1019 72 989 q 107 1078 89 1050 q 138 1115 119 1101 q 161 1124 149 1122 q 183 1118 174 1125 q 200 1101 196 1113 q 204 1078 204 1090 q 198 1010 201 1043 q 192 943 194 978 q 185 837 189 890 q 183 731 182 783 q 196 580 186 654 q 225 432 206 506 q 249 358 235 394 q 282 286 264 321 q 311 240 294 261 q 346 199 328 218 q 361 186 353 189 q 421 185 390 163 q 458 216 442 199 q 488 253 474 233 q 588 439 547 338 q 633 572 615 504 q 661 710 651 639 q 669 788 668 749 q 674 865 671 826 q 678 956 676 911 q 674 1047 681 1001 q 679 1076 674 1061 q 715 1106 689 1104 q 757 1090 742 1108 q 774 1066 768 1081 q 782 1036 779 1051 l 782 1026 q 778 801 782 914 q 750 576 775 688 q 732 503 743 539 q 708 432 721 468 q 667 320 692 375 q 613 214 643 265 q 572 155 594 183 q 524 101 550 126 q 448 53 489 68 q 358 44 407 38 q 303 68 325 51 q 242 117 268 88 q 194 181 217 146 q 129 306 156 240 q 88 443 103 372 q 61 605 69 525 q 53 757 53 685 m 328 1231 q 339 1283 331 1258 q 367 1329 347 1308 q 400 1342 383 1343 q 424 1338 413 1339 q 449 1338 436 1338 q 487 1328 468 1336 q 519 1306 506 1321 q 519 1201 567 1258 q 449 1150 489 1169 q 344 1172 385 1126 q 331 1200 333 1185 q 328 1231 328 1215 m 404 1251 q 446 1225 404 1206 q 450 1226 449 1225 q 453 1226 451 1226 q 478 1251 478 1242 q 457 1276 479 1261 q 438 1289 447 1283 q 417 1289 428 1294 q 407 1272 407 1283 q 404 1251 407 1261 z "},"Ũ":{"ha":833,"x_min":53,"x_max":782,"o":"m 53 757 q 55 862 53 814 q 65 957 57 910 q 81 1019 72 989 q 107 1078 89 1050 q 138 1115 119 1101 q 161 1124 149 1122 q 183 1118 174 1125 q 200 1101 196 1113 q 204 1078 204 1090 q 198 1010 201 1043 q 192 943 194 978 q 185 837 189 890 q 183 731 182 783 q 196 580 186 654 q 225 432 206 506 q 249 358 235 394 q 282 286 264 321 q 311 240 294 261 q 346 199 328 218 q 361 186 353 189 q 421 185 390 163 q 458 216 442 199 q 488 253 474 233 q 588 439 547 338 q 633 572 615 504 q 661 710 651 639 q 669 788 668 749 q 674 865 671 826 q 678 956 676 911 q 674 1047 681 1001 q 679 1076 674 1061 q 715 1106 689 1104 q 757 1090 742 1108 q 774 1066 768 1081 q 782 1036 779 1051 l 782 1026 q 778 801 782 914 q 750 576 775 688 q 732 503 743 539 q 708 432 721 468 q 667 320 692 375 q 613 214 643 265 q 572 155 594 183 q 524 101 550 126 q 448 53 489 68 q 358 44 407 38 q 303 68 325 51 q 242 117 268 88 q 194 181 217 146 q 129 306 156 240 q 88 443 103 372 q 61 605 69 525 q 53 757 53 685 m 510 1160 q 410 1207 447 1163 q 398 1222 404 1214 q 386 1236 392 1229 q 370 1249 376 1247 q 353 1240 364 1250 q 328 1214 339 1228 q 311 1182 318 1200 q 310 1181 311 1181 q 310 1178 310 1181 q 282 1156 300 1151 q 267 1167 272 1157 q 264 1189 263 1176 q 265 1201 264 1197 q 299 1260 278 1233 q 351 1303 321 1286 q 397 1311 374 1318 q 439 1281 421 1304 q 453 1260 446 1271 q 469 1243 460 1250 q 497 1226 482 1231 q 531 1224 513 1222 q 561 1245 550 1226 q 565 1282 572 1264 q 565 1285 565 1285 q 564 1285 564 1285 q 557 1299 558 1292 q 564 1311 556 1306 q 579 1315 571 1318 q 593 1307 588 1313 q 619 1267 607 1294 q 622 1215 632 1239 q 608 1193 617 1203 q 586 1176 599 1183 q 510 1160 549 1160 z "},"V":{"ha":675,"x_min":51,"x_max":668,"o":"m 332 189 q 367 293 353 240 q 419 488 394 390 q 467 685 444 586 q 504 815 482 750 q 544 944 526 879 q 558 987 551 965 q 571 1028 565 1008 q 578 1046 574 1038 q 586 1061 583 1054 q 610 1084 596 1076 q 638 1086 625 1092 q 660 1065 653 1082 q 665 1032 668 1047 q 628 845 642 940 q 596 656 615 750 q 574 565 586 610 q 550 476 563 521 q 508 309 531 392 q 457 144 485 226 q 413 39 439 93 q 403 20 408 29 q 390 3 397 11 q 329 -25 364 -25 q 269 3 294 -25 q 249 34 257 18 q 233 68 240 50 q 202 153 218 110 q 174 239 186 196 q 149 337 161 288 q 125 436 136 386 q 87 653 103 544 q 58 872 71 763 q 53 954 54 913 q 57 1039 51 996 q 71 1086 60 1067 q 101 1112 82 1106 q 138 1114 121 1118 q 165 1096 153 1108 q 179 1060 178 1083 l 179 1047 q 187 901 179 974 q 204 756 194 828 q 219 663 211 708 q 233 569 226 617 q 269 392 249 481 q 319 218 289 304 q 324 204 321 213 q 332 189 326 196 z "},"W":{"ha":1082,"x_min":53,"x_max":1035,"o":"m 538 374 q 528 340 531 357 q 524 306 525 322 q 510 217 521 260 q 486 131 500 175 q 468 88 478 108 q 444 49 458 68 q 370 6 414 7 q 292 36 326 4 q 260 74 274 54 q 236 115 247 93 q 177 267 200 189 q 133 422 154 344 q 101 566 115 494 q 74 710 86 638 q 60 798 65 754 q 53 885 54 842 q 67 965 53 928 q 115 997 85 999 q 141 987 131 996 q 157 965 151 978 q 168 927 164 947 q 175 886 172 907 q 194 780 185 833 q 215 672 204 726 q 235 571 225 622 q 257 469 246 519 q 278 381 267 425 q 304 294 289 338 q 326 238 315 265 q 353 182 338 210 q 355 176 354 179 q 361 172 356 174 q 375 222 372 196 q 406 382 393 301 q 428 543 418 463 q 436 637 432 590 q 446 728 440 683 q 451 765 449 747 q 458 801 454 783 q 482 843 464 825 q 531 857 501 860 q 575 835 560 854 q 596 800 590 819 q 603 761 601 781 q 624 622 613 692 q 649 482 636 551 q 671 381 658 431 q 700 282 683 331 q 725 222 711 251 q 758 168 739 193 q 770 157 767 157 q 783 168 774 157 q 813 221 801 193 q 832 276 824 249 q 865 408 851 342 q 886 543 878 475 q 894 634 890 588 q 900 726 897 681 q 900 803 903 765 q 894 881 897 842 q 892 960 892 921 q 896 1040 892 1000 q 953 1085 903 1092 q 978 1068 968 1081 q 990 1047 985 1058 q 999 1024 996 1035 q 1021 918 1014 972 q 1029 811 1028 864 q 979 318 1035 561 q 954 228 969 272 q 917 140 939 183 q 858 60 894 92 q 768 20 817 19 q 679 61 719 21 q 628 128 647 93 q 578 236 597 181 q 544 347 560 292 q 542 360 543 354 q 538 374 540 367 z "},"Ẃ":{"ha":1082,"x_min":53,"x_max":1035,"o":"m 538 374 q 528 340 531 357 q 524 306 525 322 q 510 217 521 260 q 486 131 500 175 q 468 88 478 108 q 444 49 458 68 q 370 6 414 7 q 292 36 326 4 q 260 74 274 54 q 236 115 247 93 q 177 267 200 189 q 133 422 154 344 q 101 566 115 494 q 74 710 86 638 q 60 798 65 754 q 53 885 54 842 q 67 965 53 928 q 115 997 85 999 q 141 987 131 996 q 157 965 151 978 q 168 927 164 947 q 175 886 172 907 q 194 780 185 833 q 215 672 204 726 q 235 571 225 622 q 257 469 246 519 q 278 381 267 425 q 304 294 289 338 q 326 238 315 265 q 353 182 338 210 q 355 176 354 179 q 361 172 356 174 q 375 222 372 196 q 406 382 393 301 q 428 543 418 463 q 436 637 432 590 q 446 728 440 683 q 451 765 449 747 q 458 801 454 783 q 482 843 464 825 q 531 857 501 860 q 575 835 560 854 q 596 800 590 819 q 603 761 601 781 q 624 622 613 692 q 649 482 636 551 q 671 381 658 431 q 700 282 683 331 q 725 222 711 251 q 758 168 739 193 q 770 157 767 157 q 783 168 774 157 q 813 221 801 193 q 832 276 824 249 q 865 408 851 342 q 886 543 878 475 q 894 634 890 588 q 900 726 897 681 q 900 803 903 765 q 894 881 897 842 q 892 960 892 921 q 896 1040 892 1000 q 953 1085 903 1092 q 978 1068 968 1081 q 990 1047 985 1058 q 999 1024 996 1035 q 1021 918 1014 972 q 1029 811 1028 864 q 979 318 1035 561 q 954 228 969 272 q 917 140 939 183 q 858 60 894 92 q 768 20 817 19 q 679 61 719 21 q 628 128 647 93 q 578 236 597 181 q 544 347 560 292 q 542 360 543 354 q 538 374 540 367 m 479 989 q 456 1001 464 989 q 450 1026 447 1013 q 453 1031 451 1029 q 454 1036 454 1033 q 515 1128 482 1085 q 589 1211 549 1172 q 601 1219 596 1218 q 619 1220 611 1225 q 626 1206 626 1215 q 624 1196 625 1200 q 621 1186 622 1192 q 574 1099 597 1143 q 518 1015 550 1056 q 501 998 511 1006 q 479 989 492 990 z "},"Ŵ":{"ha":1082,"x_min":53,"x_max":1035,"o":"m 538 374 q 528 340 531 357 q 524 306 525 322 q 510 217 521 260 q 486 131 500 175 q 468 88 478 108 q 444 49 458 68 q 370 6 414 7 q 292 36 326 4 q 260 74 274 54 q 236 115 247 93 q 177 267 200 189 q 133 422 154 344 q 101 566 115 494 q 74 710 86 638 q 60 798 65 754 q 53 885 54 842 q 67 965 53 928 q 115 997 85 999 q 141 987 131 996 q 157 965 151 978 q 168 927 164 947 q 175 886 172 907 q 194 780 185 833 q 215 672 204 726 q 235 571 225 622 q 257 469 246 519 q 278 381 267 425 q 304 294 289 338 q 326 238 315 265 q 353 182 338 210 q 355 176 354 179 q 361 172 356 174 q 375 222 372 196 q 406 382 393 301 q 428 543 418 463 q 436 637 432 590 q 446 728 440 683 q 451 765 449 747 q 458 801 454 783 q 482 843 464 825 q 531 857 501 860 q 575 835 560 854 q 596 800 590 819 q 603 761 601 781 q 624 622 613 692 q 649 482 636 551 q 671 381 658 431 q 700 282 683 331 q 725 222 711 251 q 758 168 739 193 q 770 157 767 157 q 783 168 774 157 q 813 221 801 193 q 832 276 824 249 q 865 408 851 342 q 886 543 878 475 q 894 634 890 588 q 900 726 897 681 q 900 803 903 765 q 894 881 897 842 q 892 960 892 921 q 896 1040 892 1000 q 953 1085 903 1092 q 978 1068 968 1081 q 990 1047 985 1058 q 999 1024 996 1035 q 1021 918 1014 972 q 1029 811 1028 864 q 979 318 1035 561 q 954 228 969 272 q 917 140 939 183 q 858 60 894 92 q 768 20 817 19 q 679 61 719 21 q 628 128 647 93 q 578 236 597 181 q 544 347 560 292 q 542 360 543 354 q 538 374 540 367 m 531 1172 q 512 1139 518 1157 q 496 1103 506 1121 q 485 1082 490 1093 q 472 1060 479 1071 q 429 1036 458 1029 q 404 1078 404 1043 q 413 1107 407 1094 q 439 1182 425 1144 q 471 1256 453 1219 q 491 1284 478 1272 q 525 1297 504 1296 q 560 1287 544 1297 q 585 1260 575 1276 q 603 1223 596 1242 q 617 1185 611 1204 q 631 1113 624 1149 q 646 1040 638 1076 q 647 1035 646 1038 q 647 1031 647 1033 q 639 1010 651 1017 q 617 1010 628 1004 q 604 1024 608 1017 q 597 1039 600 1031 q 572 1097 585 1068 q 543 1153 558 1125 q 538 1164 540 1158 q 531 1172 536 1169 z "},"Ẅ":{"ha":1082,"x_min":53,"x_max":1035,"o":"m 538 374 q 528 340 531 357 q 524 306 525 322 q 510 217 521 260 q 486 131 500 175 q 468 88 478 108 q 444 49 458 68 q 370 6 414 7 q 292 36 326 4 q 260 74 274 54 q 236 115 247 93 q 177 267 200 189 q 133 422 154 344 q 101 566 115 494 q 74 710 86 638 q 60 798 65 754 q 53 885 54 842 q 67 965 53 928 q 115 997 85 999 q 141 987 131 996 q 157 965 151 978 q 168 927 164 947 q 175 886 172 907 q 194 780 185 833 q 215 672 204 726 q 235 571 225 622 q 257 469 246 519 q 278 381 267 425 q 304 294 289 338 q 326 238 315 265 q 353 182 338 210 q 355 176 354 179 q 361 172 356 174 q 375 222 372 196 q 406 382 393 301 q 428 543 418 463 q 436 637 432 590 q 446 728 440 683 q 451 765 449 747 q 458 801 454 783 q 482 843 464 825 q 531 857 501 860 q 575 835 560 854 q 596 800 590 819 q 603 761 601 781 q 624 622 613 692 q 649 482 636 551 q 671 381 658 431 q 700 282 683 331 q 725 222 711 251 q 758 168 739 193 q 770 157 767 157 q 783 168 774 157 q 813 221 801 193 q 832 276 824 249 q 865 408 851 342 q 886 543 878 475 q 894 634 890 588 q 900 726 897 681 q 900 803 903 765 q 894 881 897 842 q 892 960 892 921 q 896 1040 892 1000 q 953 1085 903 1092 q 978 1068 968 1081 q 990 1047 985 1058 q 999 1024 996 1035 q 1021 918 1014 972 q 1029 811 1028 864 q 979 318 1035 561 q 954 228 969 272 q 917 140 939 183 q 858 60 894 92 q 768 20 817 19 q 679 61 719 21 q 628 128 647 93 q 578 236 597 181 q 544 347 560 292 q 542 360 543 354 q 538 374 540 367 m 650 1113 q 637 1084 650 1097 q 606 1071 624 1071 q 576 1086 589 1074 q 564 1117 564 1099 q 578 1147 567 1135 q 608 1158 590 1158 q 638 1145 625 1158 q 650 1113 651 1132 m 497 1078 q 471 1088 482 1078 q 458 1113 460 1097 q 493 1153 458 1149 q 520 1143 508 1154 q 533 1117 532 1132 q 523 1090 533 1101 q 497 1078 513 1079 z "},"Ẁ":{"ha":1082,"x_min":53,"x_max":1035,"o":"m 538 374 q 528 340 531 357 q 524 306 525 322 q 510 217 521 260 q 486 131 500 175 q 468 88 478 108 q 444 49 458 68 q 370 6 414 7 q 292 36 326 4 q 260 74 274 54 q 236 115 247 93 q 177 267 200 189 q 133 422 154 344 q 101 566 115 494 q 74 710 86 638 q 60 798 65 754 q 53 885 54 842 q 67 965 53 928 q 115 997 85 999 q 141 987 131 996 q 157 965 151 978 q 168 927 164 947 q 175 886 172 907 q 194 780 185 833 q 215 672 204 726 q 235 571 225 622 q 257 469 246 519 q 278 381 267 425 q 304 294 289 338 q 326 238 315 265 q 353 182 338 210 q 355 176 354 179 q 361 172 356 174 q 375 222 372 196 q 406 382 393 301 q 428 543 418 463 q 436 637 432 590 q 446 728 440 683 q 451 765 449 747 q 458 801 454 783 q 482 843 464 825 q 531 857 501 860 q 575 835 560 854 q 596 800 590 819 q 603 761 601 781 q 624 622 613 692 q 649 482 636 551 q 671 381 658 431 q 700 282 683 331 q 725 222 711 251 q 758 168 739 193 q 770 157 767 157 q 783 168 774 157 q 813 221 801 193 q 832 276 824 249 q 865 408 851 342 q 886 543 878 475 q 894 634 890 588 q 900 726 897 681 q 900 803 903 765 q 894 881 897 842 q 892 960 892 921 q 896 1040 892 1000 q 953 1085 903 1092 q 978 1068 968 1081 q 990 1047 985 1058 q 999 1024 996 1035 q 1021 918 1014 972 q 1029 811 1028 864 q 979 318 1035 561 q 954 228 969 272 q 917 140 939 183 q 858 60 894 92 q 768 20 817 19 q 679 61 719 21 q 628 128 647 93 q 578 236 597 181 q 544 347 560 292 q 542 360 543 354 q 538 374 540 367 m 474 1186 q 488 1218 474 1208 q 519 1218 501 1228 q 528 1210 524 1215 q 538 1201 533 1206 q 558 1171 550 1188 q 574 1139 565 1154 q 597 1083 585 1111 q 621 1028 608 1056 q 625 1022 624 1025 q 628 1015 626 1018 q 621 994 629 1003 q 599 990 614 988 q 571 1014 582 996 q 547 1051 558 1033 q 525 1086 535 1068 q 504 1117 515 1101 q 483 1151 493 1133 q 478 1170 481 1161 q 474 1186 475 1179 z "},"X":{"ha":763,"x_min":53,"x_max":775,"o":"m 371 424 q 271 253 321 340 q 220 163 246 208 q 171 69 194 117 q 158 49 165 60 q 142 28 151 38 q 113 14 128 18 q 83 18 99 10 q 53 72 53 31 q 58 96 54 85 q 67 118 63 107 q 106 193 86 156 q 146 265 126 231 q 221 396 183 331 q 296 526 258 461 q 299 564 307 544 q 246 669 272 617 q 194 774 219 721 q 163 847 179 810 q 132 922 146 885 q 125 938 129 929 q 121 956 121 947 q 131 994 118 978 q 163 1015 143 1011 q 201 1010 183 1021 q 225 981 218 1000 q 247 933 236 957 q 269 886 258 910 q 317 786 293 836 q 365 686 342 736 q 369 676 367 682 q 378 665 372 671 q 400 701 389 683 q 421 736 411 719 q 481 835 451 785 q 542 932 510 885 q 598 1009 569 972 q 661 1078 626 1046 q 696 1103 678 1097 q 753 1101 725 1119 q 771 1077 767 1092 q 774 1044 775 1063 q 744 1015 769 1019 q 731 1012 735 1015 q 721 1003 726 1008 q 693 960 707 981 q 667 918 679 940 q 614 833 642 875 q 563 747 586 792 q 517 673 540 710 q 474 597 493 636 q 461 575 468 586 q 446 553 454 564 q 446 531 438 544 q 491 454 468 492 q 540 381 514 417 q 591 307 565 344 q 642 232 617 269 q 677 178 661 206 q 711 124 693 151 q 719 112 715 118 q 725 99 722 106 q 711 53 736 71 q 667 53 693 39 q 643 72 654 61 q 621 93 632 82 q 558 164 590 128 q 499 239 526 200 q 444 316 471 276 q 390 394 417 356 q 382 410 385 403 q 371 424 379 418 z "},"Y":{"ha":571,"x_min":49,"x_max":689,"o":"m 353 597 q 361 611 360 604 q 365 624 363 618 q 433 799 397 714 q 513 969 469 885 q 538 1015 524 992 q 565 1057 551 1038 q 581 1081 572 1069 q 603 1099 590 1092 q 632 1114 614 1110 q 673 1102 657 1118 q 686 1061 689 1086 q 675 1028 683 1044 q 658 997 667 1013 q 569 815 611 907 q 494 628 526 724 q 428 433 458 531 q 369 235 397 335 q 328 97 347 167 q 325 57 324 76 q 307 15 329 28 q 276 14 293 11 q 249 26 260 17 q 233 54 238 39 q 228 85 228 69 q 233 146 228 117 q 244 206 239 175 q 307 443 269 325 q 309 461 310 454 q 299 478 308 468 q 251 533 271 503 q 215 594 232 564 q 153 725 182 660 q 100 857 124 790 q 76 924 88 890 q 54 993 65 958 q 57 1031 49 1013 q 83 1060 65 1050 q 153 1039 125 1076 q 164 1016 160 1028 q 174 993 168 1004 q 220 879 199 938 q 267 764 242 821 q 346 607 303 681 q 349 602 346 604 q 353 597 351 600 z "},"Ý":{"ha":571,"x_min":49,"x_max":689,"o":"m 353 597 q 361 611 360 604 q 365 624 363 618 q 433 799 397 714 q 513 969 469 885 q 538 1015 524 992 q 565 1057 551 1038 q 581 1081 572 1069 q 603 1099 590 1092 q 632 1114 614 1110 q 673 1102 657 1118 q 686 1061 689 1086 q 675 1028 683 1044 q 658 997 667 1013 q 569 815 611 907 q 494 628 526 724 q 428 433 458 531 q 369 235 397 335 q 328 97 347 167 q 325 57 324 76 q 307 15 329 28 q 276 14 293 11 q 249 26 260 17 q 233 54 238 39 q 228 85 228 69 q 233 146 228 117 q 244 206 239 175 q 307 443 269 325 q 309 461 310 454 q 299 478 308 468 q 251 533 271 503 q 215 594 232 564 q 153 725 182 660 q 100 857 124 790 q 76 924 88 890 q 54 993 65 958 q 57 1031 49 1013 q 83 1060 65 1050 q 153 1039 125 1076 q 164 1016 160 1028 q 174 993 168 1004 q 220 879 199 938 q 267 764 242 821 q 346 607 303 681 q 349 602 346 604 q 353 597 351 600 m 288 1101 q 264 1113 272 1101 q 258 1139 256 1125 q 261 1144 260 1142 q 263 1149 263 1146 q 324 1241 290 1197 q 397 1324 357 1285 q 410 1332 404 1331 q 427 1333 419 1338 q 435 1318 435 1328 q 432 1308 433 1313 q 429 1299 431 1304 q 382 1212 406 1256 q 326 1128 358 1168 q 310 1110 319 1118 q 288 1101 300 1103 z "},"Ŷ":{"ha":571,"x_min":49,"x_max":689,"o":"m 353 597 q 361 611 360 604 q 365 624 363 618 q 433 799 397 714 q 513 969 469 885 q 538 1015 524 992 q 565 1057 551 1038 q 581 1081 572 1069 q 603 1099 590 1092 q 632 1114 614 1110 q 673 1102 657 1118 q 686 1061 689 1086 q 675 1028 683 1044 q 658 997 667 1013 q 569 815 611 907 q 494 628 526 724 q 428 433 458 531 q 369 235 397 335 q 328 97 347 167 q 325 57 324 76 q 307 15 329 28 q 276 14 293 11 q 249 26 260 17 q 233 54 238 39 q 228 85 228 69 q 233 146 228 117 q 244 206 239 175 q 307 443 269 325 q 309 461 310 454 q 299 478 308 468 q 251 533 271 503 q 215 594 232 564 q 153 725 182 660 q 100 857 124 790 q 76 924 88 890 q 54 993 65 958 q 57 1031 49 1013 q 83 1060 65 1050 q 153 1039 125 1076 q 164 1016 160 1028 q 174 993 168 1004 q 220 879 199 938 q 267 764 242 821 q 346 607 303 681 q 349 602 346 604 q 353 597 351 600 m 339 1285 q 320 1251 326 1269 q 304 1215 314 1233 q 293 1194 299 1206 q 281 1172 288 1183 q 238 1149 267 1142 q 213 1190 213 1156 q 221 1219 215 1207 q 247 1294 233 1257 q 279 1368 261 1332 q 299 1397 286 1385 q 333 1410 313 1408 q 368 1399 353 1410 q 393 1372 383 1389 q 412 1335 404 1354 q 425 1297 419 1317 q 439 1225 432 1261 q 454 1153 446 1189 q 455 1148 454 1150 q 456 1143 456 1146 q 447 1122 460 1129 q 425 1122 436 1117 q 413 1136 417 1129 q 406 1151 408 1143 q 380 1209 393 1181 q 351 1265 367 1238 q 347 1276 349 1271 q 339 1285 344 1282 z "},"Ÿ":{"ha":571,"x_min":49,"x_max":689,"o":"m 353 597 q 361 611 360 604 q 365 624 363 618 q 433 799 397 714 q 513 969 469 885 q 538 1015 524 992 q 565 1057 551 1038 q 581 1081 572 1069 q 603 1099 590 1092 q 632 1114 614 1110 q 673 1102 657 1118 q 686 1061 689 1086 q 675 1028 683 1044 q 658 997 667 1013 q 569 815 611 907 q 494 628 526 724 q 428 433 458 531 q 369 235 397 335 q 328 97 347 167 q 325 57 324 76 q 307 15 329 28 q 276 14 293 11 q 249 26 260 17 q 233 54 238 39 q 228 85 228 69 q 233 146 228 117 q 244 206 239 175 q 307 443 269 325 q 309 461 310 454 q 299 478 308 468 q 251 533 271 503 q 215 594 232 564 q 153 725 182 660 q 100 857 124 790 q 76 924 88 890 q 54 993 65 958 q 57 1031 49 1013 q 83 1060 65 1050 q 153 1039 125 1076 q 164 1016 160 1028 q 174 993 168 1004 q 220 879 199 938 q 267 764 242 821 q 346 607 303 681 q 349 602 346 604 q 353 597 351 600 m 458 1225 q 445 1197 458 1210 q 414 1183 432 1183 q 385 1199 397 1186 q 372 1229 372 1211 q 387 1259 375 1247 q 417 1271 399 1271 q 447 1258 433 1271 q 458 1225 460 1244 m 306 1190 q 279 1200 290 1190 q 267 1225 268 1210 q 301 1265 267 1261 q 328 1256 317 1267 q 342 1229 340 1244 q 331 1203 342 1214 q 306 1190 321 1192 z "},"Ỳ":{"ha":571,"x_min":49,"x_max":689,"o":"m 353 597 q 361 611 360 604 q 365 624 363 618 q 433 799 397 714 q 513 969 469 885 q 538 1015 524 992 q 565 1057 551 1038 q 581 1081 572 1069 q 603 1099 590 1092 q 632 1114 614 1110 q 673 1102 657 1118 q 686 1061 689 1086 q 675 1028 683 1044 q 658 997 667 1013 q 569 815 611 907 q 494 628 526 724 q 428 433 458 531 q 369 235 397 335 q 328 97 347 167 q 325 57 324 76 q 307 15 329 28 q 276 14 293 11 q 249 26 260 17 q 233 54 238 39 q 228 85 228 69 q 233 146 228 117 q 244 206 239 175 q 307 443 269 325 q 309 461 310 454 q 299 478 308 468 q 251 533 271 503 q 215 594 232 564 q 153 725 182 660 q 100 857 124 790 q 76 924 88 890 q 54 993 65 958 q 57 1031 49 1013 q 83 1060 65 1050 q 153 1039 125 1076 q 164 1016 160 1028 q 174 993 168 1004 q 220 879 199 938 q 267 764 242 821 q 346 607 303 681 q 349 602 346 604 q 353 597 351 600 m 282 1299 q 296 1331 282 1321 q 328 1331 310 1340 q 337 1323 332 1328 q 346 1314 342 1318 q 366 1283 358 1300 q 382 1251 374 1267 q 405 1196 393 1224 q 429 1140 417 1168 q 433 1134 432 1138 q 436 1128 435 1131 q 429 1107 438 1115 q 407 1103 422 1100 q 379 1126 390 1108 q 355 1163 367 1146 q 333 1199 343 1181 q 313 1230 324 1214 q 292 1264 301 1246 q 286 1283 289 1274 q 282 1299 283 1292 z "},"Ỹ":{"ha":571,"x_min":49,"x_max":689,"o":"m 353 597 q 361 611 360 604 q 365 624 363 618 q 433 799 397 714 q 513 969 469 885 q 538 1015 524 992 q 565 1057 551 1038 q 581 1081 572 1069 q 603 1099 590 1092 q 632 1114 614 1110 q 673 1102 657 1118 q 686 1061 689 1086 q 675 1028 683 1044 q 658 997 667 1013 q 569 815 611 907 q 494 628 526 724 q 428 433 458 531 q 369 235 397 335 q 328 97 347 167 q 325 57 324 76 q 307 15 329 28 q 276 14 293 11 q 249 26 260 17 q 233 54 238 39 q 228 85 228 69 q 233 146 228 117 q 244 206 239 175 q 307 443 269 325 q 309 461 310 454 q 299 478 308 468 q 251 533 271 503 q 215 594 232 564 q 153 725 182 660 q 100 857 124 790 q 76 924 88 890 q 54 993 65 958 q 57 1031 49 1013 q 83 1060 65 1050 q 153 1039 125 1076 q 164 1016 160 1028 q 174 993 168 1004 q 220 879 199 938 q 267 764 242 821 q 346 607 303 681 q 349 602 346 604 q 353 597 351 600 m 411 1140 q 311 1188 349 1143 q 299 1202 306 1194 q 288 1217 293 1210 q 272 1229 278 1228 q 254 1221 265 1231 q 230 1194 240 1208 q 213 1163 219 1181 q 212 1161 213 1161 q 211 1158 211 1161 q 183 1136 201 1132 q 169 1147 174 1138 q 165 1169 164 1157 q 167 1182 165 1178 q 201 1240 179 1214 q 253 1283 222 1267 q 299 1292 275 1299 q 340 1261 322 1285 q 354 1241 347 1251 q 371 1224 361 1231 q 399 1207 383 1211 q 432 1204 414 1203 q 463 1226 451 1207 q 467 1263 474 1244 q 466 1265 467 1265 q 465 1265 465 1265 q 458 1279 460 1272 q 465 1292 457 1286 q 481 1296 472 1299 q 494 1288 489 1293 q 521 1247 508 1275 q 524 1196 533 1219 q 509 1174 518 1183 q 488 1157 500 1164 q 411 1140 450 1140 z "},"Z":{"ha":786,"x_min":47,"x_max":843,"o":"m 244 176 q 278 181 261 176 q 463 200 369 194 q 650 206 557 206 q 685 201 668 206 q 717 193 701 197 q 726 190 722 192 q 733 185 731 188 q 761 131 767 165 q 748 107 760 117 q 719 93 736 97 q 639 80 679 83 q 558 74 599 76 q 474 69 517 71 q 390 64 432 68 q 281 47 335 56 q 174 26 226 39 q 144 22 160 24 q 113 22 128 19 q 64 55 81 29 q 54 114 47 81 q 63 139 57 126 q 75 161 69 151 q 160 288 115 226 q 253 410 206 350 q 367 553 310 483 q 479 697 424 624 q 572 814 526 754 q 661 936 618 874 q 669 949 665 943 q 675 965 674 956 q 631 958 653 961 q 586 951 608 954 q 424 919 506 938 q 263 882 343 900 q 220 873 240 878 q 179 865 200 868 q 136 874 157 860 q 108 918 110 889 q 128 965 106 947 q 150 978 142 976 q 241 1005 196 990 q 329 1031 286 1019 q 435 1056 382 1044 q 540 1074 488 1067 q 613 1088 576 1082 q 686 1099 650 1094 q 728 1103 708 1101 q 771 1097 749 1104 q 824 1060 806 1088 q 836 997 843 1033 q 813 935 832 963 q 748 831 783 882 q 674 732 713 781 q 608 648 640 690 q 540 564 575 606 q 459 462 500 513 q 378 360 418 411 q 317 277 347 319 q 254 194 286 235 q 248 188 251 192 q 244 176 244 183 z "},"Ź":{"ha":786,"x_min":47,"x_max":843,"o":"m 244 176 q 278 181 261 176 q 463 200 369 194 q 650 206 557 206 q 685 201 668 206 q 717 193 701 197 q 726 190 722 192 q 733 185 731 188 q 761 131 767 165 q 748 107 760 117 q 719 93 736 97 q 639 80 679 83 q 558 74 599 76 q 474 69 517 71 q 390 64 432 68 q 281 47 335 56 q 174 26 226 39 q 144 22 160 24 q 113 22 128 19 q 64 55 81 29 q 54 114 47 81 q 63 139 57 126 q 75 161 69 151 q 160 288 115 226 q 253 410 206 350 q 367 553 310 483 q 479 697 424 624 q 572 814 526 754 q 661 936 618 874 q 669 949 665 943 q 675 965 674 956 q 631 958 653 961 q 586 951 608 954 q 424 919 506 938 q 263 882 343 900 q 220 873 240 878 q 179 865 200 868 q 136 874 157 860 q 108 918 110 889 q 128 965 106 947 q 150 978 142 976 q 241 1005 196 990 q 329 1031 286 1019 q 435 1056 382 1044 q 540 1074 488 1067 q 613 1088 576 1082 q 686 1099 650 1094 q 728 1103 708 1101 q 771 1097 749 1104 q 824 1060 806 1088 q 836 997 843 1033 q 813 935 832 963 q 748 831 783 882 q 674 732 713 781 q 608 648 640 690 q 540 564 575 606 q 459 462 500 513 q 378 360 418 411 q 317 277 347 319 q 254 194 286 235 q 248 188 251 192 q 244 176 244 183 m 442 1147 q 418 1159 426 1147 q 413 1185 410 1171 q 415 1190 414 1188 q 417 1194 417 1192 q 478 1287 444 1243 q 551 1369 511 1331 q 564 1378 558 1376 q 581 1378 574 1383 q 589 1364 589 1374 q 586 1354 588 1358 q 583 1344 585 1350 q 536 1258 560 1301 q 481 1174 513 1214 q 464 1156 474 1164 q 442 1147 454 1149 z "},"Ž":{"ha":786,"x_min":47,"x_max":843,"o":"m 244 176 q 278 181 261 176 q 463 200 369 194 q 650 206 557 206 q 685 201 668 206 q 717 193 701 197 q 726 190 722 192 q 733 185 731 188 q 761 131 767 165 q 748 107 760 117 q 719 93 736 97 q 639 80 679 83 q 558 74 599 76 q 474 69 517 71 q 390 64 432 68 q 281 47 335 56 q 174 26 226 39 q 144 22 160 24 q 113 22 128 19 q 64 55 81 29 q 54 114 47 81 q 63 139 57 126 q 75 161 69 151 q 160 288 115 226 q 253 410 206 350 q 367 553 310 483 q 479 697 424 624 q 572 814 526 754 q 661 936 618 874 q 669 949 665 943 q 675 965 674 956 q 631 958 653 961 q 586 951 608 954 q 424 919 506 938 q 263 882 343 900 q 220 873 240 878 q 179 865 200 868 q 136 874 157 860 q 108 918 110 889 q 128 965 106 947 q 150 978 142 976 q 241 1005 196 990 q 329 1031 286 1019 q 435 1056 382 1044 q 540 1074 488 1067 q 613 1088 576 1082 q 686 1099 650 1094 q 728 1103 708 1101 q 771 1097 749 1104 q 824 1060 806 1088 q 836 997 843 1033 q 813 935 832 963 q 748 831 783 882 q 674 732 713 781 q 608 648 640 690 q 540 564 575 606 q 459 462 500 513 q 378 360 418 411 q 317 277 347 319 q 254 194 286 235 q 248 188 251 192 q 244 176 244 183 m 500 1275 q 515 1303 510 1290 q 525 1328 521 1315 q 553 1377 535 1356 q 592 1421 572 1399 q 608 1425 600 1429 q 619 1408 619 1422 q 617 1396 619 1400 q 592 1320 601 1358 q 567 1244 582 1282 q 557 1219 563 1232 q 542 1194 551 1206 q 492 1170 519 1168 q 450 1203 465 1172 q 422 1275 435 1239 q 399 1349 410 1311 q 394 1364 397 1356 q 390 1379 392 1372 q 387 1397 388 1388 q 386 1413 386 1406 q 415 1444 389 1439 q 446 1424 435 1447 q 464 1378 456 1401 q 479 1332 472 1356 q 490 1305 486 1319 q 500 1275 494 1290 z "},"Ż":{"ha":786,"x_min":47,"x_max":843,"o":"m 244 176 q 278 181 261 176 q 463 200 369 194 q 650 206 557 206 q 685 201 668 206 q 717 193 701 197 q 726 190 722 192 q 733 185 731 188 q 761 131 767 165 q 748 107 760 117 q 719 93 736 97 q 639 80 679 83 q 558 74 599 76 q 474 69 517 71 q 390 64 432 68 q 281 47 335 56 q 174 26 226 39 q 144 22 160 24 q 113 22 128 19 q 64 55 81 29 q 54 114 47 81 q 63 139 57 126 q 75 161 69 151 q 160 288 115 226 q 253 410 206 350 q 367 553 310 483 q 479 697 424 624 q 572 814 526 754 q 661 936 618 874 q 669 949 665 943 q 675 965 674 956 q 631 958 653 961 q 586 951 608 954 q 424 919 506 938 q 263 882 343 900 q 220 873 240 878 q 179 865 200 868 q 136 874 157 860 q 108 918 110 889 q 128 965 106 947 q 150 978 142 976 q 241 1005 196 990 q 329 1031 286 1019 q 435 1056 382 1044 q 540 1074 488 1067 q 613 1088 576 1082 q 686 1099 650 1094 q 728 1103 708 1101 q 771 1097 749 1104 q 824 1060 806 1088 q 836 997 843 1033 q 813 935 832 963 q 748 831 783 882 q 674 732 713 781 q 608 648 640 690 q 540 564 575 606 q 459 462 500 513 q 378 360 418 411 q 317 277 347 319 q 254 194 286 235 q 248 188 251 192 q 244 176 244 183 m 503 1208 q 474 1219 485 1207 q 461 1249 463 1231 q 475 1283 461 1268 q 507 1299 489 1299 q 546 1250 544 1299 q 532 1222 546 1235 q 503 1208 518 1208 z "},"a":{"ha":550,"x_min":49,"x_max":500,"o":"m 363 107 q 348 90 353 100 q 336 72 343 79 q 306 34 322 51 q 265 7 289 17 q 187 5 226 -11 q 132 61 147 21 q 115 210 101 139 q 178 344 128 281 q 244 394 206 379 q 328 399 282 408 q 333 398 331 399 q 338 397 335 397 q 340 417 343 408 q 336 436 338 426 q 323 494 331 467 q 304 549 315 522 q 274 588 288 585 q 232 565 261 590 q 153 472 186 526 q 142 444 142 458 q 113 406 142 414 q 89 408 103 403 q 67 424 75 414 q 54 485 49 451 q 72 545 60 517 q 103 599 85 574 q 144 649 122 626 q 194 690 167 672 q 291 715 239 718 q 383 665 343 711 q 412 626 401 647 q 432 581 422 604 q 458 493 447 538 q 474 403 468 449 q 486 279 481 340 q 496 156 492 218 q 496 82 500 119 q 461 23 493 40 q 394 28 429 6 q 375 51 381 38 q 367 81 369 65 q 365 94 365 88 q 363 107 365 100 m 244 139 q 288 185 267 163 q 324 236 308 208 q 323 256 328 244 q 308 274 318 268 q 294 276 299 281 q 282 268 289 271 q 278 263 281 265 q 274 257 275 260 q 247 202 256 231 q 244 139 239 174 z "},"á":{"ha":550,"x_min":49,"x_max":500,"o":"m 363 107 q 348 90 353 100 q 336 72 343 79 q 306 34 322 51 q 265 7 289 17 q 187 5 226 -11 q 132 61 147 21 q 115 210 101 139 q 178 344 128 281 q 244 394 206 379 q 328 399 282 408 q 333 398 331 399 q 338 397 335 397 q 340 417 343 408 q 336 436 338 426 q 323 494 331 467 q 304 549 315 522 q 274 588 288 585 q 232 565 261 590 q 153 472 186 526 q 142 444 142 458 q 113 406 142 414 q 89 408 103 403 q 67 424 75 414 q 54 485 49 451 q 72 545 60 517 q 103 599 85 574 q 144 649 122 626 q 194 690 167 672 q 291 715 239 718 q 383 665 343 711 q 412 626 401 647 q 432 581 422 604 q 458 493 447 538 q 474 403 468 449 q 486 279 481 340 q 496 156 492 218 q 496 82 500 119 q 461 23 493 40 q 394 28 429 6 q 375 51 381 38 q 367 81 369 65 q 365 94 365 88 q 363 107 365 100 m 244 139 q 288 185 267 163 q 324 236 308 208 q 323 256 328 244 q 308 274 318 268 q 294 276 299 281 q 282 268 289 271 q 278 263 281 265 q 274 257 275 260 q 247 202 256 231 q 244 139 239 174 m 225 742 q 201 753 210 742 q 196 779 193 765 q 199 784 197 782 q 200 789 200 786 q 261 881 228 838 q 335 964 294 925 q 347 972 342 971 q 365 973 357 978 q 372 958 372 968 q 369 949 371 953 q 367 939 368 944 q 319 852 343 896 q 264 768 296 808 q 247 751 257 758 q 225 742 238 743 z "},"ă":{"ha":550,"x_min":49,"x_max":500,"o":"m 363 107 q 348 90 353 100 q 336 72 343 79 q 306 34 322 51 q 265 7 289 17 q 187 5 226 -11 q 132 61 147 21 q 115 210 101 139 q 178 344 128 281 q 244 394 206 379 q 328 399 282 408 q 333 398 331 399 q 338 397 335 397 q 340 417 343 408 q 336 436 338 426 q 323 494 331 467 q 304 549 315 522 q 274 588 288 585 q 232 565 261 590 q 153 472 186 526 q 142 444 142 458 q 113 406 142 414 q 89 408 103 403 q 67 424 75 414 q 54 485 49 451 q 72 545 60 517 q 103 599 85 574 q 144 649 122 626 q 194 690 167 672 q 291 715 239 718 q 383 665 343 711 q 412 626 401 647 q 432 581 422 604 q 458 493 447 538 q 474 403 468 449 q 486 279 481 340 q 496 156 492 218 q 496 82 500 119 q 461 23 493 40 q 394 28 429 6 q 375 51 381 38 q 367 81 369 65 q 365 94 365 88 q 363 107 365 100 m 244 139 q 288 185 267 163 q 324 236 308 208 q 323 256 328 244 q 308 274 318 268 q 294 276 299 281 q 282 268 289 271 q 278 263 281 265 q 274 257 275 260 q 247 202 256 231 q 244 139 239 174 m 344 932 q 349 937 347 935 q 357 936 351 939 q 363 924 363 935 q 361 901 363 922 q 353 852 360 879 q 331 805 347 825 q 282 785 314 785 q 240 806 256 785 q 215 853 224 826 q 202 903 206 881 q 199 928 199 925 q 208 944 200 938 q 221 953 215 951 q 244 936 235 957 q 248 912 246 931 q 258 876 250 893 q 283 860 267 860 q 320 875 310 860 q 335 908 331 890 q 344 932 339 926 z "},"ǎ":{"ha":550,"x_min":49,"x_max":500,"o":"m 363 107 q 348 90 353 100 q 336 72 343 79 q 306 34 322 51 q 265 7 289 17 q 187 5 226 -11 q 132 61 147 21 q 115 210 101 139 q 178 344 128 281 q 244 394 206 379 q 328 399 282 408 q 333 398 331 399 q 338 397 335 397 q 340 417 343 408 q 336 436 338 426 q 323 494 331 467 q 304 549 315 522 q 274 588 288 585 q 232 565 261 590 q 153 472 186 526 q 142 444 142 458 q 113 406 142 414 q 89 408 103 403 q 67 424 75 414 q 54 485 49 451 q 72 545 60 517 q 103 599 85 574 q 144 649 122 626 q 194 690 167 672 q 291 715 239 718 q 383 665 343 711 q 412 626 401 647 q 432 581 422 604 q 458 493 447 538 q 474 403 468 449 q 486 279 481 340 q 496 156 492 218 q 496 82 500 119 q 461 23 493 40 q 394 28 429 6 q 375 51 381 38 q 367 81 369 65 q 365 94 365 88 q 363 107 365 100 m 244 139 q 288 185 267 163 q 324 236 308 208 q 323 256 328 244 q 308 274 318 268 q 294 276 299 281 q 282 268 289 271 q 278 263 281 265 q 274 257 275 260 q 247 202 256 231 q 244 139 239 174 m 283 869 q 299 897 293 885 q 308 922 304 910 q 337 972 318 950 q 375 1015 356 993 q 392 1019 383 1024 q 403 1003 403 1017 q 400 990 403 994 q 375 915 385 953 q 350 839 365 876 q 340 813 346 826 q 325 789 335 800 q 276 765 303 763 q 233 797 249 767 q 206 869 218 833 q 182 943 193 906 q 178 958 181 950 q 174 974 175 967 q 170 991 171 982 q 169 1007 169 1000 q 199 1039 172 1033 q 229 1018 218 1042 q 247 973 239 996 q 263 926 256 950 q 274 899 269 914 q 283 869 278 885 z "},"â":{"ha":550,"x_min":49,"x_max":500,"o":"m 363 107 q 348 90 353 100 q 336 72 343 79 q 306 34 322 51 q 265 7 289 17 q 187 5 226 -11 q 132 61 147 21 q 115 210 101 139 q 178 344 128 281 q 244 394 206 379 q 328 399 282 408 q 333 398 331 399 q 338 397 335 397 q 340 417 343 408 q 336 436 338 426 q 323 494 331 467 q 304 549 315 522 q 274 588 288 585 q 232 565 261 590 q 153 472 186 526 q 142 444 142 458 q 113 406 142 414 q 89 408 103 403 q 67 424 75 414 q 54 485 49 451 q 72 545 60 517 q 103 599 85 574 q 144 649 122 626 q 194 690 167 672 q 291 715 239 718 q 383 665 343 711 q 412 626 401 647 q 432 581 422 604 q 458 493 447 538 q 474 403 468 449 q 486 279 481 340 q 496 156 492 218 q 496 82 500 119 q 461 23 493 40 q 394 28 429 6 q 375 51 381 38 q 367 81 369 65 q 365 94 365 88 q 363 107 365 100 m 244 139 q 288 185 267 163 q 324 236 308 208 q 323 256 328 244 q 308 274 318 268 q 294 276 299 281 q 282 268 289 271 q 278 263 281 265 q 274 257 275 260 q 247 202 256 231 q 244 139 239 174 m 276 925 q 258 892 264 910 q 242 856 251 874 q 231 835 236 846 q 218 813 225 824 q 175 789 204 782 q 150 831 150 796 q 158 860 153 847 q 185 935 171 897 q 217 1008 199 972 q 237 1037 224 1025 q 271 1050 250 1049 q 306 1040 290 1050 q 331 1013 321 1029 q 349 976 342 994 q 363 938 357 957 q 376 865 369 901 q 392 793 383 829 q 392 788 392 790 q 393 783 393 786 q 385 763 397 769 q 363 763 374 757 q 350 776 354 769 q 343 792 346 783 q 317 849 331 821 q 289 906 304 878 q 284 917 286 911 q 276 925 282 922 z "},"ä":{"ha":550,"x_min":49,"x_max":500,"o":"m 363 107 q 348 90 353 100 q 336 72 343 79 q 306 34 322 51 q 265 7 289 17 q 187 5 226 -11 q 132 61 147 21 q 115 210 101 139 q 178 344 128 281 q 244 394 206 379 q 328 399 282 408 q 333 398 331 399 q 338 397 335 397 q 340 417 343 408 q 336 436 338 426 q 323 494 331 467 q 304 549 315 522 q 274 588 288 585 q 232 565 261 590 q 153 472 186 526 q 142 444 142 458 q 113 406 142 414 q 89 408 103 403 q 67 424 75 414 q 54 485 49 451 q 72 545 60 517 q 103 599 85 574 q 144 649 122 626 q 194 690 167 672 q 291 715 239 718 q 383 665 343 711 q 412 626 401 647 q 432 581 422 604 q 458 493 447 538 q 474 403 468 449 q 486 279 481 340 q 496 156 492 218 q 496 82 500 119 q 461 23 493 40 q 394 28 429 6 q 375 51 381 38 q 367 81 369 65 q 365 94 365 88 q 363 107 365 100 m 244 139 q 288 185 267 163 q 324 236 308 208 q 323 256 328 244 q 308 274 318 268 q 294 276 299 281 q 282 268 289 271 q 278 263 281 265 q 274 257 275 260 q 247 202 256 231 q 244 139 239 174 m 396 865 q 383 837 396 850 q 351 824 369 824 q 322 839 335 826 q 310 869 310 851 q 324 899 313 888 q 354 911 336 911 q 384 898 371 911 q 396 865 397 885 m 243 831 q 217 840 228 831 q 204 865 206 850 q 239 906 204 901 q 266 896 254 907 q 279 869 278 885 q 269 843 279 854 q 243 831 258 832 z "},"à":{"ha":550,"x_min":49,"x_max":500,"o":"m 363 107 q 348 90 353 100 q 336 72 343 79 q 306 34 322 51 q 265 7 289 17 q 187 5 226 -11 q 132 61 147 21 q 115 210 101 139 q 178 344 128 281 q 244 394 206 379 q 328 399 282 408 q 333 398 331 399 q 338 397 335 397 q 340 417 343 408 q 336 436 338 426 q 323 494 331 467 q 304 549 315 522 q 274 588 288 585 q 232 565 261 590 q 153 472 186 526 q 142 444 142 458 q 113 406 142 414 q 89 408 103 403 q 67 424 75 414 q 54 485 49 451 q 72 545 60 517 q 103 599 85 574 q 144 649 122 626 q 194 690 167 672 q 291 715 239 718 q 383 665 343 711 q 412 626 401 647 q 432 581 422 604 q 458 493 447 538 q 474 403 468 449 q 486 279 481 340 q 496 156 492 218 q 496 82 500 119 q 461 23 493 40 q 394 28 429 6 q 375 51 381 38 q 367 81 369 65 q 365 94 365 88 q 363 107 365 100 m 244 139 q 288 185 267 163 q 324 236 308 208 q 323 256 328 244 q 308 274 318 268 q 294 276 299 281 q 282 268 289 271 q 278 263 281 265 q 274 257 275 260 q 247 202 256 231 q 244 139 239 174 m 219 939 q 233 971 219 961 q 265 971 247 981 q 274 963 269 968 q 283 954 279 958 q 303 924 296 940 q 319 892 311 907 q 342 836 331 864 q 367 781 354 808 q 371 774 369 778 q 374 768 372 771 q 367 747 375 756 q 344 743 360 740 q 317 767 328 749 q 292 803 304 786 q 271 839 281 821 q 250 870 261 854 q 229 904 239 886 q 224 923 226 914 q 219 939 221 932 z "},"ā":{"ha":550,"x_min":49,"x_max":500,"o":"m 363 107 q 348 90 353 100 q 336 72 343 79 q 306 34 322 51 q 265 7 289 17 q 187 5 226 -11 q 132 61 147 21 q 115 210 101 139 q 178 344 128 281 q 244 394 206 379 q 328 399 282 408 q 333 398 331 399 q 338 397 335 397 q 340 417 343 408 q 336 436 338 426 q 323 494 331 467 q 304 549 315 522 q 274 588 288 585 q 232 565 261 590 q 153 472 186 526 q 142 444 142 458 q 113 406 142 414 q 89 408 103 403 q 67 424 75 414 q 54 485 49 451 q 72 545 60 517 q 103 599 85 574 q 144 649 122 626 q 194 690 167 672 q 291 715 239 718 q 383 665 343 711 q 412 626 401 647 q 432 581 422 604 q 458 493 447 538 q 474 403 468 449 q 486 279 481 340 q 496 156 492 218 q 496 82 500 119 q 461 23 493 40 q 394 28 429 6 q 375 51 381 38 q 367 81 369 65 q 365 94 365 88 q 363 107 365 100 m 244 139 q 288 185 267 163 q 324 236 308 208 q 323 256 328 244 q 308 274 318 268 q 294 276 299 281 q 282 268 289 271 q 278 263 281 265 q 274 257 275 260 q 247 202 256 231 q 244 139 239 174 m 242 804 q 205 806 224 806 q 168 810 186 806 q 138 843 138 815 q 167 876 133 869 q 176 879 171 879 q 183 879 181 879 q 251 883 218 878 q 318 893 283 889 q 338 896 328 896 q 358 896 347 896 q 396 860 392 892 q 367 817 399 831 q 343 813 354 813 q 292 808 317 811 q 242 804 267 806 z "},"ą":{"ha":550,"x_min":49,"x_max":518,"o":"m 363 107 q 348 90 353 100 q 336 72 343 79 q 306 34 322 51 q 265 7 289 17 q 187 5 226 -11 q 132 61 147 21 q 115 210 101 139 q 178 344 128 281 q 244 394 206 379 q 328 399 282 408 q 333 398 331 399 q 338 397 335 397 q 340 417 343 408 q 336 436 338 426 q 323 494 331 467 q 304 549 315 522 q 274 588 288 585 q 232 565 261 590 q 153 472 186 526 q 142 444 142 458 q 113 406 142 414 q 89 408 103 403 q 67 424 75 414 q 54 485 49 451 q 72 545 60 517 q 103 599 85 574 q 144 649 122 626 q 194 690 167 672 q 291 715 239 718 q 383 665 343 711 q 412 626 401 647 q 432 581 422 604 q 458 493 447 538 q 474 403 468 449 q 486 279 481 340 q 496 156 492 218 q 496 82 500 119 q 461 23 493 40 q 394 28 429 6 q 375 51 381 38 q 367 81 369 65 q 365 94 365 88 q 363 107 365 100 m 244 139 q 288 185 267 163 q 324 236 308 208 q 323 256 328 244 q 308 274 318 268 q 294 276 299 281 q 282 268 289 271 q 278 263 281 265 q 274 257 275 260 q 247 202 256 231 q 244 139 239 174 m 274 -89 q 286 -36 272 -67 q 322 21 300 -6 q 369 56 344 47 q 389 61 379 60 q 408 60 399 63 q 429 42 426 54 q 419 18 432 31 q 390 -15 401 3 q 371 -57 378 -33 q 370 -63 371 -60 q 369 -69 369 -67 q 392 -90 364 -100 q 437 -73 415 -83 q 474 -43 458 -62 q 484 -30 478 -35 q 500 -31 490 -25 q 513 -46 508 -33 q 513 -65 518 -58 q 503 -83 508 -75 q 490 -99 497 -92 q 399 -165 449 -140 q 333 -174 363 -183 q 288 -139 304 -164 q 274 -89 272 -114 z "},"å":{"ha":550,"x_min":49,"x_max":500,"o":"m 363 107 q 348 90 353 100 q 336 72 343 79 q 306 34 322 51 q 265 7 289 17 q 187 5 226 -11 q 132 61 147 21 q 115 210 101 139 q 178 344 128 281 q 244 394 206 379 q 328 399 282 408 q 333 398 331 399 q 338 397 335 397 q 340 417 343 408 q 336 436 338 426 q 323 494 331 467 q 304 549 315 522 q 274 588 288 585 q 232 565 261 590 q 153 472 186 526 q 142 444 142 458 q 113 406 142 414 q 89 408 103 403 q 67 424 75 414 q 54 485 49 451 q 72 545 60 517 q 103 599 85 574 q 144 649 122 626 q 194 690 167 672 q 291 715 239 718 q 383 665 343 711 q 412 626 401 647 q 432 581 422 604 q 458 493 447 538 q 474 403 468 449 q 486 279 481 340 q 496 156 492 218 q 496 82 500 119 q 461 23 493 40 q 394 28 429 6 q 375 51 381 38 q 367 81 369 65 q 365 94 365 88 q 363 107 365 100 m 244 139 q 288 185 267 163 q 324 236 308 208 q 323 256 328 244 q 308 274 318 268 q 294 276 299 281 q 282 268 289 271 q 278 263 281 265 q 274 257 275 260 q 247 202 256 231 q 244 139 239 174 m 167 851 q 178 904 169 879 q 206 950 186 929 q 239 963 222 964 q 263 959 251 960 q 288 958 275 958 q 326 949 307 957 q 358 926 344 942 q 358 822 406 879 q 288 771 328 790 q 183 793 224 747 q 169 821 172 806 q 167 851 167 836 m 243 872 q 285 846 243 826 q 289 847 288 846 q 292 847 290 847 q 317 872 317 863 q 296 897 318 882 q 276 910 286 904 q 256 910 267 915 q 246 893 246 904 q 243 872 246 882 z "},"ã":{"ha":550,"x_min":49,"x_max":500,"o":"m 363 107 q 348 90 353 100 q 336 72 343 79 q 306 34 322 51 q 265 7 289 17 q 187 5 226 -11 q 132 61 147 21 q 115 210 101 139 q 178 344 128 281 q 244 394 206 379 q 328 399 282 408 q 333 398 331 399 q 338 397 335 397 q 340 417 343 408 q 336 436 338 426 q 323 494 331 467 q 304 549 315 522 q 274 588 288 585 q 232 565 261 590 q 153 472 186 526 q 142 444 142 458 q 113 406 142 414 q 89 408 103 403 q 67 424 75 414 q 54 485 49 451 q 72 545 60 517 q 103 599 85 574 q 144 649 122 626 q 194 690 167 672 q 291 715 239 718 q 383 665 343 711 q 412 626 401 647 q 432 581 422 604 q 458 493 447 538 q 474 403 468 449 q 486 279 481 340 q 496 156 492 218 q 496 82 500 119 q 461 23 493 40 q 394 28 429 6 q 375 51 381 38 q 367 81 369 65 q 365 94 365 88 q 363 107 365 100 m 244 139 q 288 185 267 163 q 324 236 308 208 q 323 256 328 244 q 308 274 318 268 q 294 276 299 281 q 282 268 289 271 q 278 263 281 265 q 274 257 275 260 q 247 202 256 231 q 244 139 239 174 m 349 781 q 249 828 286 783 q 237 842 243 835 q 225 857 231 850 q 209 869 215 868 q 192 861 203 871 q 167 835 178 849 q 150 803 157 821 q 149 801 150 801 q 149 799 149 801 q 121 776 139 772 q 106 788 111 778 q 103 810 101 797 q 104 822 103 818 q 138 881 117 854 q 190 924 160 907 q 236 932 213 939 q 278 901 260 925 q 292 881 285 892 q 308 864 299 871 q 336 847 321 851 q 369 844 351 843 q 400 866 389 847 q 404 903 411 885 q 403 906 404 906 q 403 906 403 906 q 396 919 397 913 q 403 932 394 926 q 418 936 410 939 q 432 928 426 933 q 458 888 446 915 q 461 836 471 860 q 447 814 456 824 q 425 797 438 804 q 349 781 388 781 z "},"æ":{"ha":775,"x_min":49,"x_max":728,"o":"m 503 256 q 488 247 492 256 q 492 217 490 232 q 494 186 493 201 q 499 169 496 176 q 504 151 501 161 q 519 131 511 133 q 544 139 526 128 q 568 156 557 146 q 592 176 579 165 q 615 197 603 188 q 640 215 628 206 q 648 222 644 218 q 657 226 651 225 q 692 223 676 233 q 708 190 707 213 q 706 171 708 181 q 700 151 703 161 q 649 60 683 99 q 558 3 615 21 q 449 19 501 -15 q 422 17 436 15 q 392 28 407 18 q 372 51 378 38 q 365 81 367 65 q 365 94 365 88 q 361 107 365 100 q 347 90 351 100 q 336 72 343 79 q 305 34 321 51 q 265 7 289 17 q 185 5 225 -11 q 129 61 144 21 q 178 344 71 214 q 242 394 204 379 q 325 399 281 408 q 331 398 328 399 q 338 397 335 397 q 338 417 340 408 q 333 436 336 426 q 322 494 329 467 q 303 549 315 522 q 274 588 288 585 q 232 565 260 590 q 187 522 208 546 q 150 472 165 499 q 144 460 147 467 q 142 444 142 453 q 111 406 142 414 q 86 408 100 403 q 65 424 72 414 q 53 485 49 450 q 70 545 57 517 q 100 599 83 574 q 142 649 119 626 q 192 690 164 672 q 290 715 236 718 q 383 665 343 711 q 429 581 414 629 q 439 556 435 568 q 449 528 443 543 q 475 561 461 546 q 507 589 489 576 q 583 618 540 614 q 658 600 625 621 q 710 544 692 579 q 721 464 728 508 q 715 438 718 451 q 704 411 711 424 q 660 345 686 376 q 603 290 635 314 q 556 265 581 275 q 503 256 531 254 m 508 381 q 508 373 508 378 q 511 365 508 368 q 519 363 515 363 q 525 365 522 364 q 615 468 590 400 l 615 478 q 604 506 615 500 q 582 499 592 511 q 561 482 569 493 q 531 433 543 460 q 508 381 518 407 m 321 236 q 322 256 326 244 q 307 274 317 268 q 292 276 299 281 q 282 268 286 271 q 276 263 279 265 q 271 257 274 260 q 242 139 233 206 q 285 185 264 163 q 321 236 306 208 z "},"b":{"ha":532,"x_min":51,"x_max":488,"o":"m 190 581 q 197 583 193 582 q 203 586 200 585 q 292 606 247 611 q 378 572 338 600 q 436 509 415 546 q 467 431 457 472 q 474 263 488 344 q 408 107 461 181 q 342 41 381 67 q 254 7 304 15 q 220 7 238 6 q 188 14 203 8 q 174 17 181 17 q 158 11 167 18 q 115 -3 139 -6 q 74 17 92 0 q 54 61 56 35 q 53 149 51 106 q 58 235 54 192 q 63 322 64 279 q 61 407 63 364 q 59 560 61 485 q 54 711 57 635 q 52 815 53 764 q 57 919 51 867 q 65 987 60 953 q 83 1051 71 1021 q 117 1085 93 1075 q 153 1085 136 1094 q 169 1053 169 1075 q 177 827 174 940 q 183 601 181 714 q 185 592 186 596 q 190 581 185 588 m 192 243 l 194 243 l 194 176 q 203 141 194 149 q 240 139 213 133 q 266 148 254 140 q 288 165 278 156 q 329 232 317 194 q 344 288 339 260 q 349 347 350 317 q 328 435 349 393 q 315 454 322 446 q 299 468 308 463 q 250 460 268 488 q 208 377 228 419 q 190 282 188 335 q 192 263 192 272 q 192 243 192 253 z "},"c":{"ha":449,"x_min":51,"x_max":399,"o":"m 53 228 q 74 356 51 297 q 136 465 97 414 q 240 539 175 515 q 293 544 267 546 q 344 526 319 542 q 363 508 356 518 q 374 486 371 499 q 360 430 381 451 q 307 415 339 408 q 275 415 289 421 q 249 397 261 410 q 190 169 160 296 q 221 121 200 129 q 279 131 242 113 q 324 168 306 143 q 331 179 326 175 q 340 189 335 183 q 374 197 354 206 q 396 165 396 186 q 385 110 399 135 q 353 64 372 86 q 295 22 326 38 q 228 -1 264 7 q 170 2 197 -6 q 121 32 143 10 q 78 94 93 60 q 57 165 64 128 q 53 197 54 181 q 53 228 51 214 z "},"ć":{"ha":449,"x_min":51,"x_max":399,"o":"m 53 228 q 74 356 51 297 q 136 465 97 414 q 240 539 175 515 q 293 544 267 546 q 344 526 319 542 q 363 508 356 518 q 374 486 371 499 q 360 430 381 451 q 307 415 339 408 q 275 415 289 421 q 249 397 261 410 q 190 169 160 296 q 221 121 200 129 q 279 131 242 113 q 324 168 306 143 q 331 179 326 175 q 340 189 335 183 q 374 197 354 206 q 396 165 396 186 q 385 110 399 135 q 353 64 372 86 q 295 22 326 38 q 228 -1 264 7 q 170 2 197 -6 q 121 32 143 10 q 78 94 93 60 q 57 165 64 128 q 53 197 54 181 q 53 228 51 214 m 167 621 q 143 633 151 621 q 138 658 135 644 q 140 663 139 661 q 142 668 142 665 q 203 760 169 717 q 276 843 236 804 q 289 851 283 850 q 306 852 299 857 q 314 838 314 847 q 311 828 313 832 q 308 818 310 824 q 261 731 285 775 q 206 647 238 688 q 189 630 199 638 q 167 621 179 622 z "},"č":{"ha":449,"x_min":51,"x_max":399,"o":"m 53 228 q 74 356 51 297 q 136 465 97 414 q 240 539 175 515 q 293 544 267 546 q 344 526 319 542 q 363 508 356 518 q 374 486 371 499 q 360 430 381 451 q 307 415 339 408 q 275 415 289 421 q 249 397 261 410 q 190 169 160 296 q 221 121 200 129 q 279 131 242 113 q 324 168 306 143 q 331 179 326 175 q 340 189 335 183 q 374 197 354 206 q 396 165 396 186 q 385 110 399 135 q 353 64 372 86 q 295 22 326 38 q 228 -1 264 7 q 170 2 197 -6 q 121 32 143 10 q 78 94 93 60 q 57 165 64 128 q 53 197 54 181 q 53 228 51 214 m 225 749 q 240 776 235 764 q 250 801 246 789 q 278 851 260 829 q 317 894 297 872 q 333 899 325 903 q 344 882 344 896 q 342 869 344 874 q 317 794 326 832 q 292 718 307 756 q 282 692 288 706 q 267 668 276 679 q 217 644 244 642 q 175 676 190 646 q 147 749 160 713 q 124 822 135 785 q 119 838 122 829 q 115 853 117 846 q 112 870 113 861 q 111 886 111 879 q 140 918 114 913 q 171 897 160 921 q 189 852 181 875 q 204 806 197 829 q 215 778 211 793 q 225 749 219 764 z "},"ç":{"ha":449,"x_min":51,"x_max":399,"o":"m 53 228 q 74 356 51 297 q 136 465 97 414 q 240 539 175 515 q 293 544 267 546 q 344 526 319 542 q 363 508 356 518 q 374 486 371 499 q 360 430 381 451 q 307 415 339 408 q 275 415 289 421 q 249 397 261 410 q 190 169 160 296 q 221 121 200 129 q 279 131 242 113 q 324 168 306 143 q 331 179 326 175 q 340 189 335 183 q 374 197 354 206 q 396 165 396 186 q 385 110 399 135 q 353 64 372 86 q 295 22 326 38 q 228 -1 264 7 q 170 2 197 -6 q 121 32 143 10 q 78 94 93 60 q 57 165 64 128 q 53 197 54 181 q 53 228 51 214 m 199 -206 q 178 -203 189 -203 q 157 -201 168 -203 q 133 -189 143 -197 q 124 -157 119 -175 q 149 -136 129 -140 q 221 -101 192 -128 q 217 -76 239 -83 q 202 -72 211 -74 q 186 -69 193 -71 q 160 -58 172 -65 q 144 -32 149 -50 q 165 26 139 0 q 190 36 178 39 q 208 15 203 33 q 218 -2 211 3 q 236 -10 225 -7 q 325 -81 292 -24 q 328 -135 338 -103 q 296 -182 319 -167 q 199 -206 261 -206 z "},"ċ":{"ha":449,"x_min":51,"x_max":399,"o":"m 53 228 q 74 356 51 297 q 136 465 97 414 q 240 539 175 515 q 293 544 267 546 q 344 526 319 542 q 363 508 356 518 q 374 486 371 499 q 360 430 381 451 q 307 415 339 408 q 275 415 289 421 q 249 397 261 410 q 190 169 160 296 q 221 121 200 129 q 279 131 242 113 q 324 168 306 143 q 331 179 326 175 q 340 189 335 183 q 374 197 354 206 q 396 165 396 186 q 385 110 399 135 q 353 64 372 86 q 295 22 326 38 q 228 -1 264 7 q 170 2 197 -6 q 121 32 143 10 q 78 94 93 60 q 57 165 64 128 q 53 197 54 181 q 53 228 51 214 m 228 682 q 199 692 210 681 q 186 722 188 704 q 200 757 186 742 q 232 772 214 772 q 271 724 269 772 q 257 695 271 708 q 228 682 243 682 z "},"d":{"ha":578,"x_min":53,"x_max":535,"o":"m 407 186 q 385 147 394 164 q 365 111 376 129 q 328 63 347 85 q 282 24 308 42 q 178 -1 232 -10 q 83 68 117 11 q 60 128 67 97 q 53 194 53 160 q 89 358 54 285 q 186 493 124 432 q 226 525 206 510 q 274 544 247 540 q 319 549 297 550 q 363 540 340 547 q 371 538 365 539 q 382 540 376 538 q 383 587 382 563 q 382 635 383 611 q 386 740 382 689 q 387 803 388 772 q 386 864 386 833 q 388 918 388 890 q 392 972 389 946 q 399 1010 394 992 q 415 1043 404 1028 q 449 1065 425 1065 q 490 1043 476 1069 q 505 1010 500 1028 q 511 974 510 993 q 516 903 515 939 q 515 831 517 867 q 514 663 515 747 q 511 494 513 579 q 512 401 511 447 q 511 307 513 354 q 510 212 510 260 q 515 115 510 164 q 521 74 515 94 q 500 19 535 38 q 446 36 471 6 q 436 57 440 46 q 429 78 432 68 q 419 130 424 103 q 407 186 414 157 m 338 424 q 311 422 322 426 q 290 410 300 417 q 268 391 278 401 q 249 368 258 381 q 198 278 215 325 q 186 176 181 231 q 188 149 186 164 q 203 132 190 135 q 223 140 214 129 q 238 160 232 150 q 283 236 265 197 q 313 318 300 275 q 326 370 321 344 q 338 424 332 396 z "}}}
